<?xml version="1.0" encoding="utf-8"?>
<!-- Generator: Adobe Illustrator 27.5.0, SVG Export Plug-In . SVG Version: 6.00 Build 0)  -->
<svg version="1.1" xmlns="http://www.w3.org/2000/svg" xmlns:xlink="http://www.w3.org/1999/xlink" x="0px" y="0px"
	 viewBox="0 0 3710 3710" style="enable-background:new 0 0 3710 3710;" xml:space="preserve">
<g id="Background">
	<g>
		<g>
			<rect style="fill:#FFFFFF;" width="3710" height="3710"/>
		</g>
	</g>
</g>
<g id="Illustration">
	<g>
		<linearGradient id="SVGID_1_" gradientUnits="userSpaceOnUse" x1="3394.8789" y1="3578.6074" x2="1374.3221" y2="1397.689">
			<stop  offset="0" style="stop-color:#DAE3FE"/>
			<stop  offset="1" style="stop-color:#E9EFFD"/>
		</linearGradient>
		<path style="fill:url(#SVGID_1_);" d="M3113.301,2335.784c-277.639,648.949-1010.517,927.688-1584.738,880.163
			c-156.786-12.976-472.242-39.085-718.553-272.013c-473.023-447.324-400.173-1382.355,52.646-1932.849
			c58.314-70.892,461.953-545.863,1090.948-539.506c460.516,4.655,783.749,264.794,823.052,297.203
			c49.651,40.94,159.162,138.228,257.857,292.569C3266.413,1423.997,3286.798,1930.255,3113.301,2335.784z"/>
		<g>
			<path style="fill:#91B3FA;" d="M2351.055,584.328c13.867-37.234,1.719-71.19-25.38-99.984
				c-1.597-10.21,11.539-16.361,24.634-2.943c31.895,31.61,38.916,85.51,23.497,134.743L2351.055,584.328z"/>
			<path style="fill:#91B3FA;" d="M2552.659,973.218c-35.392,6.998-72.135,4.799-108.764,0.127c-1.654-0.211-3.227,0.784-3.72,2.377
				c-16.681,53.861-70.718,129.153-132.146,200.802c-1.794,2.093-5.204,1.325-5.935-1.333
				c-25.067-91.202-45.633-177.589-37.664-233.441c0.234-1.643-0.755-3.204-2.329-3.732c-34.716-11.654-65.554-29.542-93.589-51.936
				c-2.821-2.254-6.765,0.821-5.275,4.11c27.104,59.866,47.835,168.441,68.839,274.933c0.078,0.397,0.086,0.804,0.023,1.204
				l-161.772,1023.126c-0.67,4.239,5.464,5.64,6.701,1.53l298.671-992.881l-0.559-0.126
				c64.817-87.321,130.261-176.573,180.435-218.762C2558.306,976.921,2556.158,972.526,2552.659,973.218z"/>
			<path style="fill:#91B3FA;" d="M2312.716,558.211c-69.348-15.647-144.789,56.864-168.502,161.959
				c-23.712,105.094,13.283,202.975,82.631,218.622c69.348,15.647,144.789-56.865,168.502-161.959
				C2419.059,671.739,2382.064,573.858,2312.716,558.211z M2231.465,918.319c-56.393-12.724-85.069-98.563-64.048-191.726
				c21.021-93.163,83.777-158.372,140.17-145.648c56.393,12.724,85.069,98.563,64.048,191.726
				C2350.614,865.834,2287.858,931.043,2231.465,918.319z"/>
			<path style="fill:#91B3FA;" d="M2571.873,617.873c-69.348-15.647-144.789,56.864-168.502,161.959
				c-23.712,105.094,13.283,202.975,82.631,218.622c69.348,15.647,144.789-56.865,168.502-161.959
				C2678.217,731.4,2641.221,633.52,2571.873,617.873z M2490.622,977.981c-56.393-12.724-85.069-98.563-64.048-191.726
				c21.021-93.163,83.777-158.372,140.17-145.648c56.393,12.724,85.069,98.563,64.048,191.726
				C2609.771,925.496,2547.015,990.705,2490.622,977.981z"/>
			
				<ellipse transform="matrix(0.623 -0.7822 0.7822 0.623 -104.8132 2257.1921)" style="fill:#91B3FA;" cx="2289.269" cy="1237.332" rx="21.925" ry="21.925"/>
		</g>
		<path style="fill:#91B3FA;" d="M2505.931,1248.586l167.127,79.797c1.332,0.636,2.927,0.072,3.563-1.26l2.14-4.483l-169.538-80.948
			l3.755-7.865l169.538,80.948l1.808-3.787l-169.538-80.948l3.755-7.865l169.538,80.948l3.292-6.895l-169.538-80.948l3.755-7.865
			l169.538,80.948l1.808-3.787l-169.538-80.948l3.755-7.865l169.538,80.948l3.292-6.895l-169.283-80.826
			c-0.086-0.041-0.167-0.089-0.249-0.135l3.743-7.839c0.087,0.035,0.175,0.068,0.261,0.109l169.283,80.826l1.808-3.787
			l-169.283-80.826c-0.086-0.041-0.167-0.089-0.249-0.135l3.743-7.839c0.088,0.035,0.176,0.068,0.262,0.109l169.283,80.826
			l3.292-6.895l-169.538-80.948l3.755-7.865l169.538,80.948l1.808-3.787l-169.538-80.948l3.755-7.865l169.538,80.948l3.292-6.895
			l-169.538-80.948l3.755-7.865l169.538,80.948l1.808-3.787l-169.538-80.948l3.755-7.865l169.538,80.948l3.292-6.895
			l-169.538-80.948l3.755-7.865l169.538,80.948l1.808-3.787l-169.538-80.948l3.755-7.865l169.538,80.948l3.385-7.09l-169.538-80.948
			l3.755-7.865l169.538,80.948l1.808-3.787l-169.538-80.948l3.755-7.865l169.538,80.948l3.292-6.895l-169.538-80.948l3.755-7.865
			l169.538,80.948l1.808-3.787l-169.538-80.948l3.755-7.865l169.538,80.948l3.292-6.895l-169.538-80.948l3.755-7.865l169.538,80.948
			l1.808-3.787l-169.538-80.948l3.755-7.865l169.538,80.948l3.292-6.895l-168.228-80.323c-0.46-0.22-0.86-0.513-1.201-0.854
			l3.537-7.408c0.48,0.051,0.959,0.178,1.419,0.397l168.228,80.323l1.808-3.787l-168.228-80.323c-0.46-0.22-0.86-0.513-1.201-0.854
			l3.537-7.408c0.48,0.051,0.959,0.178,1.419,0.397l168.228,80.323l3.292-6.895l-168.482-80.444
			c-0.366-0.175-0.694-0.397-0.986-0.652l3.614-7.57c0.381,0.067,0.76,0.182,1.126,0.357l168.482,80.444l1.808-3.787
			l-168.482-80.444c-0.366-0.175-0.694-0.397-0.985-0.652l3.614-7.57c0.381,0.067,0.76,0.182,1.126,0.357l168.482,80.444
			l3.292-6.895l-169.196-80.784c-0.116-0.055-0.226-0.117-0.334-0.181l3.739-7.83c0.118,0.044,0.235,0.091,0.351,0.146
			l169.195,80.784l1.808-3.787l-167.7-80.07c-0.665-0.317-1.21-0.782-1.62-1.335l3.319-6.951c0.688-0.029,1.392,0.103,2.057,0.421
			l167.7,80.07l3.292-6.895l-167.446-79.949c-0.77-0.368-1.378-0.934-1.802-1.606l3.176-6.651c0.789-0.093,1.612,0.024,2.382,0.392
			l167.446,79.949l1.808-3.787l-168.443-80.425c-0.381-0.182-0.72-0.414-1.02-0.681l3.604-7.549c0.396,0.065,0.79,0.183,1.171,0.365
			l168.443,80.425l3.292-6.895l-168.159-80.29c-0.486-0.232-0.906-0.546-1.258-0.912l3.513-7.358c0.506,0.044,1.014,0.173,1.5,0.405
			l168.159,80.29l1.808-3.787l-168.657-80.528c-0.303-0.145-0.579-0.323-0.832-0.523l3.657-7.66c0.315,0.07,0.626,0.173,0.93,0.318
			l168.657,80.528l2.865-6.001l-169.029-80.705c-0.173-0.083-0.335-0.179-0.492-0.28l3.72-7.792
			c0.178,0.058,0.354,0.124,0.527,0.207l169.029,80.705l1.808-3.787l-169.028-80.705c-0.173-0.083-0.335-0.179-0.492-0.28
			l3.72-7.791c0.178,0.058,0.354,0.124,0.527,0.207l169.029,80.705l3.292-6.895l-168.333-80.373
			c-0.42-0.201-0.793-0.461-1.114-0.765l3.574-7.485c0.438,0.059,0.875,0.185,1.295,0.385l168.333,80.373l1.808-3.787
			l-168.333-80.373c-0.42-0.201-0.793-0.461-1.114-0.765l3.574-7.485c0.438,0.059,0.875,0.185,1.295,0.385l168.333,80.373
			l3.292-6.894l-168.591-80.496c-0.327-0.156-0.622-0.352-0.891-0.573l3.641-7.625c0.34,0.07,0.678,0.176,1.005,0.333l168.59,80.496
			l1.808-3.787l-168.591-80.496c-0.327-0.156-0.623-0.352-0.89-0.572l3.64-7.625c0.34,0.07,0.678,0.176,1.005,0.333l168.591,80.496
			l3.292-6.895l-169.39-80.878c-0.05-0.024-0.096-0.053-0.145-0.078l3.748-7.85c0.05,0.022,0.101,0.039,0.151,0.063l169.39,80.878
			l1.808-3.787l-169.39-80.878c-0.05-0.024-0.096-0.053-0.144-0.078l3.748-7.85c0.05,0.022,0.101,0.039,0.152,0.063l169.39,80.878
			l3.292-6.895l-167.14-79.803c-0.904-0.432-1.587-1.136-2.006-1.966l2.971-6.223c0.909-0.195,1.886-0.107,2.79,0.324l167.14,79.803
			l1.808-3.787l-167.14-79.803c-0.904-0.432-1.587-1.136-2.006-1.966l2.971-6.223c0.909-0.195,1.886-0.107,2.79,0.324l167.14,79.803
			l3.292-6.895l-168.439-80.423c-0.382-0.182-0.723-0.415-1.024-0.684l3.604-7.547c0.398,0.065,0.793,0.184,1.175,0.366
			l168.439,80.423l1.809-3.787l-168.439-80.423c-0.382-0.182-0.723-0.415-1.024-0.684l3.604-7.547
			c0.398,0.065,0.793,0.184,1.175,0.366l168.439,80.423l3.292-6.895l-168.197-80.308c-0.472-0.225-0.88-0.528-1.227-0.88
			l3.526-7.385c0.492,0.048,0.984,0.175,1.456,0.401l168.197,80.308l1.808-3.787l-168.197-80.308
			c-0.472-0.225-0.881-0.528-1.227-0.88l3.526-7.385c0.492,0.048,0.984,0.175,1.456,0.401l168.197,80.308l3.292-6.895
			l-168.997-80.69c-0.184-0.088-0.356-0.191-0.521-0.3l3.716-7.782c0.189,0.06,0.377,0.129,0.561,0.217l168.934,80.659
			c0.522-1.35,0.901-2.724,1.142-4.105l-168.267-80.341c-0.184-0.088-0.356-0.191-0.521-0.3l3.715-7.782
			c0.189,0.06,0.377,0.129,0.561,0.217l163.926,78.268c-1.697-5.681-5.695-10.651-11.468-13.407l-149.915-71.579l6.417-13.44
			c1.905-0.879,4.168-0.945,6.215,0.012l203.315,95.071c5.454,2.604,5.134,17.216,2.53,22.671l-309.375,647.957l-321.199,615.988
			c-1.591,3.051-6.193,0.853-4.821-2.302l277.081-637.053l17.116-35.848c3.325-6.963,0.375-15.303-6.588-18.627l-153.911-73.487
			c-1.16-0.554-2.007-1.495-2.47-2.594L2505.931,1248.586z"/>
		<g style="opacity:0.87;">
			<path style="fill:#91B3FA;" d="M900.536,457.814c138.078,74.537,923.903,541.114,618.53,1357.164
				c0,0-596.408-173.99-638.119-1345.047C880.582,459.686,891.515,452.944,900.536,457.814z"/>
			<path style="fill:#BDD0FB;" d="M967.709,600.282c0,0,47.28,58.529,114.621,149.023c16.845,22.614,34.929,47.237,53.866,73.419
				c18.897,26.213,38.748,53.912,58.888,82.847c20.244,28.862,40.774,58.958,61.474,89.652
				c10.239,15.421,20.559,30.965,30.922,46.571c10.171,15.731,20.556,31.411,30.623,47.299
				c10.063,15.891,20.273,31.688,30.07,47.663c9.904,15.907,19.733,31.775,29.228,47.676c4.778,7.932,9.536,15.833,14.272,23.694
				c4.638,7.921,9.254,15.803,13.84,23.637c9.263,15.614,18.045,31.256,26.73,46.618c17.339,30.737,33.505,60.796,48.35,89.561
				c14.812,28.781,28.327,56.26,40.153,81.943c6.125,12.74,11.465,25.203,16.63,37.014c2.586,5.906,5.103,11.661,7.549,17.254
				c2.381,5.624,4.531,11.157,6.704,16.481c4.245,10.69,8.453,20.598,11.924,29.933c3.419,9.358,6.557,17.953,9.394,25.716
				c1.408,3.885,2.742,7.562,3.997,11.022c1.132,3.507,2.192,6.795,3.178,9.853c1.974,6.118,3.653,11.322,5.012,15.541
				c2.719,8.44,4.17,12.941,4.17,12.941c1.129,3.501-0.794,7.254-4.293,8.383c-3.503,1.128-7.257-0.795-8.385-4.296l-0.01-0.04
				l-0.088-0.27c0,0-1.402-4.449-4.033-12.792c-1.317-4.172-2.94-9.317-4.85-15.366c-0.953-3.025-1.978-6.276-3.07-9.745
				c-1.22-3.429-2.518-7.073-3.887-10.925c-2.755-7.697-5.806-16.22-9.127-25.498c-3.376-9.261-7.487-19.114-11.628-29.733
				c-2.117-5.291-4.215-10.788-6.541-16.382c-2.391-5.567-4.853-11.294-7.38-17.172c-5.055-11.756-10.272-24.159-16.282-36.862
				c-11.586-25.592-24.853-53.008-39.415-81.747c-14.591-28.725-30.5-58.767-47.582-89.508
				c-8.558-15.363-17.209-31.01-26.349-46.637c-4.521-7.84-9.071-15.729-13.645-23.656c-4.674-7.87-9.371-15.78-14.087-23.722
				c-9.367-15.92-19.07-31.812-28.85-47.745c-9.67-16-19.76-31.83-29.699-47.751c-9.946-15.92-20.215-31.637-30.265-47.405
				c-10.246-15.644-20.449-31.228-30.574-46.688c-20.469-30.777-40.778-60.96-60.81-89.913
				c-19.929-29.024-39.581-56.817-58.286-83.119c-18.748-26.273-36.653-50.983-53.339-73.682
				c-66.697-90.831-113.522-149.564-113.522-149.564c-0.973-1.218-0.774-2.993,0.446-3.965
				C964.964,598.877,966.734,599.077,967.709,600.282z"/>
		</g>
		<g>
			<path style="fill:#BDD0FB;" d="M546.12,623.208c123.825,45.223,833.667,337.818,678.749,1053.242
				c0,0-516.902-72.328-693.564-1040.794C529.759,627.183,538.03,620.253,546.12,623.208z"/>
			
				<linearGradient id="SVGID_00000141418139687782091100000013963350505216460223_" gradientUnits="userSpaceOnUse" x1="614.8035" y1="1126.0551" x2="1261.9562" y2="1126.0551">
				<stop  offset="0" style="stop-color:#DAE3FE"/>
				<stop  offset="1" style="stop-color:#E9EFFD"/>
			</linearGradient>
			<path style="fill:url(#SVGID_00000141418139687782091100000013963350505216460223_);" d="M619.544,733.169
				c0,0,46.434,42.903,113.437,109.932c16.757,16.749,34.79,35.016,53.723,54.477c18.898,19.491,38.774,40.102,59.041,61.704
				c20.345,21.53,41.077,44.05,62.023,67.049c10.392,11.574,20.865,23.24,31.381,34.953c10.369,11.84,20.914,23.611,31.222,35.595
				c10.301,11.986,20.712,23.877,30.802,35.966c10.171,12.019,20.277,24.015,30.109,36.081c4.937,6.013,9.859,12.003,14.754,17.962
				c4.82,6.021,9.615,12.013,14.383,17.968c9.605,11.854,18.813,23.792,27.904,35.508c36.289,46.919,68.509,92.037,94.491,131.847
				c6.648,9.85,12.607,19.567,18.345,28.763c2.869,4.597,5.663,9.078,8.379,13.433c2.667,4.388,5.129,8.73,7.585,12.894
				c4.837,8.375,9.543,16.105,13.57,23.45c3.984,7.37,7.644,14.139,10.948,20.254c1.646,3.061,3.204,5.958,4.671,8.684
				c1.369,2.781,2.654,5.388,3.848,7.814c2.387,4.851,4.417,8.978,6.063,12.323c3.295,6.693,5.051,10.263,5.051,10.263
				c1.623,3.3,0.263,7.293-3.038,8.917c-3.298,1.624-7.292,0.264-8.915-3.036l-0.023-0.044l-0.12-0.255
				c0,0-1.704-3.526-4.895-10.135c-1.597-3.306-3.565-7.382-5.877-12.174c-1.155-2.397-2.4-4.973-3.724-7.721
				c-1.428-2.701-2.944-5.572-4.547-8.605c-3.217-6.06-6.778-12.771-10.656-20.076c-3.919-7.285-8.525-14.974-13.245-23.296
				c-2.4-4.139-4.804-8.452-7.409-12.818c-2.661-4.336-5.396-8.797-8.206-13.376c-5.617-9.158-11.446-18.832-17.974-28.663
				c-25.481-39.7-57.18-84.816-92.965-131.817c-8.964-11.736-18.045-23.697-27.53-35.582c-4.703-5.97-9.439-11.978-14.198-18.014
				c-4.833-5.977-9.693-11.985-14.568-18.017c-9.709-12.102-19.694-24.14-29.745-36.203c-9.972-12.132-20.267-24.073-30.454-36.108
				c-10.187-12.032-20.621-23.858-30.88-35.751c-10.405-11.768-20.768-23.49-31.049-35.12
				c-20.732-23.113-41.259-45.752-61.405-67.401c-20.072-21.722-39.763-42.453-58.488-62.061
				c-18.758-19.576-36.627-37.957-53.238-54.813c-66.411-67.456-112.425-110.626-112.425-110.626
				c-1.138-1.066-1.194-2.852-0.13-3.989C616.629,732.176,618.405,732.12,619.544,733.169z"/>
		</g>
		<g>
			
				<linearGradient id="SVGID_00000034080804664315500480000011311427783323761312_" gradientUnits="userSpaceOnUse" x1="1656.3112" y1="959.4542" x2="1276.6154" y2="3670.6062">
				<stop  offset="0" style="stop-color:#4F52FF"/>
				<stop  offset="1" style="stop-color:#4042E2"/>
			</linearGradient>
			<path style="fill:url(#SVGID_00000034080804664315500480000011311427783323761312_);" d="M481.797,1094.941
				c3.609,400.803,29.575,1553.607,36.906,1943.913c1.069,56.916,35.297,102.491,77.466,103.149l1843.626,14.962
				c43.649,0.681,79.304-46.901,79.304-105.833V1104.961c0-58.108-34.701-105.35-77.74-105.837L560.846,987.861
				C516.924,987.364,481.263,1035.646,481.797,1094.941z"/>
			<path style="fill:#91B3FA;" d="M810.924,1364.371c2.221,250.635,18.2,1124.355,22.711,1368.426
				c0.658,35.591,21.721,64.092,47.67,64.503l1277.182,9.356c26.86,0.426,48.801-29.329,48.801-66.181V1370.637
				c0-36.337-21.354-65.879-47.839-66.183l-1299.88-7.043C832.54,1297.1,810.596,1327.292,810.924,1364.371z"/>
			<defs>
				<filter id="Adobe_OpacityMaskFilter" filterUnits="userSpaceOnUse" x="493.212" y="991.427" width="1202.22" height="1431.5">
					<feFlood  style="flood-color:white;flood-opacity:1" result="back"/>
					<feBlend  in="SourceGraphic" in2="back" mode="normal"/>
				</filter>
			</defs>
			
				<mask maskUnits="userSpaceOnUse" x="493.212" y="991.427" width="1202.22" height="1431.5" id="SVGID_00000159453570328559917100000015971062158086184104_">
				<g style="filter:url(#Adobe_OpacityMaskFilter);">
					<defs>
						
							<filter id="Adobe_OpacityMaskFilter_00000097459786220255951660000002827031961215528349_" filterUnits="userSpaceOnUse" x="493.212" y="991.427" width="1202.22" height="1431.5">
							<feFlood  style="flood-color:white;flood-opacity:1" result="back"/>
							<feBlend  in="SourceGraphic" in2="back" mode="normal"/>
						</filter>
					</defs>
					
						<mask maskUnits="userSpaceOnUse" x="493.212" y="991.427" width="1202.22" height="1431.5" id="SVGID_00000159453570328559917100000015971062158086184104_">
						<g style="filter:url(#Adobe_OpacityMaskFilter_00000097459786220255951660000002827031961215528349_);">
						</g>
					</mask>
					
						<linearGradient id="SVGID_00000102507894945824171250000005738351598187495871_" gradientUnits="userSpaceOnUse" x1="2249.6165" y1="-91.9759" x2="-611.805" y2="3581.3799">
						<stop  offset="0" style="stop-color:#FFFFFF"/>
						<stop  offset="1" style="stop-color:#000000"/>
					</linearGradient>
					
						<path style="mask:url(#SVGID_00000159453570328559917100000015971062158086184104_);fill:url(#SVGID_00000102507894945824171250000005738351598187495871_);" d="
						M1156.201,991.427l-662.989,796.188c4.058,208.611,8.647,431.126,12.893,635.312l1189.327-1428.27L1156.201,991.427z"/>
				</g>
			</mask>
			
				<linearGradient id="SVGID_00000130622725819214456590000016629205238864929172_" gradientUnits="userSpaceOnUse" x1="2249.6165" y1="-91.9759" x2="-611.805" y2="3581.3799">
				<stop  offset="0" style="stop-color:#FFFFFF"/>
				<stop  offset="1" style="stop-color:#FFFFFF"/>
			</linearGradient>
			<path style="opacity:0.53;fill:url(#SVGID_00000130622725819214456590000016629205238864929172_);" d="M1156.201,991.427
				l-662.989,796.188c4.058,208.611,8.647,431.126,12.893,635.312l1189.327-1428.27L1156.201,991.427z"/>
			<defs>
				
					<filter id="Adobe_OpacityMaskFilter_00000062911362050148601040000012470954151390825622_" filterUnits="userSpaceOnUse" x="1712.197" y="2182.046" width="806.903" height="971.813">
					<feFlood  style="flood-color:white;flood-opacity:1" result="back"/>
					<feBlend  in="SourceGraphic" in2="back" mode="normal"/>
				</filter>
			</defs>
			
				<mask maskUnits="userSpaceOnUse" x="1712.197" y="2182.046" width="806.903" height="971.813" id="SVGID_00000115484070301249656490000007303805786817295548_">
				<g style="filter:url(#Adobe_OpacityMaskFilter_00000062911362050148601040000012470954151390825622_);">
					<defs>
						
							<filter id="Adobe_OpacityMaskFilter_00000164515748277993574800000001156646767630780815_" filterUnits="userSpaceOnUse" x="1712.197" y="2182.046" width="806.903" height="971.813">
							<feFlood  style="flood-color:white;flood-opacity:1" result="back"/>
							<feBlend  in="SourceGraphic" in2="back" mode="normal"/>
						</filter>
					</defs>
					
						<mask maskUnits="userSpaceOnUse" x="1712.197" y="2182.046" width="806.903" height="971.813" id="SVGID_00000115484070301249656490000007303805786817295548_">
						<g style="filter:url(#Adobe_OpacityMaskFilter_00000164515748277993574800000001156646767630780815_);">
						</g>
					</mask>
					
						<linearGradient id="SVGID_00000137108366083259370300000010937591282216214156_" gradientUnits="userSpaceOnUse" x1="3604.6204" y1="963.5297" x2="743.1959" y2="4636.8892">
						<stop  offset="0" style="stop-color:#FFFFFF"/>
						<stop  offset="1" style="stop-color:#000000"/>
					</linearGradient>
					
						<polygon style="mask:url(#SVGID_00000115484070301249656490000007303805786817295548_);fill:url(#SVGID_00000137108366083259370300000010937591282216214156_);" points="
						2519.099,2182.046 1712.197,3151.06 2057.017,3153.859 2519.099,2598.942 					"/>
				</g>
			</mask>
			
				<linearGradient id="SVGID_00000059286226171413881170000006581555715473227163_" gradientUnits="userSpaceOnUse" x1="3604.6204" y1="963.5297" x2="743.1959" y2="4636.8892">
				<stop  offset="0" style="stop-color:#FFFFFF"/>
				<stop  offset="1" style="stop-color:#FFFFFF"/>
			</linearGradient>
			<polygon style="opacity:0.53;fill:url(#SVGID_00000059286226171413881170000006581555715473227163_);" points="
				2519.099,2182.046 1712.197,3151.06 2057.017,3153.859 2519.099,2598.942 			"/>
			<defs>
				
					<filter id="Adobe_OpacityMaskFilter_00000013172546491345469600000007030021261263973558_" filterUnits="userSpaceOnUse" x="522.112" y="997.949" width="1996.987" height="2148.04">
					<feFlood  style="flood-color:white;flood-opacity:1" result="back"/>
					<feBlend  in="SourceGraphic" in2="back" mode="normal"/>
				</filter>
			</defs>
			
				<mask maskUnits="userSpaceOnUse" x="522.112" y="997.949" width="1996.987" height="2148.04" id="SVGID_00000079468463938543210080000012651073562219140276_">
				<g style="filter:url(#Adobe_OpacityMaskFilter_00000013172546491345469600000007030021261263973558_);">
					<defs>
						
							<filter id="Adobe_OpacityMaskFilter_00000099646996084917926140000004283809914997729458_" filterUnits="userSpaceOnUse" x="522.112" y="997.949" width="1996.987" height="2148.04">
							<feFlood  style="flood-color:white;flood-opacity:1" result="back"/>
							<feBlend  in="SourceGraphic" in2="back" mode="normal"/>
						</filter>
					</defs>
					
						<mask maskUnits="userSpaceOnUse" x="522.112" y="997.949" width="1996.987" height="2148.04" id="SVGID_00000079468463938543210080000012651073562219140276_">
						<g style="filter:url(#Adobe_OpacityMaskFilter_00000099646996084917926140000004283809914997729458_);">
						</g>
					</mask>
					
						<linearGradient id="SVGID_00000151526903319665788470000003150315547755416231_" gradientUnits="userSpaceOnUse" x1="2929.7451" y1="437.8214" x2="68.316" y2="4111.187">
						<stop  offset="0" style="stop-color:#FFFFFF"/>
						<stop  offset="1" style="stop-color:#000000"/>
					</linearGradient>
					
						<path style="mask:url(#SVGID_00000079468463938543210080000012651073562219140276_);fill:url(#SVGID_00000151526903319665788470000003150315547755416231_);" d="
						M2519.099,1104.961c0-58.108-34.701-105.35-77.74-105.837l-196.23-1.175L522.112,3067.13
						c9.734,43.024,39.167,74.329,74.056,74.874l491.091,3.985l1431.839-1719.504V1104.961z"/>
				</g>
			</mask>
			
				<linearGradient id="SVGID_00000136370296389742026810000011741642582540791719_" gradientUnits="userSpaceOnUse" x1="2929.7451" y1="437.8214" x2="68.316" y2="4111.187">
				<stop  offset="0" style="stop-color:#FFFFFF"/>
				<stop  offset="1" style="stop-color:#FFFFFF"/>
			</linearGradient>
			<path style="opacity:0.53;fill:url(#SVGID_00000136370296389742026810000011741642582540791719_);" d="M2519.099,1104.961
				c0-58.108-34.701-105.35-77.74-105.837l-196.23-1.175L522.112,3067.13c9.734,43.024,39.167,74.329,74.056,74.874l491.091,3.985
				l1431.839-1719.504V1104.961z"/>
			<g>
				
					<ellipse transform="matrix(0.7071 -0.7071 0.7071 0.7071 -624.1413 820.3751)" style="fill:#91B3FA;" cx="678.21" cy="1163.593" rx="101.078" ry="101.078"/>
				
					<ellipse transform="matrix(0.9239 -0.3827 0.3827 0.9239 -389.002 347.1862)" style="opacity:0.51;fill:#FFFFFF;" cx="678.21" cy="1151.415" rx="68.197" ry="68.197"/>
				<g style="opacity:0.6;">
					<polygon style="fill:#FFFFFF;" points="639.816,1222.667 635.085,1123.119 541.395,1155.375 634.169,1116.711 574.98,1040.976 
						643.781,1109.845 694.158,1037.566 650.647,1114.88 734.229,1149.858 646.528,1122.662 					"/>
					
						<linearGradient id="SVGID_00000017514592081257980990000004382659888875947940_" gradientUnits="userSpaceOnUse" x1="-372.6846" y1="1078.5986" x2="-265.8139" y2="1078.5986" gradientTransform="matrix(0.9251 -0.3796 0.3796 0.9251 526.4892 6.3936)">
						<stop  offset="0" style="stop-color:#FEBBBA"/>
						<stop  offset="1" style="stop-color:#FF928E"/>
					</linearGradient>
					<polygon style="fill:url(#SVGID_00000017514592081257980990000004382659888875947940_);" points="661.086,1172.421 
						637.717,1122.378 596.469,1158.626 635.9,1119.286 589.62,1092.908 639.384,1113.743 650.006,1066.088 643.963,1114.88 
						694.174,1115.229 643.488,1119.736 					"/>
				</g>
			</g>
			<g>
				
					<linearGradient id="SVGID_00000131364388567605305400000014943139596899028122_" gradientUnits="userSpaceOnUse" x1="1160.424" y1="1077.7102" x2="932.8583" y2="1418.0238">
					<stop  offset="0" style="stop-color:#FDF53F"/>
					<stop  offset="1" style="stop-color:#D93C65"/>
				</linearGradient>
				
					<circle style="fill:url(#SVGID_00000131364388567605305400000014943139596899028122_);" cx="1102.995" cy="1163.593" r="101.078"/>
				
					<ellipse transform="matrix(0.7071 -0.7071 0.7071 0.7071 -491.1134 1117.1765)" style="opacity:0.51;fill:#FFFFFF;" cx="1102.995" cy="1151.415" rx="68.197" ry="68.197"/>
				<g style="opacity:0.6;">
					<polygon style="fill:#FFFFFF;" points="1064.601,1222.667 1059.87,1123.119 966.18,1155.375 1058.954,1116.711 
						999.765,1040.976 1068.566,1109.845 1118.943,1037.566 1075.432,1114.88 1159.014,1149.858 1071.313,1122.662 					"/>
					
						<linearGradient id="SVGID_00000033337505859562119810000002392699232769806469_" gradientUnits="userSpaceOnUse" x1="20.3208" y1="1239.8622" x2="127.1918" y2="1239.8622" gradientTransform="matrix(0.9251 -0.3796 0.3796 0.9251 526.4892 6.3936)">
						<stop  offset="0" style="stop-color:#FEBBBA"/>
						<stop  offset="1" style="stop-color:#FF928E"/>
					</linearGradient>
					<polygon style="fill:url(#SVGID_00000033337505859562119810000002392699232769806469_);" points="1085.871,1172.421 
						1062.502,1122.378 1021.253,1158.626 1060.685,1119.286 1014.405,1092.908 1064.169,1113.743 1074.791,1066.088 
						1068.748,1114.88 1118.959,1115.229 1068.273,1119.736 					"/>
				</g>
			</g>
			<g>
				
					<linearGradient id="SVGID_00000170237877551537204670000013390382191068902530_" gradientUnits="userSpaceOnUse" x1="1585.209" y1="1077.7101" x2="1357.6433" y2="1418.0238">
					<stop  offset="0" style="stop-color:#FDF53F"/>
					<stop  offset="1" style="stop-color:#D93C65"/>
				</linearGradient>
				
					<circle style="fill:url(#SVGID_00000170237877551537204670000013390382191068902530_);" cx="1527.78" cy="1163.593" r="101.078"/>
				
					<ellipse transform="matrix(0.2298 -0.9732 0.9732 0.2298 56.1541 2373.783)" style="opacity:0.51;fill:#FFFFFF;" cx="1527.78" cy="1151.415" rx="68.197" ry="68.198"/>
				<g style="opacity:0.6;">
					<polygon style="fill:#FFFFFF;" points="1489.386,1222.667 1484.655,1123.119 1390.965,1155.375 1483.739,1116.711 
						1424.55,1040.976 1493.351,1109.845 1543.728,1037.566 1500.217,1114.88 1583.799,1149.858 1496.098,1122.662 					"/>
					
						<linearGradient id="SVGID_00000121263472498296636270000002912542519624867226_" gradientUnits="userSpaceOnUse" x1="413.3265" y1="1401.1257" x2="520.1972" y2="1401.1257" gradientTransform="matrix(0.9251 -0.3796 0.3796 0.9251 526.4892 6.3936)">
						<stop  offset="0" style="stop-color:#FEBBBA"/>
						<stop  offset="1" style="stop-color:#FF928E"/>
					</linearGradient>
					<polygon style="fill:url(#SVGID_00000121263472498296636270000002912542519624867226_);" points="1510.656,1172.421 
						1487.287,1122.378 1446.039,1158.626 1485.47,1119.286 1439.191,1092.908 1488.954,1113.743 1499.575,1066.088 
						1493.533,1114.88 1543.744,1115.229 1493.058,1119.736 					"/>
				</g>
			</g>
			<g>
				
					<ellipse transform="matrix(0.7071 -0.7071 0.7071 0.7071 -250.8914 1721.4802)" style="fill:#91B3FA;" cx="1952.565" cy="1163.593" rx="101.078" ry="101.078"/>
				
					<ellipse transform="matrix(0.7071 -0.7071 0.7071 0.7071 -242.2801 1717.9135)" style="opacity:0.51;fill:#FFFFFF;" cx="1952.565" cy="1151.415" rx="68.197" ry="68.197"/>
				<g style="opacity:0.6;">
					<polygon style="fill:#FFFFFF;" points="1914.171,1222.667 1909.44,1123.119 1815.75,1155.375 1908.524,1116.711 
						1849.335,1040.976 1918.136,1109.845 1968.513,1037.566 1925.002,1114.88 2008.584,1149.858 1920.883,1122.662 					"/>
					
						<linearGradient id="SVGID_00000157294997556251547810000018415223558815963301_" gradientUnits="userSpaceOnUse" x1="806.3319" y1="1562.3893" x2="913.2026" y2="1562.3893" gradientTransform="matrix(0.9251 -0.3796 0.3796 0.9251 526.4892 6.3936)">
						<stop  offset="0" style="stop-color:#FEBBBA"/>
						<stop  offset="1" style="stop-color:#FF928E"/>
					</linearGradient>
					<polygon style="fill:url(#SVGID_00000157294997556251547810000018415223558815963301_);" points="1935.441,1172.421 
						1912.073,1122.378 1870.824,1158.626 1910.255,1119.286 1863.975,1092.908 1913.739,1113.743 1924.361,1066.088 
						1918.318,1114.88 1968.529,1115.229 1917.843,1119.736 					"/>
				</g>
			</g>
			<g>
				
					<ellipse transform="matrix(0.7071 -0.7071 0.7071 0.7071 -944.8804 953.2296)" style="fill:#91B3FA;" cx="678.21" cy="1617.186" rx="101.078" ry="101.078"/>
				
					<ellipse transform="matrix(0.9871 -0.1602 0.1602 0.9871 -248.3363 129.3618)" style="opacity:0.51;fill:#FFFFFF;" cx="678.21" cy="1605.008" rx="68.197" ry="68.197"/>
				<g style="opacity:0.6;">
					<polygon style="fill:#FFFFFF;" points="639.816,1676.261 635.085,1576.713 541.395,1608.968 634.169,1570.305 574.98,1494.569 
						643.781,1563.439 694.158,1491.16 650.647,1568.474 734.229,1603.451 646.528,1576.255 					"/>
					
						<linearGradient id="SVGID_00000138542461651779306230000008086528840665285540_" gradientUnits="userSpaceOnUse" x1="-544.8849" y1="1498.2574" x2="-438.0142" y2="1498.2574" gradientTransform="matrix(0.9251 -0.3796 0.3796 0.9251 526.4892 6.3936)">
						<stop  offset="0" style="stop-color:#FEBBBA"/>
						<stop  offset="1" style="stop-color:#FF928E"/>
					</linearGradient>
					<polygon style="fill:url(#SVGID_00000138542461651779306230000008086528840665285540_);" points="661.086,1626.015 
						637.717,1575.972 596.469,1612.22 635.9,1572.879 589.62,1546.502 639.384,1567.337 650.006,1519.681 643.963,1568.474 
						694.174,1568.823 643.488,1573.33 					"/>
				</g>
			</g>
			<g>
				
					<ellipse transform="matrix(0.7071 -0.7071 0.7071 0.7071 -1265.6196 1086.0841)" style="fill:#91B3FA;" cx="678.21" cy="2070.78" rx="101.078" ry="101.078"/>
				
					<ellipse transform="matrix(0.9239 -0.3827 0.3827 0.9239 -736.1677 416.2417)" style="opacity:0.51;fill:#FFFFFF;" cx="678.21" cy="2058.602" rx="68.197" ry="68.197"/>
				<g style="opacity:0.6;">
					<polygon style="fill:#FFFFFF;" points="639.816,2129.854 635.085,2030.306 541.395,2062.562 634.169,2023.899 574.98,1948.163 
						643.781,2017.033 694.158,1944.754 650.647,2022.067 734.229,2057.045 646.528,2029.849 					"/>
					
						<linearGradient id="SVGID_00000085246941082007897260000013610192070541545651_" gradientUnits="userSpaceOnUse" x1="-717.0852" y1="1917.9164" x2="-610.2145" y2="1917.9164" gradientTransform="matrix(0.9251 -0.3796 0.3796 0.9251 526.4892 6.3936)">
						<stop  offset="0" style="stop-color:#FEBBBA"/>
						<stop  offset="1" style="stop-color:#FF928E"/>
					</linearGradient>
					<polygon style="fill:url(#SVGID_00000085246941082007897260000013610192070541545651_);" points="661.086,2079.609 
						637.717,2029.566 596.469,2065.813 635.9,2026.473 589.62,2000.096 639.384,2020.931 650.006,1973.275 643.963,2022.067 
						694.174,2022.416 643.488,2026.924 					"/>
				</g>
			</g>
			<g>
				
					<ellipse transform="matrix(0.1602 -0.9871 0.9871 0.1602 -1922.2048 2789.4663)" style="fill:#91B3FA;" cx="678.21" cy="2524.374" rx="101.078" ry="101.078"/>
				
					<ellipse transform="matrix(0.1602 -0.9871 0.9871 0.1602 -1910.184 2779.2393)" style="opacity:0.51;fill:#FFFFFF;" cx="678.21" cy="2512.195" rx="68.198" ry="68.197"/>
				<g style="opacity:0.6;">
					<polygon style="fill:#FFFFFF;" points="639.816,2583.448 635.085,2483.9 541.395,2516.156 634.169,2477.492 574.98,2401.757 
						643.781,2470.626 694.158,2398.347 650.647,2475.661 734.229,2510.639 646.528,2483.442 					"/>
					
						<linearGradient id="SVGID_00000128465582380594214680000007222189510026896011_" gradientUnits="userSpaceOnUse" x1="-889.2856" y1="2337.5752" x2="-782.4148" y2="2337.5752" gradientTransform="matrix(0.9251 -0.3796 0.3796 0.9251 526.4892 6.3936)">
						<stop  offset="0" style="stop-color:#FEBBBA"/>
						<stop  offset="1" style="stop-color:#FF928E"/>
					</linearGradient>
					<polygon style="fill:url(#SVGID_00000128465582380594214680000007222189510026896011_);" points="661.086,2533.202 
						637.717,2483.159 596.469,2519.407 635.9,2480.066 589.62,2453.689 639.384,2474.524 650.006,2426.868 643.963,2475.661 
						694.174,2476.01 643.488,2480.517 					"/>
				</g>
			</g>
			<g>
				
					<ellipse transform="matrix(0.0416 -0.9991 0.9991 0.0416 1115.9626 3490.5313)" style="fill:#91B3FA;" cx="2377.35" cy="1163.593" rx="101.078" ry="101.078"/>
				
					<ellipse transform="matrix(0.331 -0.9436 0.9436 0.331 503.9228 3013.6228)" style="opacity:0.51;fill:#FFFFFF;" cx="2377.35" cy="1151.415" rx="68.197" ry="68.197"/>
				<g style="opacity:0.6;">
					<polygon style="fill:#FFFFFF;" points="2338.956,1222.667 2334.225,1123.119 2240.535,1155.375 2333.31,1116.711 
						2274.12,1040.976 2342.921,1109.845 2393.298,1037.566 2349.787,1114.88 2433.369,1149.858 2345.668,1122.662 					"/>
					
						<linearGradient id="SVGID_00000099642583304010584390000015336460396083783841_" gradientUnits="userSpaceOnUse" x1="1199.3373" y1="1723.6528" x2="1306.2084" y2="1723.6528" gradientTransform="matrix(0.9251 -0.3796 0.3796 0.9251 526.4892 6.3936)">
						<stop  offset="0" style="stop-color:#FEBBBA"/>
						<stop  offset="1" style="stop-color:#FF928E"/>
					</linearGradient>
					<polygon style="fill:url(#SVGID_00000099642583304010584390000015336460396083783841_);" points="2360.226,1172.421 
						2336.858,1122.378 2295.608,1158.626 2335.04,1119.286 2288.76,1092.908 2338.524,1113.743 2349.146,1066.088 
						2343.103,1114.88 2393.314,1115.229 2342.628,1119.736 					"/>
				</g>
			</g>
			<g>
				
					<ellipse transform="matrix(0.1602 -0.9871 0.9871 0.1602 -2369.9414 3170.4023)" style="fill:#91B3FA;" cx="678.21" cy="2977.967" rx="101.078" ry="101.078"/>
				
					<ellipse transform="matrix(0.1602 -0.9871 0.9871 0.1602 -2357.9207 3160.175)" style="opacity:0.51;fill:#FFFFFF;" cx="678.21" cy="2965.789" rx="68.197" ry="68.197"/>
				<g style="opacity:0.6;">
					<polygon style="fill:#FFFFFF;" points="639.816,3037.042 635.085,2937.494 541.395,2969.749 634.169,2931.085 574.98,2855.35 
						643.781,2924.22 694.158,2851.941 650.647,2929.255 734.229,2964.232 646.528,2937.036 					"/>
					
						<linearGradient id="SVGID_00000147915925109289006730000005422993977658816385_" gradientUnits="userSpaceOnUse" x1="-1061.4858" y1="2757.2341" x2="-954.6151" y2="2757.2341" gradientTransform="matrix(0.9251 -0.3796 0.3796 0.9251 526.4892 6.3936)">
						<stop  offset="0" style="stop-color:#FEBBBA"/>
						<stop  offset="1" style="stop-color:#FF928E"/>
					</linearGradient>
					<polygon style="fill:url(#SVGID_00000147915925109289006730000005422993977658816385_);" points="661.086,2986.796 
						637.717,2936.753 596.469,2973.001 635.9,2933.66 589.62,2907.283 639.384,2928.118 650.006,2880.462 643.963,2929.255 
						694.174,2929.604 643.488,2934.111 					"/>
				</g>
			</g>
			<g>
				
					<ellipse transform="matrix(0.2298 -0.9732 0.9732 0.2298 -2048.7251 3367.26)" style="fill:#91B3FA;" cx="1102.995" cy="2977.967" rx="101.078" ry="101.078"/>
				
					<ellipse transform="matrix(0.2669 -0.9637 0.9637 0.2669 -2049.6067 3237.0947)" style="opacity:0.51;fill:#FFFFFF;" cx="1102.995" cy="2965.789" rx="68.197" ry="68.197"/>
				<g style="opacity:0.6;">
					<polygon style="fill:#FFFFFF;" points="1064.601,3037.042 1059.87,2937.494 966.18,2969.749 1058.954,2931.085 
						999.765,2855.35 1068.566,2924.22 1118.943,2851.941 1075.432,2929.255 1159.014,2964.232 1071.313,2937.036 					"/>
					
						<linearGradient id="SVGID_00000155834843827650721480000004955163107663496593_" gradientUnits="userSpaceOnUse" x1="-668.4805" y1="2918.4976" x2="-561.6094" y2="2918.4976" gradientTransform="matrix(0.9251 -0.3796 0.3796 0.9251 526.4892 6.3936)">
						<stop  offset="0" style="stop-color:#FEBBBA"/>
						<stop  offset="1" style="stop-color:#FF928E"/>
					</linearGradient>
					<polygon style="fill:url(#SVGID_00000155834843827650721480000004955163107663496593_);" points="1085.871,2986.796 
						1062.502,2936.753 1021.253,2973.001 1060.685,2933.66 1014.405,2907.283 1064.169,2928.118 1074.791,2880.462 
						1068.748,2929.255 1118.959,2929.604 1068.273,2934.111 					"/>
				</g>
			</g>
			<g>
				
					<linearGradient id="SVGID_00000141452071938690407130000000575177585243914112_" gradientUnits="userSpaceOnUse" x1="1585.209" y1="2892.0845" x2="1357.6431" y2="3232.3984">
					<stop  offset="0" style="stop-color:#FDF53F"/>
					<stop  offset="1" style="stop-color:#D93C65"/>
				</linearGradient>
				
					<circle style="fill:url(#SVGID_00000141452071938690407130000000575177585243914112_);" cx="1527.78" cy="2977.967" r="101.078"/>
				
					<ellipse transform="matrix(0.9239 -0.3827 0.3827 0.9239 -1018.6653 810.416)" style="opacity:0.51;fill:#FFFFFF;" cx="1527.78" cy="2965.789" rx="68.198" ry="68.197"/>
				<g style="opacity:0.6;">
					<polygon style="fill:#FFFFFF;" points="1489.386,3037.042 1484.655,2937.494 1390.965,2969.749 1483.739,2931.085 
						1424.55,2855.35 1493.351,2924.22 1543.728,2851.941 1500.217,2929.255 1583.799,2964.232 1496.098,2937.036 					"/>
					
						<linearGradient id="SVGID_00000126282079249353666450000005354795476089089724_" gradientUnits="userSpaceOnUse" x1="-275.4747" y1="3079.7612" x2="-168.604" y2="3079.7612" gradientTransform="matrix(0.9251 -0.3796 0.3796 0.9251 526.4892 6.3936)">
						<stop  offset="0" style="stop-color:#FEBBBA"/>
						<stop  offset="1" style="stop-color:#FF928E"/>
					</linearGradient>
					<polygon style="fill:url(#SVGID_00000126282079249353666450000005354795476089089724_);" points="1510.656,2986.796 
						1487.287,2936.753 1446.039,2973.001 1485.47,2933.66 1439.191,2907.283 1488.954,2928.118 1499.575,2880.462 
						1493.533,2929.255 1543.744,2929.604 1493.058,2934.111 					"/>
				</g>
			</g>
			<g>
				
					<ellipse transform="matrix(0.1452 -0.9894 0.9894 0.1452 -1277.3751 4477.396)" style="fill:#91B3FA;" cx="1952.565" cy="2977.967" rx="101.078" ry="101.078"/>
				
					<ellipse transform="matrix(0.2298 -0.9732 0.9732 0.2298 -1382.4933 4184.7236)" style="opacity:0.51;fill:#FFFFFF;" cx="1952.565" cy="2965.789" rx="68.197" ry="68.197"/>
				<g style="opacity:0.6;">
					<polygon style="fill:#FFFFFF;" points="1914.171,3037.042 1909.44,2937.494 1815.75,2969.749 1908.524,2931.085 
						1849.335,2855.35 1918.136,2924.22 1968.513,2851.941 1925.002,2929.255 2008.584,2964.232 1920.883,2937.036 					"/>
					
						<linearGradient id="SVGID_00000008863779470296978140000006680990583152770688_" gradientUnits="userSpaceOnUse" x1="117.5307" y1="3241.0247" x2="224.4013" y2="3241.0247" gradientTransform="matrix(0.9251 -0.3796 0.3796 0.9251 526.4892 6.3936)">
						<stop  offset="0" style="stop-color:#FEBBBA"/>
						<stop  offset="1" style="stop-color:#FF928E"/>
					</linearGradient>
					<polygon style="fill:url(#SVGID_00000008863779470296978140000006680990583152770688_);" points="1935.441,2986.796 
						1912.073,2936.753 1870.824,2973.001 1910.255,2933.66 1863.975,2907.283 1913.739,2928.118 1924.361,2880.462 
						1918.318,2929.255 1968.529,2929.604 1917.843,2934.111 					"/>
				</g>
			</g>
			<g>
				
					<ellipse transform="matrix(0.7071 -0.7071 0.7071 0.7071 -1409.4312 2553.2666)" style="fill:#91B3FA;" cx="2377.35" cy="2977.967" rx="101.078" ry="101.078"/>
				
					<ellipse transform="matrix(0.7071 -0.7071 0.7071 0.7071 -1400.8199 2549.6997)" style="opacity:0.51;fill:#FFFFFF;" cx="2377.35" cy="2965.789" rx="68.197" ry="68.197"/>
				<g style="opacity:0.6;">
					<polygon style="fill:#FFFFFF;" points="2338.956,3037.042 2334.225,2937.494 2240.535,2969.749 2333.31,2931.085 
						2274.12,2855.35 2342.921,2924.22 2393.298,2851.941 2349.787,2929.255 2433.369,2964.232 2345.668,2937.036 					"/>
					
						<linearGradient id="SVGID_00000170258102401106602640000016112112000703468983_" gradientUnits="userSpaceOnUse" x1="510.5361" y1="3402.2883" x2="617.4071" y2="3402.2883" gradientTransform="matrix(0.9251 -0.3796 0.3796 0.9251 526.4892 6.3936)">
						<stop  offset="0" style="stop-color:#FEBBBA"/>
						<stop  offset="1" style="stop-color:#FF928E"/>
					</linearGradient>
					<polygon style="fill:url(#SVGID_00000170258102401106602640000016112112000703468983_);" points="2360.226,2986.796 
						2336.858,2936.753 2295.608,2973.001 2335.04,2933.66 2288.76,2907.283 2338.524,2928.118 2349.146,2880.462 
						2343.103,2929.255 2393.314,2929.604 2342.628,2934.111 					"/>
				</g>
			</g>
			<g>
				
					<ellipse transform="matrix(0.2298 -0.9732 0.9732 0.2298 257.2213 3559.3857)" style="fill:#91B3FA;" cx="2377.35" cy="1617.186" rx="101.078" ry="101.078"/>
				
					<ellipse transform="matrix(0.2898 -0.9571 0.9571 0.2898 152.2902 3415.2439)" style="opacity:0.51;fill:#FFFFFF;" cx="2377.35" cy="1605.008" rx="68.197" ry="68.197"/>
				<g style="opacity:0.6;">
					<polygon style="fill:#FFFFFF;" points="2338.956,1676.261 2334.225,1576.713 2240.535,1608.968 2333.31,1570.305 
						2274.12,1494.569 2342.921,1563.439 2393.298,1491.16 2349.787,1568.474 2433.369,1603.451 2345.668,1576.255 					"/>
					
						<linearGradient id="SVGID_00000021104022903670144620000014372222485482358975_" gradientUnits="userSpaceOnUse" x1="1027.137" y1="2143.3115" x2="1134.0079" y2="2143.3115" gradientTransform="matrix(0.9251 -0.3796 0.3796 0.9251 526.4892 6.3936)">
						<stop  offset="0" style="stop-color:#FEBBBA"/>
						<stop  offset="1" style="stop-color:#FF928E"/>
					</linearGradient>
					<polygon style="fill:url(#SVGID_00000021104022903670144620000014372222485482358975_);" points="2360.226,1626.015 
						2336.858,1575.972 2295.608,1612.22 2335.04,1572.879 2288.76,1546.502 2338.524,1567.337 2349.146,1519.681 
						2343.103,1568.474 2393.314,1568.823 2342.628,1573.33 					"/>
				</g>
			</g>
			<g>
				
					<linearGradient id="SVGID_00000124847850073380557500000016474269414756950423_" gradientUnits="userSpaceOnUse" x1="2434.7791" y1="1984.8973" x2="2207.2134" y2="2325.2112">
					<stop  offset="0" style="stop-color:#FDF53F"/>
					<stop  offset="1" style="stop-color:#D93C65"/>
				</linearGradient>
				
					<circle style="fill:url(#SVGID_00000124847850073380557500000016474269414756950423_);" cx="2377.35" cy="2070.78" r="101.078"/>
				
					<ellipse transform="matrix(0.2298 -0.9732 0.9732 0.2298 -172.3862 3899.3845)" style="opacity:0.51;fill:#FFFFFF;" cx="2377.35" cy="2058.602" rx="68.197" ry="68.197"/>
				<g style="opacity:0.6;">
					<polygon style="fill:#FFFFFF;" points="2338.956,2129.854 2334.225,2030.306 2240.535,2062.562 2333.31,2023.899 
						2274.12,1948.163 2342.921,2017.033 2393.298,1944.754 2349.787,2022.067 2433.369,2057.045 2345.668,2029.849 					"/>
					
						<linearGradient id="SVGID_00000087381260139908801340000008302499859408373385_" gradientUnits="userSpaceOnUse" x1="854.9367" y1="2562.9705" x2="961.8077" y2="2562.9705" gradientTransform="matrix(0.9251 -0.3796 0.3796 0.9251 526.4892 6.3936)">
						<stop  offset="0" style="stop-color:#FEBBBA"/>
						<stop  offset="1" style="stop-color:#FF928E"/>
					</linearGradient>
					<polygon style="fill:url(#SVGID_00000087381260139908801340000008302499859408373385_);" points="2360.226,2079.609 
						2336.858,2029.566 2295.608,2065.813 2335.04,2026.473 2288.76,2000.096 2338.524,2020.931 2349.146,1973.275 
						2343.103,2022.067 2393.314,2022.416 2342.628,2026.924 					"/>
				</g>
			</g>
			<g>
				
					<linearGradient id="SVGID_00000056420623481531718660000008878720732977620115_" gradientUnits="userSpaceOnUse" x1="2434.7791" y1="2438.491" x2="2207.2134" y2="2778.8047">
					<stop  offset="0" style="stop-color:#FDF53F"/>
					<stop  offset="1" style="stop-color:#D93C65"/>
				</linearGradient>
				
					<circle style="fill:url(#SVGID_00000056420623481531718660000008878720732977620115_);" cx="2377.35" cy="2524.374" r="101.078"/>
				
					<ellipse transform="matrix(0.4472 -0.8944 0.8944 0.4472 -932.8098 3515.0718)" style="opacity:0.51;fill:#FFFFFF;" cx="2377.35" cy="2512.195" rx="68.198" ry="68.197"/>
				<g style="opacity:0.6;">
					<polygon style="fill:#FFFFFF;" points="2338.956,2583.448 2334.225,2483.9 2240.535,2516.156 2333.31,2477.492 
						2274.12,2401.757 2342.921,2470.626 2393.298,2398.347 2349.787,2475.661 2433.369,2510.639 2345.668,2483.442 					"/>
					
						<linearGradient id="SVGID_00000011730651978299849120000012069456280422236589_" gradientUnits="userSpaceOnUse" x1="682.7364" y1="2982.6294" x2="789.6074" y2="2982.6294" gradientTransform="matrix(0.9251 -0.3796 0.3796 0.9251 526.4892 6.3936)">
						<stop  offset="0" style="stop-color:#FEBBBA"/>
						<stop  offset="1" style="stop-color:#FF928E"/>
					</linearGradient>
					<polygon style="fill:url(#SVGID_00000011730651978299849120000012069456280422236589_);" points="2360.226,2533.202 
						2336.858,2483.159 2295.608,2519.407 2335.04,2480.066 2288.76,2453.689 2338.524,2474.524 2349.146,2426.868 
						2343.103,2475.661 2393.314,2476.01 2342.628,2480.517 					"/>
				</g>
			</g>
		</g>
		<g>
			
				<linearGradient id="SVGID_00000182504132041550872310000011114385051816304030_" gradientUnits="userSpaceOnUse" x1="2539.7012" y1="2702.8235" x2="2954.3455" y2="869.3936">
				<stop  offset="0" style="stop-color:#E1473D"/>
				<stop  offset="1" style="stop-color:#E9605A"/>
			</linearGradient>
			<path style="fill:url(#SVGID_00000182504132041550872310000011114385051816304030_);" d="M2716.166,3107.752
				c3.23-8.025,3.907-16.882,1.697-25.439l-21.995-870.176l-311.225-11.315c20.119,212.558,70.7,439.847,22.828,650.161
				c8.557-3.591,16.248-9.228,22.248-16.308c3.506,37.209-4.677,75.436-23.11,107.948c11.329-4.718,21.717-11.684,30.383-20.375
				c3.649,29.715-3.487,60.637-19.787,85.748c12.137-5.836,24.274-11.672,36.41-17.508c-1.343,0.646-6.4,67.663-8.574,75.422
				c-6.283,22.42-25.504,43.656,0.868,59.221c48.697,28.742,157.437,36.755,241.601,8.686c5.231-1.745,9.869-4.205,13.892-7.183
				C2708.212,3122.183,2713.464,3115.559,2716.166,3107.752z"/>
			
				<linearGradient id="SVGID_00000150792987898369463480000008499773620657043121_" gradientUnits="userSpaceOnUse" x1="1280.0371" y1="2417.9404" x2="1694.6805" y2="584.5137">
				<stop  offset="0" style="stop-color:#E1473D"/>
				<stop  offset="1" style="stop-color:#E9605A"/>
			</linearGradient>
			<path style="fill:url(#SVGID_00000150792987898369463480000008499773620657043121_);" d="M1117.502,3156.215
				c46.108,28.742,149.065,36.755,228.755,8.686c28.501-10.039,4.649-968.441,4.649-968.441
				c-40.266-1.546-80.532-3.092-120.798-4.638c-67.349-2.586-130.294-6.059-152.9,75.081c-8.439,30.295-5.253,62.436-2.577,93.77
				c8.708,101.983,11.283,204.49,7.704,306.781c-0.568,16.238-7.594,50.33-20.565,61.946c8.406-7.527,16.812-15.054,25.218-22.582
				c-0.767,44.067-4.405,88.079-10.878,131.62c8.255-8.579,16.511-17.159,24.766-25.739c0.533,37.684-3.271,75.434-11.302,112.154
				c7.927-5.744,15.853-11.489,23.78-17.234c-4.282,3.104,4.104,141.288,6.465,153.354c7.029-1.194,24.464,1.95,19.911,13.956
				c-1.202,3.17-4.109,5.184-6.85,6.994C1108.5,3098.026,1079.028,3132.233,1117.502,3156.215z"/>
			
				<linearGradient id="SVGID_00000155849220215354555950000014341957548007321773_" gradientUnits="userSpaceOnUse" x1="1572.6886" y1="2484.1257" x2="1987.332" y2="650.699">
				<stop  offset="0" style="stop-color:#E1473D"/>
				<stop  offset="1" style="stop-color:#E9605A"/>
			</linearGradient>
			<path style="fill:url(#SVGID_00000155849220215354555950000014341957548007321773_);" d="M1693.785,3117.155l-22.308-882.584
				l-311.225-11.315l82.602,872.683c-11.432,12.462-21.973,27.158-31.379,44.011c-9.766,17.497-3.666,39.105,14.454,49.8
				c48.697,28.742,157.437,36.755,241.601,8.686C1697.202,3188.539,1693.922,3122.565,1693.785,3117.155z"/>
			
				<linearGradient id="SVGID_00000060732140055354640020000010229630367622919045_" gradientUnits="userSpaceOnUse" x1="2835.2795" y1="2769.6704" x2="3249.9236" y2="936.2411">
				<stop  offset="0" style="stop-color:#E1473D"/>
				<stop  offset="1" style="stop-color:#E9605A"/>
			</linearGradient>
			<path style="fill:url(#SVGID_00000060732140055354640020000010229630367622919045_);" d="M3057.279,3103.199
				c0.602-4.81,1.473-9.69,2.972-14.584c3.018,3.681,6.036,7.363,9.054,11.044c-1.153-29.593-2.306-59.186-3.459-88.779
				c8.98,3.677,17.115,9.401,23.607,16.613c-14.974-41.721-29.948-83.442-44.921-125.162
				c-49.007-136.545-47.887-290.573-64.542-434.456c-9.224-79.682-18.448-159.363-27.671-239.045l-310.982,16.695l158.561,850.367
				c-11.638,17.265-21.149,37.831-28.113,61.38c-5.682,19.215,5.016,38.955,25.043,45.406
				c53.822,17.339,161.665,1.262,237.604-44.614C3057.225,3144.295,3054.624,3124.423,3057.279,3103.199z"/>
			
				<linearGradient id="SVGID_00000066483125786946922030000006815693495026850437_" gradientUnits="userSpaceOnUse" x1="2602.5933" y1="723.962" x2="2008.1019" y2="2442.4868">
				<stop  offset="0" style="stop-color:#FF928E"/>
				<stop  offset="1" style="stop-color:#FE7062"/>
			</linearGradient>
			<path style="fill:url(#SVGID_00000066483125786946922030000006815693495026850437_);" d="M1419.367,2720.662
				c-0.372-0.573-0.748-1.143-1.128-1.709c-15.775-23.482-62.775-70.129-63.118-99.174c0.383,33.344-15.331,64.031-39.482,86.313
				c-14.817,13.67-45.522,35.21-39.077,60.71c-4.564-18.055-9.128-36.11-13.691-54.165c-10.957,15.571-21.914,31.141-32.871,46.712
				c1.493-16.226-1.892-32.869-9.604-47.222c-9.431,14.058-18.861,28.115-28.292,42.173c1.511-20.628,0.631-41.43-2.617-61.857
				c-15.531,8.618-30.145,18.889-43.515,30.583c5.037-20.566,2.797-42.838-6.236-61.989c-6.622,13.198-18.504,23.665-32.433,28.569
				c2.464-25.459-3.05-51.632-15.575-73.933c-7.715,7.841-15.43,15.682-23.146,23.524c23.436-113.674,13.908-225.758-11.61-337.909
				c-5.293-23.262-1.259-55.496-1.259-79.862c0-0.07,0-619.822,0-619.849c0,0,412.141,0,436.727,0
				c82.395,0,163.335-11.34,244.875-6.401c96.1,5.821,192.289,10.16,288.523,13.027c178.162,5.307,368.255,20.575,545.648,0.458
				c107.012-12.135,265.281-69.014,279.785-194.133c1.169-10.088,0.723-21.752-6.966-28.386
				c21.71,10.582,35.262,35.827,32.083,59.768c12.255,4.051,26.048-0.652,36.034-8.831c40.615-33.266,56.966-93.997,59.847-144.192
				c5.151-89.746-21.111-147.981-82.844-212.506c46.113,1.406,94.627,10.993,128.838,41.945
				c48.877,44.221,86.483,87.423,111.19,149.556c33.457,84.138,28.122,182.825-14.21,262.866
				c43.364,4.452,87.301-28.63,95.009-71.535c10.216,33.066-0.353,69.749-19.753,98.408s-46.784,50.802-73.749,72.496
				c-22.557,18.148-45.113,36.295-67.67,54.443c44.05,3.622,89.165-7.094,126.881-30.139
				c-33.265,43.37-77.252,78.452-126.945,101.242c-42.592,19.531-64.691,27.165-63.726,78.82
				c0.853,45.617,24.812,96.447,35.811,140.832c13.458,54.308,25.39,108.995,35.779,163.974
				c21.273,112.574,36.078,226.371,44.281,340.645c-13.236-18.882-26.472-37.763-39.708-56.645
				c17.246,81.46,27.445,164.411,30.466,247.621c0.599,16.501,0.916,33.012,0.949,49.524c-3.435-14.567-14.508-27.104-28.54-32.311
				c19.011,78.498,24.943,160.147,17.478,240.569c-16.364-10.856-48.049-42.304-67.637-44.274
				c-15.043-1.513-41.841,23.861-22.869,39.275c-19.535-21.026-39.222-41.912-59.06-62.653c-5.96,23.03-9.377,48.013-15.682,69.716
				c-4.502-8.338-29.426-36.122-29.132-43.748c-0.475,12.319-3.248,24.546-8.135,35.865c-9.867-18.189-19.735-36.379-29.603-54.568
				c0.219,14.093-3.081,28.227-9.518,40.765c-10.424-15.238-22.612-29.268-36.241-41.721c-24.696-22.564-35.833,5.643-38.38,27.302
				c-28.675-63.748-6.603-139.821-61.721-193.007c-74.376-71.767-226.961-40.451-321.743-40.43
				c-124.081,0.027-248.156,1.524-372.237,1.522c-78.769-0.001-171.885-13.935-249.218-0.006
				c-56.199,10.123-74.203,64.799-73.271,117.944c0.795,45.315,8.651,90.499,23.197,133.423
				c-40.189-17.506-71.666-53.892-83.206-96.182c-6.341,22.179-8.55,45.532-6.48,68.506c-11.618-19.979-20.764-41.395-27.164-63.604
				c-10.44,24.101-15.71,50.426-15.35,76.688c-12.693-28.35-25.385-56.699-38.078-85.049
				c-10.457,23.469-19.318,47.648-26.503,72.316c-9.403-30.926-22.369-60.766-38.56-88.743
				c-5.769,12.711-11.539,25.422-17.308,38.132C1448.674,2801.098,1441.532,2754.827,1419.367,2720.662z"/>
			<g>
				
					<linearGradient id="SVGID_00000127003743858011075610000001498602711041651074_" gradientUnits="userSpaceOnUse" x1="1369.4401" y1="2534.7429" x2="1318.0311" y2="289.9093">
					<stop  offset="0" style="stop-color:#E1473D"/>
					<stop  offset="1" style="stop-color:#E9605A"/>
				</linearGradient>
				<path style="fill:url(#SVGID_00000127003743858011075610000001498602711041651074_);" d="M1904.726,1669.064
					c7.062,12.373,12.656,25.583,16.606,39.271c2.98-61.071-3.712-122.604-19.751-181.606
					c13.113,12.056,26.226,24.112,39.338,36.166c-30.716-63.421-52.629-126.947-70.301-195.186
					c-5.136-19.833-60.17-157.845-38.711-165.52c41.943-15.002,91.574-6.011,125.589,22.751
					c-21.712-26.362-64.592-39.539-101.627-40.852c25.593-4.668,51.975-4.973,77.669-0.899
					c-26.245-15.79-57.493-23.118-88.022-20.642c23.221-3.236,46.928-2.961,70.069,0.811c-20.739-4.409-41.317-9.578-61.677-15.494
					c-6.496-1.887-13.155-3.947-18.394-8.227c-25.474-20.814-3.06-125.903-3.233-157.723c-0.268-49.093-3.338-98.889-16.161-146.485
					c-5.674-21.061-30.923-29.586-48.127-16.178c-20.551,16.016-63.527,40.048-75.621,62.635c-1.205-15.63,0.931-31.51,6.222-46.267
					c-16.385,27.463-32.771,54.927-49.157,82.39c-3.527,5.912-45.179,89.045-42.157,91.846l0.074,0.068
					c-27.476-13.281-56.114-24.133-85.484-32.473c-31.762-9.013-86.418-25.894-88.905-65.709
					c-2.301-36.817,43.631-75.37,71.329-92.708c26.726-16.729,61.964-48.064,94.922-49.66
					c-56.181,2.721-105.489,10.766-150.759,47.08c10.564-42.108,35.636-80.432,69.987-106.978
					c-35.596,13.719-66.488,39.334-86.561,71.773c0.95-33.1,7.882-66.019,20.362-96.69c-0.872,2.144-39.518,44.012-42.188,45.575
					c-27.355,16.015-15.642-18.493-12.474-36.487c4.094-23.249,10.477-49.496,31.221-60.764
					c-57.332,30.115-76.533,94.48-61.279,153.448c-27.24-31.924-50.814-67.355-85.336-92.349
					c-28.84-20.879-67.197-23.251-98.501-40.076c35.051,18.838,69.049,41.954,95.282,72.203c7.502,8.65,64.092,92.28,29.687,92.52
					c-7.937,0.048-14.398-5.955-20.474-11.063c-25.496-21.432-57.951-32.36-89.57-42.831c40.767,22.75,75.982,55.367,101.786,94.273
					c9.717,14.651,18.344,30.994,18.559,48.573c0.717,58.711-51.896,61.351-96.639,71.787c-6.008,1.401-82.053,22.339-79.675,28.248
					c-30.001-72.694-91.8-135.389-159.777-188.365c-17.204-13.407-42.45-4.883-48.127,16.174
					c-5.477,20.318-4.489,42.918-7.457,63.714c-1.145,8.023-1.492,23.385-7.009,29.932c-9.637,11.437-18.772-16.312-20.404-25.303
					c-2.172-11.965-1.14-24.301,0.988-36.274c-7.182,10.898-9.009,24.634-7.646,37.615c1.363,12.981,5.669,25.446,9.944,37.778
					c2.807,8.097,6.234,15.534,9.906,23.234c0.818,1.714,6.299,19.246,5.032,18.596c-17.234-8.841-28.684-25.726-43.621-38.058
					c-9.93-8.199-21.362-14.342-32.711-20.43c-18.809-10.09-37.617-20.18-56.426-30.27c36.284,21.657,69.167,49.017,96.945,80.862
					c21.14,24.234,48.91,68.287,39.849,102.81c-7.62,29.031-39.7,27.047-62.977,39.696c-18.609,10.131-36.28,21.989-52.736,35.334
					c-34.17,27.709-63.145,61.896-84.331,100.483c41.896-61.518,113.133-95.624,182.797-121.828
					c-49.756,22.869-92.412,60.917-120.797,107.745c32.466-30.458,72.931-52.313,116.204-62.763
					c-57.758,27.724-102.379,78.607-130.615,136.117c37.052-35.263,79.811-64.516,126.103-86.272
					c-27.643,22.579-51.281,50.048-69.485,80.749c10.165-17.143,44.438-32.443,62.099-42.272c1.579-0.879,0.812,7.085-0.838,17.757
					c-5.82,16.089-9.881,31.782-11.791,44.874c-14.657,100.432-16.704,202.698-6.078,303.637c6.85-3.151,13.701-6.302,20.551-9.453
					c-0.431,59.892,2.307,119.806,8.198,179.409c11.678-13.242,23.355-26.484,35.033-39.726
					c35.061,146.717-2.902,300.734,8.512,451.149c8.511-6.443,17.022-12.885,25.534-19.328
					c4.851,50.597,15.141,100.672,30.636,149.082c5.786-10.598,11.571-21.196,17.356-31.794
					c6.704,10.511,13.408,21.022,20.112,31.533c6.663-3.877,11.613-10.586,13.352-18.096c8.306-4.267,15.379,9.434,24.681,10.259
					c10.164,0.902,14.352-12.637,14.831-22.83c7.964-169.192-16.739-339.83,20.85-506.858c0.077-0.34,90.615,42.683,97.063,46.469
					c39.711,23.313,82.807,41.187,128.037,50.323c58.702,11.857,135.971,14.274,184.365-25.221
					c42.812-34.939,90.53-55.656,137.315-84.906c23.53,61.736,39.389,126.399,46.848,192.047
					c11.445,100.727,3.517,203.745,25.484,302.712c4.179,18.828,10.239,38.703,25.299,50.752c4.093-27.687,6.463-55.629,7.093-83.61
					c5.419-2.594,11.525,2.372,14.37,7.663c2.846,5.291,4.59,11.65,9.578,14.997c4.988,3.347,14.16-0.503,12.188-6.178
					c4.493,4.12,8.986,8.239,13.465,12.346c-22.587-20.745-6.565-70.802-4.917-96.942c4.814-76.365-1.869-151.024,7.575-226.605
					c9.253-74.05,35.116-168.363,8.149-241.022c26.093,39.311,40.853,86.053,42.068,133.22
					c8.889-64.908,31.757-134.453,30.714-199.78C1897.893,1657.818,1901.466,1663.351,1904.726,1669.064z"/>
			</g>
			
				<linearGradient id="SVGID_00000067946110994424905930000004341028426418582926_" gradientUnits="userSpaceOnUse" x1="1842.9427" y1="978.3688" x2="2382.731" y2="460.0013">
				<stop  offset="0" style="stop-color:#FF928E"/>
				<stop  offset="1" style="stop-color:#FE7062"/>
			</linearGradient>
			<path style="fill:url(#SVGID_00000067946110994424905930000004341028426418582926_);" d="M1779.533,927.252
				c-27.42,34.803-48.09,74.904-60.529,117.429c29.828-41.161,73.172-72.355,121.675-87.568
				c-37.416,26.923-75.827,54.896-99.926,94.191c51.389-38.427,112.375-63.916,175.825-73.484
				c-60.237,19.135-115.65,53.258-159.851,98.434c42.825-25.252,90.36-42.484,139.418-50.544
				c-52.336,18.217-101.908,44.352-146.509,77.241c31.446-20.486,70.653-23.91,108.072-26.753
				c-19.321,1.468-43.534,5.276-61.835,11.2c-21.73,7.034-39.366,23.741-63.094,27.214c-18.728,2.741-40.188-4.046-49.013-20.789
				C1650.811,1031.303,1748.343,966.834,1779.533,927.252z"/>
			
				<linearGradient id="SVGID_00000123411461441684745980000016135231667053642930_" gradientUnits="userSpaceOnUse" x1="982.7141" y1="714.1321" x2="909.886" y2="-326.8873">
				<stop  offset="0" style="stop-color:#FF928E"/>
				<stop  offset="1" style="stop-color:#FE7062"/>
			</linearGradient>
			<path style="fill:url(#SVGID_00000123411461441684745980000016135231667053642930_);" d="M928.917,972.326
				c33.615,18.105,65.301,39.787,94.352,64.562c-10.142-35.933-20.284-71.865-30.426-107.798
				c22.017,34.137,44.944,67.687,68.75,100.602c-0.124-25.943-2.421-51.876-6.861-77.437c4.817,27.733,49.748,138.717,1.545,131.474
				C1009.971,1076.769,960.12,1001.866,928.917,972.326z"/>
			
				<linearGradient id="SVGID_00000160155545256059926620000014014364922539003820_" gradientUnits="userSpaceOnUse" x1="1711.9108" y1="-395.3619" x2="1052.4758" y2="1577.942">
				<stop  offset="0" style="stop-color:#FF928E"/>
				<stop  offset="1" style="stop-color:#FE7062"/>
			</linearGradient>
			<path style="fill:url(#SVGID_00000160155545256059926620000014014364922539003820_);" d="M909.823,1482.041
				c24.116-27.435,55.936-48.023,90.844-58.778c-39.001,39.774-68.714,88.597-86.123,141.512
				c23.61-19.117,48.022-37.242,73.151-54.313c-23.977,50.073-42.599,102.708-55.448,156.718
				c12.955-31.637,34.174-59.848,60.977-81.07c-22.672,57.823-45.76,118.593-38.496,180.276
				c10.981-28.089,25.318-54.865,42.608-79.577c-10.646,39.708-10.424,82.272,0.633,121.867
				c16.831-66.904,33.872-134.389,64.389-196.262c30.516-61.872,75.97-118.527,137.247-150.222
				c24.286-12.562,51.259-21.437,70.961-40.395c62.788-60.413,8.203-159.417-71.766-155.451
				c-84.901,4.211-166.082,33.267-225.808,95.708C941.248,1395.243,917.85,1436.533,909.823,1482.041z"/>
			
				<linearGradient id="SVGID_00000093150752845422070960000005956877656745248434_" gradientUnits="userSpaceOnUse" x1="2216.5381" y1="-226.7269" x2="1557.1023" y2="1746.5795">
				<stop  offset="0" style="stop-color:#FF928E"/>
				<stop  offset="1" style="stop-color:#FE7062"/>
			</linearGradient>
			<path style="fill:url(#SVGID_00000093150752845422070960000005956877656745248434_);" d="M1479.755,1409.617
				c9.752,13.335,20.472,26.362,34.332,35.352c23.641,15.334,53.252,17.125,80.243,25.219
				c84.332,25.29,137.001,110.692,159.943,195.693c2.52-29.927-5.07-60.617-21.25-85.92c20.259,17.885,41.484,34.675,63.551,50.273
				c-2.167-20.32-10.139-39.988-22.732-56.081c23.88,11.953,46.986,25.452,69.125,40.384
				c-18.486-42.194-39.842-83.13-63.872-122.432c33.141,8.359,65.239,20.841,95.32,37.067
				c-28.877-36.898-55.397-75.64-79.345-115.913c33.946,11.293,66.753,26.007,97.763,43.847
				c-44.899-70.49-105.047-133.78-181.281-168.032C1622.722,1249.165,1365.775,1253.753,1479.755,1409.617z"/>
			
				<linearGradient id="SVGID_00000162343691547169517990000016862334734252942251_" gradientUnits="userSpaceOnUse" x1="1354.693" y1="987.7028" x2="1189.9612" y2="1280.8699">
				<stop  offset="0" style="stop-color:#09005D"/>
				<stop  offset="1" style="stop-color:#1A0F91"/>
			</linearGradient>
			
				<circle style="fill:url(#SVGID_00000162343691547169517990000016862334734252942251_);" cx="1158.476" cy="1336.902" r="31.411"/>
			
				<linearGradient id="SVGID_00000132785238775666515190000012109241223261359763_" gradientUnits="userSpaceOnUse" x1="1800.8063" y1="987.7028" x2="1636.0746" y2="1280.8699">
				<stop  offset="0" style="stop-color:#09005D"/>
				<stop  offset="1" style="stop-color:#1A0F91"/>
			</linearGradient>
			<circle style="fill:url(#SVGID_00000132785238775666515190000012109241223261359763_);" cx="1604.59" cy="1336.902" r="31.411"/>
			<g>
				
					<linearGradient id="SVGID_00000152956864490764806040000015852428603823252897_" gradientUnits="userSpaceOnUse" x1="1349.7426" y1="1106.5853" x2="1315.4713" y2="-1129.6852">
					<stop  offset="0" style="stop-color:#FF928E"/>
					<stop  offset="1" style="stop-color:#FE7062"/>
				</linearGradient>
				<path style="fill:url(#SVGID_00000152956864490764806040000015852428603823252897_);" d="M1729.895,2157.557
					c7.982,16.957,12.901,35.163,17.778,53.259c-0.63-34.112-1.259-68.224-1.889-102.336
					c-2.573-139.414-5.241-279.736-32.881-416.407c-4.877-24.115-10.559-48.184-19.736-71.011
					c-6.43-15.993-14.531-31.262-23.122-46.204c-19.611-34.106-42.038-66.895-69.932-94.639
					c-17.269-17.177-36.704-31.835-57.676-43.97c-20.355-11.779-39.074-23.583-50.014-46.005
					c-5.602-11.481-4.582-25.04-2.132-37.578c7.186-36.777,28.777-70.115,40.931-105.583
					c20.633-60.216,45.721-118.773,69.715-178.059c3.367-8.319,6.77-16.784,7.616-25.719c4.366-46.141-53.697-56.487-86.686-65.854
					c-27.996-7.944-100.994-29.883-88.411-70.795c9.27-30.14,77.62-73.547,108.533-72.082
					c-39.096-1.853-78.596,5.438-114.454,21.126c23.776-40.675,59.96-73.985,102.461-94.319
					c-40.099,9.716-77.762,29.332-108.709,56.619c12.646-33.061,25.416-66.372,44.328-96.294
					c18.911-29.922,44.619-56.591,77.05-70.776c-35.603,19.512-71.656,39.349-100.995,67.411
					c-29.339,28.062-51.676,65.796-52.576,106.385c-6.788-27.962-7.492-55.595-14.965-83.435
					c-3.982-14.832-8.87-29.422-14.628-43.659c-4.398-10.875-16.84-26.94-17.999-38.18c2.388,23.161,7.922,45.887,10.945,68.974
					s3.433,47.087-4.184,69.089c-18.469-0.845-38.119-30.56-51.34-41.543c-17.617-14.634-37.365-27.21-60.441-30.6
					c21.873,17.574,44.003,35.411,60.701,57.96c16.698,22.548,27.63,50.719,23.932,78.532
					c-33.732-15.333-68.779-30.964-105.832-30.93c20.813,7.895,40.651,18.354,58.926,31.064
					c13.055,9.08,25.626,19.681,33.107,33.714c31.653,59.367-45.516,74.446-85.003,83.656c-29.257,6.824-85.981,14.322-90.62,50.87
					c-2.222,17.504,4.874,34.7,11.82,50.919c23.856,55.707,44.214,112.834,67.924,168.602c12.109,28.484,25.018,56.665,39.709,83.92
					c11.334,21.028,35.102,41.83,26.104,66.782c-10.274,28.49-31.505,36.59-55.329,49.817
					c-24.382,13.537-46.83,36.759-65.677,56.976c-39.552,42.425-70.162,93.347-87.662,148.723
					c11.886-6.296,23.772-12.591,35.658-18.887c-15.958,8.453-29.58,67-35.041,83.748c-9.978,30.603-17.336,62.063-21.963,93.918
					c-9.477,65.252-8.112,131.632-15.916,197.185c-8.046,67.586-23.384,134.302-45.664,198.615
					c17.233-12.653,30.922-30.082,39.132-49.822c3.461,40.143,1.999,80.707-4.344,120.496c8.522-4.012,16.336-9.524,22.973-16.207
					c6.133,26.37,7.938,52.97,11.48,79.569c14.056-4.62,33.821-1.592,47.053-8.506c5.972-3.12,29.204-27.01,23.989-34.937
					c8.534,12.971,32.103,27.989,45.728,32.453c13.077-61.656,4.64-134.632,8.922-198.142
					c4.907-72.783,12.237-145.403,21.979-217.698c11.747-87.175,27.304-174.912,62.921-255.342
					c30.629-69.167,107.099-110.295,177.897-66.746c39.785,24.472,57.454,72.992,65.75,118.959
					c14.276,79.115,9.076,160.241,6.629,240.596c-4.066,133.522-0.383,267.145,3.299,400.679
					c-0.595-16.164,19.296-27.179,34.86-22.776c15.564,4.403,26.135,18.981,32.36,33.911c2.988-10.078,6.343-20.74,14.333-27.57
					c7.99-6.831,22.184-7.436,27.7,1.512c4.03,6.539,5.267,12.219,11.366,16.901c26.422-40.031,69.829,18.065,84.915-27.945
					c8.654-26.394,4.519-64.652,5.26-92.355C1730.394,2217.492,1738.415,2175.656,1729.895,2157.557z"/>
			</g>
			
				<linearGradient id="SVGID_00000119817176028668525070000013867101444614196906_" gradientUnits="userSpaceOnUse" x1="1721.1823" y1="908.4613" x2="1458.3046" y2="1399.6974">
				<stop  offset="0" style="stop-color:#09005D"/>
				<stop  offset="1" style="stop-color:#1A0F91"/>
			</linearGradient>
			<path style="fill:url(#SVGID_00000119817176028668525070000013867101444614196906_);" d="M1470.411,1560.583
				c0,23.048-74.18,57.324-97.811,59.664c-19.636,1.945-97.811-36.616-97.811-59.664c0-23.048,43.792-41.733,97.811-41.733
				C1426.62,1518.85,1470.411,1537.535,1470.411,1560.583z"/>
			
				<linearGradient id="SVGID_00000142173735535540713600000006291841828572884621_" gradientUnits="userSpaceOnUse" x1="710.246" y1="1691.8219" x2="1773.8475" y2="1932.701">
				<stop  offset="0" style="stop-color:#E1473D"/>
				<stop  offset="1" style="stop-color:#E9605A"/>
			</linearGradient>
			<path style="fill:url(#SVGID_00000142173735535540713600000006291841828572884621_);" d="M1488.843,1450.043
				c0,0,3.387,1.537,9.737,4.418c6.201,3.174,15.438,7.661,26.315,14.863c10.887,7.137,23.655,16.642,36.656,29.357
				c1.617,1.596,3.26,3.217,4.929,4.863c1.656,1.659,3.241,3.435,4.902,5.186c3.364,3.469,6.52,7.307,9.876,11.146
				c6.461,7.886,12.992,16.409,19.182,25.732c6.17,9.329,12.3,19.258,17.985,29.898c5.689,10.633,11.198,21.83,16.304,33.587
				c5.082,11.766,9.886,24.029,14.374,36.715c4.431,12.705,8.489,25.842,12.288,39.29c3.746,13.464,7.151,27.258,10.317,41.283
				c3.128,14.034,5.917,28.318,8.506,42.752c2.537,14.445,4.793,29.053,6.857,43.746c1.98,14.704,3.819,29.485,5.366,44.298
				c6.111,59.265,8.805,118.804,9.844,174.602c1.01,55.81,0.111,107.9-1.031,152.52c-0.562,22.312-1.329,42.757-2.092,60.874
				c-0.816,18.114-1.528,33.905-2.114,46.91c-1.34,26-2.106,40.857-2.106,40.857s0.558-14.866,1.536-40.881
				c0.921-26.017,2.009-63.191,2.867-107.803c0.865-44.611,1.119-96.672-0.002-152.419c-1.179-55.737-4.035-115.187-10.272-174.307
				c-1.505-14.784-3.302-29.535-5.239-44.207c-2.021-14.66-4.233-29.235-6.726-43.644c-2.546-14.398-5.289-28.644-8.37-42.638
				c-3.119-13.984-6.476-27.737-10.172-41.156c-3.735-13.408-7.796-26.479-12.075-39.17c-4.368-12.66-9.054-24.9-14.019-36.647
				c-4.99-11.737-10.382-22.916-15.958-33.536c-5.572-10.627-11.589-20.546-17.653-29.871c-6.07-9.329-12.535-17.82-18.845-25.756
				c-3.284-3.862-6.372-7.726-9.669-11.221c-1.628-1.765-3.182-3.555-4.807-5.228c-1.638-1.661-3.25-3.297-4.837-4.907
				c-12.764-12.835-25.354-22.483-36.116-29.754c-10.752-7.336-19.91-11.944-26.064-15.201
				C1492.208,1451.627,1488.843,1450.043,1488.843,1450.043z"/>
			
				<linearGradient id="SVGID_00000058558558202807688620000007752771941121442222_" gradientUnits="userSpaceOnUse" x1="706.3412" y1="1709.0677" x2="1769.9454" y2="1949.9476">
				<stop  offset="0" style="stop-color:#E1473D"/>
				<stop  offset="1" style="stop-color:#E9605A"/>
			</linearGradient>
			<path style="fill:url(#SVGID_00000058558558202807688620000007752771941121442222_);" d="M1446.015,1466.905
				c0,0,3.341,1.486,9.606,4.273c6.131,3.056,15.241,7.404,26.013,14.364c10.78,6.901,23.446,16.09,36.412,28.401
				c3.205,3.111,6.572,6.266,9.791,9.758c3.333,3.385,6.538,7.07,9.848,10.838c6.468,7.656,13.028,15.934,19.197,25.046
				c12.514,18.101,24.134,39.027,34.433,62.029c5.11,11.518,10.001,23.515,14.469,35.969c4.468,12.453,8.58,25.334,12.397,38.535
				c3.753,13.22,7.218,26.754,10.409,40.528c3.119,13.79,5.972,27.812,8.577,41.996c2.528,14.197,4.854,28.545,6.905,42.989
				c1.998,14.45,3.875,28.977,5.417,43.54c3.11,29.123,5.292,58.332,6.9,87.105c1.56,28.777,2.526,57.122,3.052,84.557
				c1.024,54.875,0.13,106.093-1.011,149.965c-0.56,21.938-1.33,42.04-2.092,59.852c-0.818,17.81-1.531,33.336-2.118,46.122
				c-1.343,25.563-2.109,40.17-2.109,40.17s0.56-14.616,1.54-40.195c0.923-25.58,2.013-62.131,2.872-105.994
				c0.863-43.862,1.112-95.051-0.022-149.862c-1.201-54.8-4.077-113.251-10.379-171.36c-1.499-14.534-3.335-29.028-5.29-43.447
				c-2.008-14.412-4.29-28.724-6.773-42.885c-2.559-14.147-5.367-28.13-8.438-41.879c-3.144-13.732-6.56-27.223-10.262-40.398
				c-3.752-13.16-7.866-25.973-12.182-38.412c-4.349-12.429-9.119-24.401-14.112-35.9c-10.064-22.962-21.453-43.86-33.751-61.954
				c-12.248-18.135-25.361-33.436-38.107-45.834c-12.732-12.434-25.222-21.769-35.878-28.805
				c-10.65-7.095-19.683-11.565-25.767-14.705C1449.335,1468.438,1446.015,1466.905,1446.015,1466.905z"/>
			
				<linearGradient id="SVGID_00000158737154776905681760000015700925297026015158_" gradientUnits="userSpaceOnUse" x1="699.9014" y1="1737.4951" x2="1763.5052" y2="1978.3749">
				<stop  offset="0" style="stop-color:#E1473D"/>
				<stop  offset="1" style="stop-color:#E9605A"/>
			</linearGradient>
			<path style="fill:url(#SVGID_00000158737154776905681760000015700925297026015158_);" d="M1448.085,1512.249
				c0,0,0.75,0.378,2.206,1.109c1.435,0.771,3.661,1.73,6.384,3.321c5.509,3.064,13.365,8.05,22.315,15.736
				c8.918,7.692,18.882,18.148,28.275,31.653c4.807,6.672,9.34,14.169,13.847,22.211c4.497,8.056,8.618,16.841,12.695,26.095
				c3.989,9.296,7.724,19.15,11.295,29.45c3.473,10.333,6.76,21.114,9.809,32.288c2.978,11.192,5.81,22.749,8.359,34.638
				c2.526,11.891,4.869,24.092,6.925,36.551c4.155,24.911,7.535,50.797,10.189,77.169c2.699,26.37,4.704,53.224,6.258,80.097
				c2.929,53.762,3.944,107.591,4.177,158.038c0.147,25.225-0.032,49.608-0.288,72.727c-0.255,23.119-0.602,44.974-0.967,65.146
				c-0.713,40.345-1.718,73.957-2.279,97.487c-0.601,23.529-0.944,36.975-0.944,36.975s0.526-53.795,1.315-134.488
				c0.403-40.343,0.58-87.412,0.22-137.83c-0.373-50.416-1.554-104.194-4.617-157.867c-1.475-26.837-3.399-53.65-6.018-79.971
				c-2.573-26.324-5.871-52.155-9.943-77.003c-4.103-24.841-8.96-48.708-14.767-71.037c-2.94-11.154-6.119-21.915-9.487-32.229
				c-3.466-10.281-7.097-20.118-10.984-29.398c-7.864-18.512-16.529-34.884-25.794-48.356c-9.133-13.57-18.882-24.122-27.647-31.921
				c-8.796-7.792-16.561-12.891-22.011-16.032c-2.696-1.632-4.909-2.626-6.331-3.418
				C1448.83,1512.639,1448.085,1512.249,1448.085,1512.249z"/>
			
				<linearGradient id="SVGID_00000121238821865494150300000017975830841602004667_" gradientUnits="userSpaceOnUse" x1="1932.6196" y1="1606.8872" x2="1098.0209" y2="1959.7257">
				<stop  offset="0" style="stop-color:#E1473D"/>
				<stop  offset="1" style="stop-color:#E9605A"/>
			</linearGradient>
			<path style="fill:url(#SVGID_00000121238821865494150300000017975830841602004667_);" d="M1323.406,1499.963
				c0,0-3.137,1.208-9.019,3.472c-5.74,2.571-14.198,6.383-24.012,12.866c-9.808,6.451-20.869,15.621-31.743,27.819
				c-0.685,0.757-1.376,1.519-2.072,2.288c-0.658,0.802-1.321,1.61-1.99,2.424c-1.333,1.63-2.687,3.285-4.061,4.963
				c-1.294,1.741-2.606,3.507-3.936,5.298c-0.662,0.897-1.328,1.801-1.999,2.71c-0.632,0.937-1.269,1.88-1.91,2.829
				c-5.246,7.51-10.139,15.826-14.913,24.667c-4.786,8.842-9.117,18.393-13.342,28.372c-4.178,10.006-7.963,20.567-11.588,31.507
				c-3.562,10.964-6.799,22.361-9.853,34.076c-2.953,11.742-5.762,23.792-8.303,36.117c-5.019,24.664-9.157,50.365-12.504,76.594
				c-3.408,26.222-5.997,52.975-8.188,79.756c-4.43,53.566-6.97,107.289-8.909,157.663c-1.811,50.391-3.5,97.422-4.949,137.735
				c-0.711,20.159-1.499,38.634-2.254,55.007c-0.815,16.37-1.526,30.641-2.111,42.394c-0.673,11.748-1.203,20.978-1.564,27.271
				c-0.386,6.292-0.591,9.647-0.591,9.647s0.154-3.358,0.442-9.655c0.264-6.297,0.65-15.534,1.142-27.289
				c0.404-11.758,0.895-26.036,1.458-42.414c0.467-16.381,0.995-34.861,1.57-55.022c0.538-20.163,1.121-42.006,1.739-65.109
				c0.615-23.105,1.26-47.472,2.178-72.673c1.799-50.401,4.175-104.171,8.473-157.832c2.271-26.818,4.94-53.612,8.432-79.887
				c3.429-26.281,7.653-52.045,12.761-76.781c2.6-12.359,5.399-24.463,8.499-36.222c3.17-11.74,6.52-23.161,10.195-34.149
				c3.737-10.965,7.634-21.548,11.923-31.576c4.337-10.002,8.776-19.571,13.671-28.432c4.895-8.85,9.854-17.207,15.26-24.689
				c0.66-0.945,1.315-1.885,1.967-2.818c0.689-0.906,1.374-1.806,2.055-2.699c1.367-1.782,2.715-3.54,4.044-5.273
				c1.409-1.669,2.798-3.314,4.166-4.935c0.685-0.809,1.365-1.612,2.039-2.408c0.712-0.763,1.42-1.521,2.12-2.272
				c11.134-12.109,22.395-21.154,32.338-27.477c9.948-6.355,18.483-10.045,24.269-12.53
				C1320.251,1501.123,1323.406,1499.963,1323.406,1499.963z"/>
			
				<linearGradient id="SVGID_00000103235450543704568370000015973861444640737982_" gradientUnits="userSpaceOnUse" x1="1918.491" y1="1573.4691" x2="1083.8943" y2="1926.3068">
				<stop  offset="0" style="stop-color:#E1473D"/>
				<stop  offset="1" style="stop-color:#E9605A"/>
			</linearGradient>
			<path style="fill:url(#SVGID_00000103235450543704568370000015973861444640737982_);" d="M1291.176,1450.043
				c0,0-3.323,1.429-9.553,4.109c-6.05,3.032-15.086,7.279-25.523,14.449c-10.45,7.084-22.559,16.676-34.525,29.585
				c-1.484,1.621-2.993,3.267-4.525,4.939c-1.545,1.66-2.956,3.484-4.474,5.258c-3.064,3.527-5.926,7.39-8.927,11.301
				c-5.796,7.971-11.714,16.5-17.138,25.868c-0.695,1.16-1.393,2.326-2.095,3.498c-0.663,1.195-1.328,2.397-1.996,3.605
				c-1.325,2.422-2.706,4.844-4.022,7.331c-2.55,5.018-5.227,10.091-7.649,15.401c-2.561,5.242-4.852,10.719-7.283,16.23
				c-2.249,5.59-4.647,11.218-6.763,17.05c-4.426,11.587-8.452,23.688-12.226,36.154c-3.808,12.458-7.273,25.316-10.52,38.459
				c-6.481,26.294-11.788,53.8-16.271,81.89c-4.409,28.105-8.009,56.796-10.862,85.565c-5.911,57.523-9.166,115.305-11.289,169.495
				c-2.082,54.196-3.292,104.817-4.098,148.211c-0.858,43.396-1.573,79.56-2.073,104.874c-0.563,25.314-0.885,39.779-0.885,39.779
				s0.114-14.468,0.314-39.787c0.217-25.318,0.24-61.49,0.735-104.895c0.239-21.703,0.542-45.214,1.001-70.082
				c0.465-24.867,1.042-51.093,2.066-78.211c0.995-27.119,2.255-55.137,4.003-83.584c1.773-28.445,3.931-57.326,6.854-86.142
				c2.936-28.813,6.619-57.556,11.113-85.721c4.57-28.15,9.964-55.724,16.54-82.097c3.308-13.178,6.766-26.094,10.723-38.567
				c3.892-12.49,8.034-24.612,12.574-36.22c2.173-5.841,4.628-11.481,6.934-17.079c2.488-5.522,4.835-11.005,7.451-16.257
				c2.479-5.317,5.211-10.398,7.816-15.422c1.344-2.49,2.752-4.917,4.104-7.341c0.682-1.209,1.361-2.412,2.037-3.609
				c0.716-1.174,1.427-2.341,2.135-3.503c5.543-9.368,11.527-17.935,17.479-25.865c3.076-3.893,6.009-7.734,9.141-11.24
				c1.552-1.763,2.997-3.575,4.575-5.223c1.564-1.659,3.104-3.293,4.621-4.901c12.213-12.805,24.512-22.264,35.093-29.218
				c10.567-7.039,19.682-11.167,25.779-14.114C1287.833,1451.425,1291.176,1450.043,1291.176,1450.043z"/>
			
				<linearGradient id="SVGID_00000072973027976330044290000011558719012975846565_" gradientUnits="userSpaceOnUse" x1="1455.6035" y1="782.0761" x2="1355.4307" y2="981.2833">
				<stop  offset="0" style="stop-color:#E1473D"/>
				<stop  offset="1" style="stop-color:#E9605A"/>
			</linearGradient>
			
				<ellipse style="fill:url(#SVGID_00000072973027976330044290000011558719012975846565_);" cx="1377.721" cy="936.956" rx="81.053" ry="28.757"/>
		</g>
		<g>
			
				<linearGradient id="SVGID_00000177469080523856267930000012513098608981575812_" gradientUnits="userSpaceOnUse" x1="3750.0327" y1="2108.9287" x2="4124.98" y2="2437.5229" gradientTransform="matrix(1 0 0 1 -1207.7977 0)">
				<stop  offset="0" style="stop-color:#FEBBBA"/>
				<stop  offset="1" style="stop-color:#FF928E"/>
			</linearGradient>
			<path style="fill:url(#SVGID_00000177469080523856267930000012513098608981575812_);" d="M2577.335,2204.888
				c0,0-10.941,60.176,49.234,125.822s183.686-33.434,183.686-33.434l-14.101-114.27
				C2796.155,2183.006,2714.097,2412.767,2577.335,2204.888z"/>
			
				<linearGradient id="SVGID_00000137127329889058524940000005266775699544595331_" gradientUnits="userSpaceOnUse" x1="4316.5449" y1="10555.999" x2="4598.2759" y2="11124.9297" gradientTransform="matrix(1 0 0 1 2812.4126 0)">
				<stop  offset="0" style="stop-color:#09005D"/>
				<stop  offset="1" style="stop-color:#1A0F91"/>
			</linearGradient>
			<path style="fill:url(#SVGID_00000137127329889058524940000005266775699544595331_);" d="M2894.136,1956.484
				c0,0,28.446,13.836,33.676,29.73c4.196,12.753,35.649,14.397,38.757,39.478c1.604,12.949,11.186,23.321,24.084,25.298
				c32.125,4.924,81.631,21.605,89.552,77.38c6.046,42.572-15.657,58.715-38.433,64.302c-16.729,4.104-27.846,20.375-24.462,37.264
				c3.245,16.199-1.594,34.926-29.658,49.735c-62.889,33.184-125.694-78.616-125.694-78.616l-12.871-195.211L2894.136,1956.484z"/>
			
				<linearGradient id="SVGID_00000092417969302383867430000013883340312773275823_" gradientUnits="userSpaceOnUse" x1="340.1376" y1="3197.6802" x2="411.6859" y2="3197.6802" gradientTransform="matrix(1 0 0 1 2812.4126 0)">
				<stop  offset="0" style="stop-color:#09005D"/>
				<stop  offset="1" style="stop-color:#1A0F91"/>
			</linearGradient>
			<path style="fill:url(#SVGID_00000092417969302383867430000013883340312773275823_);" d="M3152.635,3180.521l4.07,33.456
				c0.771,6.347,5.769,11.365,12.121,12.091c10.725,1.225,27.936,2.481,44.774,0.701c7.392-0.781,12.19-8.266,9.939-15.349
				c-4.105-12.915-11.615-32.302-22.443-43.711h-37.113C3157.124,3167.707,3151.807,3173.709,3152.635,3180.521z"/>
			
				<linearGradient id="SVGID_00000062187975045656474990000017538137649242830211_" gradientUnits="userSpaceOnUse" x1="37.8099" y1="3479.8262" x2="140.7728" y2="2276.4473" gradientTransform="matrix(1 0 0 1 2812.4126 0)">
				<stop  offset="0" style="stop-color:#FEBBBA"/>
				<stop  offset="1" style="stop-color:#FF928E"/>
			</linearGradient>
			<path style="fill:url(#SVGID_00000062187975045656474990000017538137649242830211_);" d="M2861.958,2788.613l-6.264,36.847
				c0,0,20.977,212.479,24.708,297.47c0.585,13.325-2.862,26.493-9.854,37.85l-36.476,59.232l92.701-54.702l1.846-11.313
				l-15.175-20.865l19.877-238.029c1.167-13.983-1.718-28.006-8.312-40.393l-19.174-36.022L2861.958,2788.613z"/>
			
				<linearGradient id="SVGID_00000009552513406479260880000016469404371838776998_" gradientUnits="userSpaceOnUse" x1="7.7311" y1="3184.6172" x2="123.5018" y2="3184.6172" gradientTransform="matrix(1 0 0 1 2812.4126 0)">
				<stop  offset="0" style="stop-color:#09005D"/>
				<stop  offset="1" style="stop-color:#1A0F91"/>
			</linearGradient>
			<path style="fill:url(#SVGID_00000009552513406479260880000016469404371838776998_);" d="M2827.966,3228.594h29.583
				c5.538,0,10.76-2.542,14.137-6.931c9.222-11.984,28.329-35.363,37.466-35.973c12.299-0.822,10.726,42.904,10.726,42.904h6.894
				l8.733-54.333c2.197-13.671-4.601-27.214-16.878-33.619l0,0c0,0-2.811,20.793-18.056,29.99
				c-15.245,9.197-62.036,42.134-62.036,42.134s-5.732-0.818-12.024,0.32C2817.177,3214.771,2818.481,3228.594,2827.966,3228.594z"
				/>
			
				<linearGradient id="SVGID_00000159436756430405147320000011814479794277737614_" gradientUnits="userSpaceOnUse" x1="244.9262" y1="3497.7322" x2="347.9162" y2="2294.0356" gradientTransform="matrix(1 0 0 1 2812.4126 0)">
				<stop  offset="0" style="stop-color:#FEBBBA"/>
				<stop  offset="1" style="stop-color:#FF928E"/>
			</linearGradient>
			<path style="fill:url(#SVGID_00000159436756430405147320000011814479794277737614_);" d="M2988.929,2806.113
				c0,0,122.889,233.108,142.424,286.331c19.535,53.222,26.378,97.622,26.64,101.827c0.409,6.57,8.581,12.87,31.105,12.87
				c11.624,0,17.318-4.659,20.105-9.17c2.378-3.848,2.501-8.663,0.497-12.718c-7.108-14.386-29.668-60.36-38.022-81.213
				c-9.975-24.896-31.433-137.722-43.2-176.95c-11.768-39.228-25.07-81.781-76.315-120.977
				C3052.162,2806.113,3016.984,2771.658,2988.929,2806.113z"/>
			<path style="fill:#BDD0FB;" d="M2911.297,2424.153c-31.7-134.325,48.605-210.297,48.605-210.297
				c-32.496-31.193-82.124-51.484-113.544-62.027c-18.685-6.27-39.198-1.8-53.747,11.496
				c-25.228,23.054-60.147,61.778-53.347,94.578c6.124,29.546,61.922,176.977,61.922,176.977S2852.783,2459.297,2911.297,2424.153z"
				/>
			
				<linearGradient id="SVGID_00000134952777330545314870000017952104254505412236_" gradientUnits="userSpaceOnUse" x1="4023.8936" y1="2850.8127" x2="4250.0078" y2="2391.2905" gradientTransform="matrix(1 0 0 1 -1207.7977 0)">
				<stop  offset="0" style="stop-color:#09005D"/>
				<stop  offset="1" style="stop-color:#1A0F91"/>
			</linearGradient>
			<path style="fill:url(#SVGID_00000134952777330545314870000017952104254505412236_);" d="M2981.581,2490.653
				c-12.902-38.864-70.283-66.5-70.283-66.5c-58.514,35.144-110.11,10.727-110.11,10.727s-11.571,44.227-3.584,85.329
				c7.986,41.102,58.091,305.251,58.091,305.251c78.948,15.997,200.37-16.094,200.37-16.094
				C3005.777,2720.084,2994.481,2529.518,2981.581,2490.653z"/>
			
				<linearGradient id="SVGID_00000181767895381620125550000005202295945233563574_" gradientUnits="userSpaceOnUse" x1="26.5184" y1="2293.6536" x2="45.8597" y2="2152.1577" gradientTransform="matrix(1 0 0 1 2812.4126 0)">
				<stop  offset="0" style="stop-color:#FEBBBA"/>
				<stop  offset="1" style="stop-color:#FF928E"/>
			</linearGradient>
			<path style="fill:url(#SVGID_00000181767895381620125550000005202295945233563574_);" d="M2874.502,2054.318l25.773,115.766
				c2.467,10.197-6.829,8.528-17.138,6.584c-16.883-3.183-38.644-9.739-45.917-22.875c-0.74-1.337-1.11-2.848-1.319-4.363
				l-11.072-80.274c-0.879-6.368,2.563-12.55,8.441-15.156l21.366-9.474C2862.863,2040.878,2872.386,2045.572,2874.502,2054.318z"/>
			<g>
				
					<linearGradient id="SVGID_00000027591435883547693540000003514365813197332404_" gradientUnits="userSpaceOnUse" x1="-214.9034" y1="2223.1995" x2="-46.1424" y2="1922.8615" gradientTransform="matrix(0.9809 -0.1943 0.1943 0.9809 2583.3225 -99.2406)">
					<stop  offset="0" style="stop-color:#FEBBBA"/>
					<stop  offset="1" style="stop-color:#FF928E"/>
				</linearGradient>
				<path style="fill:url(#SVGID_00000027591435883547693540000003514365813197332404_);" d="M2825.137,1948.786
					c0,0-27.438,18.573-39.228,65.872c-11.79,47.299,7.37,64.265,27.01,63.226c19.64-1.04,48.116-7.113,72.79-41.046
					C2910.383,2002.905,2861.092,1926.09,2825.137,1948.786z"/>
				
					<linearGradient id="SVGID_00000098937653341412589920000013463792865801308821_" gradientUnits="userSpaceOnUse" x1="5845.2295" y1="14146.0625" x2="6126.9604" y2="14714.9941" gradientTransform="matrix(0.9809 -0.1943 0.1943 0.9809 2583.3225 -99.2406)">
					<stop  offset="0" style="stop-color:#09005D"/>
					<stop  offset="1" style="stop-color:#1A0F91"/>
				</linearGradient>
				<path style="fill:url(#SVGID_00000098937653341412589920000013463792865801308821_);" d="M2860.828,2017.76
					c0,0,10.053-67.775-46.218-57.408l-11.377,11.846c0,0-27.543-31.018,2.937-54.465c30.48-23.447,72.776-17.443,96.178,25.243
					c23.401,42.686,31.894,72.681,12.28,99.205c-19.615,26.524-34.368,3.776-34.368,3.776s8.996-22.957,1.532-32.808
					c-7.464-9.851-17.093,5.729-17.093,5.729L2860.828,2017.76z"/>
				
					<linearGradient id="SVGID_00000181796609433983347360000018177867563826120639_" gradientUnits="userSpaceOnUse" x1="-178.9802" y1="2243.3853" x2="-10.2217" y2="1943.0518" gradientTransform="matrix(0.9809 -0.1943 0.1943 0.9809 2583.3225 -99.2406)">
					<stop  offset="0" style="stop-color:#FEBBBA"/>
					<stop  offset="1" style="stop-color:#FF928E"/>
				</linearGradient>
				<path style="fill:url(#SVGID_00000181796609433983347360000018177867563826120639_);" d="M2868.519,2023.564
					c0,0,4.962-34.87,22.772-24.901c17.808,9.968-6.419,32.573-16.133,40.264L2868.519,2023.564z"/>
			</g>
			
				<linearGradient id="SVGID_00000054254418997488616590000000182926719030826918_" gradientUnits="userSpaceOnUse" x1="3719.5479" y1="2143.7139" x2="4094.4949" y2="2472.3079" gradientTransform="matrix(1 0 0 1 -1207.7977 0)">
				<stop  offset="0" style="stop-color:#FEBBBA"/>
				<stop  offset="1" style="stop-color:#FF928E"/>
			</linearGradient>
			<path style="fill:url(#SVGID_00000054254418997488616590000000182926719030826918_);" d="M2549.138,2203.672l0.845-48.018
				c0,0,27.353,0,32.823,27.353s10.257,53.356,18.804,64.971c6.396,8.69-23.561-11.918-40.992-29.212
				C2554.751,2212.944,2550.303,2207.498,2549.138,2203.672z"/>
			<g>
				
					<linearGradient id="SVGID_00000035508938920937332430000013965099051451350201_" gradientUnits="userSpaceOnUse" x1="2160.0588" y1="1091.0092" x2="2142.2952" y2="1568.4009">
					<stop  offset="0" style="stop-color:#4F52FF"/>
					<stop  offset="1" style="stop-color:#4042E2"/>
				</linearGradient>
				<polygon style="fill:url(#SVGID_00000035508938920937332430000013965099051451350201_);" points="2424.687,2116.88 
					1836.348,1652.973 2412.871,2202.527 				"/>
				
					<linearGradient id="SVGID_00000013874084227092789880000003768331281911541687_" gradientUnits="userSpaceOnUse" x1="3176.356" y1="1359.0186" x2="4056.8628" y2="2561.7129" gradientTransform="matrix(1 0 0 1 -1207.7977 0)">
					<stop  offset="0" style="stop-color:#4F52FF"/>
					<stop  offset="1" style="stop-color:#4042E2"/>
				</linearGradient>
				<path style="fill:url(#SVGID_00000013874084227092789880000003768331281911541687_);" d="M2810.233,2521.493
					c15.37,27.005,41.832,36.762,72.703,34.963c6.925,4.167,4.021,15.132-10.599,16.251c-34.966,3.262-70.816-19.58-92.604-53.538
					L2810.233,2521.493z"/>
				
					<linearGradient id="SVGID_00000107546222024611726570000001566513583887540112_" gradientUnits="userSpaceOnUse" x1="3112.1699" y1="1406.0118" x2="3992.6733" y2="2608.7017" gradientTransform="matrix(1 0 0 1 -1207.7977 0)">
					<stop  offset="0" style="stop-color:#4F52FF"/>
					<stop  offset="1" style="stop-color:#4042E2"/>
				</linearGradient>
				<path style="fill:url(#SVGID_00000107546222024611726570000001566513583887540112_);" d="M2475.814,2447.211
					c13.567-24.738,33.328-45.671,54.515-65.293c0.957-0.886,1.149-2.329,0.441-3.424c-23.93-37.038-41.963-107.237-54.102-180.039
					c-0.354-2.126,1.817-3.786,3.778-2.89c67.278,30.743,129.41,61.768,158.907,94.58c0.868,0.965,2.3,1.155,3.407,0.477
					c24.414-14.971,50.62-24.487,78.122-30.061c2.768-0.561,2.903-4.469,0.183-5.227c-49.507-13.793-125.029-55.856-199.438-96.709
					c-0.277-0.152-0.526-0.352-0.734-0.591l-532.407-610.546c-2.206-2.53-6.125,0.446-4.281,3.251l445.556,677.469l0.356-0.272
					c19.836,82.701,40.516,166.747,40.635,218.014C2470.759,2448.739,2474.473,2449.656,2475.814,2447.211z"/>
				
					<linearGradient id="SVGID_00000160909711182449184180000013843837591681728137_" gradientUnits="userSpaceOnUse" x1="3195.2104" y1="1345.2159" x2="4075.7166" y2="2547.9094" gradientTransform="matrix(1 0 0 1 -1207.7977 0)">
					<stop  offset="0" style="stop-color:#4F52FF"/>
					<stop  offset="1" style="stop-color:#4042E2"/>
				</linearGradient>
				<path style="fill:url(#SVGID_00000160909711182449184180000013843837591681728137_);" d="M2845.14,2511.608
					c44.191-33.737,38.569-115.376-12.558-182.346s-128.398-93.911-172.589-60.174c-44.191,33.737-38.569,115.376,12.558,182.346
					S2800.949,2545.345,2845.14,2511.608z M2669.953,2282.134c35.936-27.435,101.809-1.548,147.131,57.819
					c45.323,59.367,52.932,129.734,16.996,157.168s-101.809,1.548-147.132-57.819
					C2641.626,2379.935,2634.017,2309.569,2669.953,2282.134z"/>
				
					<linearGradient id="SVGID_00000042013115028247926320000015098457726398563500_" gradientUnits="userSpaceOnUse" x1="3027.4214" y1="1468.0569" x2="3907.9277" y2="2670.7507" gradientTransform="matrix(1 0 0 1 -1207.7977 0)">
					<stop  offset="0" style="stop-color:#4F52FF"/>
					<stop  offset="1" style="stop-color:#4042E2"/>
				</linearGradient>
				<path style="fill:url(#SVGID_00000042013115028247926320000015098457726398563500_);" d="M2679.283,2637.088
					c44.191-33.737,38.569-115.376-12.558-182.346s-128.398-93.911-172.589-60.174c-44.191,33.737-38.569,115.377,12.558,182.347
					S2635.092,2670.825,2679.283,2637.088z M2504.096,2407.615c35.936-27.435,101.809-1.548,147.132,57.819
					c45.323,59.367,52.932,129.734,16.996,157.168c-35.936,27.435-101.809,1.548-147.132-57.819
					C2475.769,2505.416,2468.16,2435.049,2504.096,2407.615z"/>
				
					<linearGradient id="SVGID_00000120541230104200265990000002862078215101931672_" gradientUnits="userSpaceOnUse" x1="3285.8286" y1="1588.4563" x2="4382.46" y2="3265.4211" gradientTransform="matrix(1 0 0 1 -1207.7977 0)">
					<stop  offset="0" style="stop-color:#FF928E"/>
					<stop  offset="1" style="stop-color:#FE7062"/>
				</linearGradient>
				
					<circle style="fill:url(#SVGID_00000120541230104200265990000002862078215101931672_);" cx="2449.616" cy="2156.683" r="17.147"/>
			</g>
			
				<linearGradient id="SVGID_00000051377368337571221530000015149792178599725470_" gradientUnits="userSpaceOnUse" x1="4018.0532" y1="2358.8076" x2="4224.1377" y2="2358.8076" gradientTransform="matrix(1 0 0 1 -1207.7977 0)">
				<stop  offset="0" style="stop-color:#FEBBBA"/>
				<stop  offset="1" style="stop-color:#FF928E"/>
			</linearGradient>
			<path style="fill:url(#SVGID_00000051377368337571221530000015149792178599725470_);" d="M2960.27,2215.829
				c0,0,66.319,87.609,54.705,180.526c-10.941,87.528-122.612,97.125-122.612,97.125s-36.032,17.755-52.444,1.344
				c-16.412-16.411-29.663-70.672-29.663-70.672l38.897,32.844c0,0-3.764-33.288,1.707-33.288s7.238,1.452,11.824,19.873
				c4.587,18.421,15.345,37.797,15.345,37.797s82.241-46.729,87.711-90.493c7.586-60.69-51.313-97.775-51.313-97.775
				S2927.447,2226.77,2960.27,2215.829z"/>
		</g>
	</g>
</g>
</svg>
