<svg width="336" height="295" viewBox="0 0 336 295" fill="none" xmlns="http://www.w3.org/2000/svg">
<g clip-path="url(#clip0_1_6)">
<path d="M417 -45L-83 -44.9652L-82.9652 455.035L417.035 455L417 -45Z" fill="#E9F0FF"/>
<path d="M167.004 18.4754C105.579 18.4797 55.7879 68.2781 55.7922 129.703L55.8023 275.684L278.242 275.669L278.232 129.688C278.228 68.2627 228.429 18.4711 167.004 18.4754Z" fill="#2F2F6D"/>
<path d="M134.11 73.7487C140.358 73.7483 145.422 68.6833 145.421 62.4359C145.421 56.1885 140.356 51.1243 134.109 51.1247C127.861 51.1251 122.797 56.19 122.797 62.4375C122.798 68.6849 127.863 73.7491 134.11 73.7487Z" stroke="white" stroke-width="1.4326" stroke-miterlimit="10" stroke-linecap="round" stroke-linejoin="round"/>
<path d="M142.57 65.9621C141.189 69.2722 137.921 71.5994 134.11 71.5997C133.477 71.5997 132.86 71.5358 132.263 71.4138" stroke="white" stroke-width="1.4326" stroke-miterlimit="10" stroke-linecap="round" stroke-linejoin="round"/>
<path d="M143.137 60.8611C143.226 61.3731 143.272 61.899 143.272 62.436C143.273 62.849 143.246 63.2551 143.193 63.6531" stroke="white" stroke-width="1.4326" stroke-miterlimit="10" stroke-linecap="round" stroke-linejoin="round"/>
<path d="M127.104 56.0012C123.73 59.5164 124.479 66.3474 127.105 66.9042C129.731 67.461 128.697 63.7331 131.163 60.8609C133.63 57.9897 136.893 57.9095 136.416 54.9645C135.938 52.0216 130.924 52.0219 127.104 56.0012Z" fill="white"/>
<path d="M199.542 62.9621C205.789 62.9617 210.853 57.8968 210.853 51.6493C210.852 45.4019 205.787 40.3377 199.54 40.3381C193.293 40.3386 188.228 45.4035 188.229 51.6509C188.229 57.8984 193.294 62.9626 199.542 62.9621Z" stroke="white" stroke-width="1.4326" stroke-miterlimit="10" stroke-linecap="round" stroke-linejoin="round"/>
<path d="M208.001 55.1756C206.62 58.4856 203.352 60.8129 199.541 60.8131C198.908 60.8132 198.291 60.7492 197.694 60.6273" stroke="white" stroke-width="1.4326" stroke-miterlimit="10" stroke-linecap="round" stroke-linejoin="round"/>
<path d="M208.569 50.0745C208.658 50.5865 208.704 51.1125 208.704 51.6495C208.704 52.0625 208.677 52.4685 208.624 52.8665" stroke="white" stroke-width="1.4326" stroke-miterlimit="10" stroke-linecap="round" stroke-linejoin="round"/>
<path d="M192.535 45.2146C189.162 48.7298 189.91 55.5608 192.536 56.1176C195.162 56.6744 194.128 52.9465 196.595 50.0743C199.061 47.2032 202.324 47.1229 201.847 44.178C201.369 41.235 196.355 41.2353 192.535 45.2146Z" fill="white"/>
<path d="M257.725 201.856C263.49 199.448 266.212 192.823 263.804 187.058C261.397 181.293 254.772 178.572 249.007 180.979C243.242 183.387 240.52 190.012 242.928 195.777C245.335 201.542 251.96 204.263 257.725 201.856Z" stroke="white" stroke-width="1.4326" stroke-miterlimit="10" stroke-linecap="round" stroke-linejoin="round"/>
<path d="M261.827 194.925C260.446 198.235 257.178 200.562 253.367 200.562C252.734 200.562 252.117 200.498 251.52 200.377" stroke="white" stroke-width="1.4326" stroke-miterlimit="10" stroke-linecap="round" stroke-linejoin="round"/>
<path d="M262.394 189.824C262.483 190.336 262.529 190.862 262.529 191.399C262.529 191.812 262.503 192.218 262.45 192.616" stroke="white" stroke-width="1.4326" stroke-miterlimit="10" stroke-linecap="round" stroke-linejoin="round"/>
<path d="M246.362 184.964C242.988 188.479 243.737 195.31 246.363 195.868C248.989 196.425 247.955 192.697 250.421 189.825C252.888 186.952 256.151 186.873 255.674 183.929C255.196 180.984 250.182 180.985 246.362 184.964Z" fill="white"/>
<path d="M82.1238 201.395C87.8888 198.988 90.6105 192.363 88.203 186.598C85.7954 180.833 79.1703 178.111 73.4053 180.519C67.6403 182.926 64.9186 189.551 67.3261 195.316C69.7337 201.081 76.3588 203.803 82.1238 201.395Z" stroke="white" stroke-width="1.4326" stroke-miterlimit="10" stroke-linecap="round" stroke-linejoin="round"/>
<path d="M86.2287 194.471C84.8479 197.781 81.5801 200.108 77.7691 200.109C77.1361 200.109 76.519 200.045 75.922 199.923" stroke="white" stroke-width="1.4326" stroke-miterlimit="10" stroke-linecap="round" stroke-linejoin="round"/>
<path d="M86.7973 189.37C86.8864 189.882 86.9324 190.408 86.9324 190.945C86.9325 191.358 86.9055 191.764 86.8525 192.162" stroke="white" stroke-width="1.4326" stroke-miterlimit="10" stroke-linecap="round" stroke-linejoin="round"/>
<path d="M70.764 184.51C67.3902 188.025 68.1387 194.856 70.7647 195.413C73.3908 195.97 72.3565 192.242 74.8233 189.37C77.2901 186.499 80.5531 186.418 80.0759 183.474C79.5977 180.53 74.5837 180.531 70.764 184.51Z" fill="white"/>
<mask id="mask0_1_6" style="mask-type:luminance" maskUnits="userSpaceOnUse" x="55" y="18" width="224" height="258">
<path d="M167.004 18.4754C105.579 18.4797 55.7879 68.2781 55.7922 129.703L55.8023 275.684L278.242 275.669L278.232 129.688C278.228 68.2627 228.429 18.4711 167.004 18.4754Z" fill="white"/>
</mask>
<g mask="url(#mask0_1_6)">
<path d="M221.874 170.089C221.34 167.952 223.476 156.017 224.363 144.195C230.134 159.48 236.273 164.589 240.218 162.963C246.274 160.469 247.877 153.251 247.877 153.251C251.974 151.019 258.74 131.97 245.915 116.831C233.09 101.692 216.525 99.022 213.141 96.1722C209.757 93.3224 192.123 80.1436 167.009 80.1454C141.895 80.1471 124.263 93.3284 120.878 96.1786C117.494 99.0288 100.929 101.702 88.1063 116.842C75.2833 131.983 82.0526 151.03 86.1498 153.262C86.1498 153.262 87.7533 160.48 93.8095 162.973C97.7556 164.598 103.894 159.489 109.662 144.203C110.551 156.025 112.69 167.959 112.156 170.096C111.622 172.233 94.8812 201.801 88.4711 229.232C82.061 256.662 76.0083 303.506 95.0692 345.896L167.027 345.891L238.985 345.886C258.04 303.494 251.981 256.651 245.567 229.221C239.153 201.791 222.408 172.226 221.874 170.089Z" fill="#BAC3FC"/>
<path d="M108.759 143.298C111.844 135.125 114.822 124.042 117.303 109.523" stroke="white" stroke-miterlimit="10"/>
<path d="M214.91 109.516C217.393 124.036 220.374 135.119 223.458 143.291" stroke="white" stroke-miterlimit="10"/>
<path d="M140.526 125.373C140.526 127.144 139.09 128.579 137.32 128.579C135.549 128.58 134.114 127.144 134.114 125.374C134.114 123.604 135.549 122.168 137.32 122.167C139.091 122.167 140.526 123.603 140.526 125.373Z" fill="#2F2F6D"/>
<path d="M191.689 125.37C191.689 127.141 193.124 128.576 194.895 128.575C196.666 128.575 198.101 127.139 198.101 125.369C198.101 123.599 196.665 122.163 194.895 122.163C193.125 122.164 191.689 123.6 191.689 125.37Z" fill="#2F2F6D"/>
<path d="M175.861 152.222C169.048 151.421 166.108 146.745 166.108 146.745C166.108 146.745 163.17 151.421 156.357 152.223C155.484 152.326 154.654 152.363 153.867 152.346L153.861 152.351C160.181 157.823 161.836 164.512 166.11 164.511C170.385 164.511 172.037 157.822 178.357 152.35L178.35 152.345C177.565 152.362 176.735 152.325 175.861 152.222Z" fill="#2F2F6D"/>
<path d="M146.294 149.55C146.294 149.55 141.392 145.528 143.934 144.476C145.87 143.674 144.79 148.351 146.294 149.55Z" fill="#2F2F6D"/>
<path d="M178.264 130.314C177.329 126.841 173.188 125.371 166.108 125.371C159.028 125.372 154.887 126.841 153.952 130.315C153.101 133.477 158.228 137.529 166.109 137.528C173.99 137.527 179.115 133.476 178.264 130.314Z" fill="#2F2F6D"/>
<path d="M187.349 146.744C186.949 149.95 182.675 153.022 175.862 152.222C169.049 151.421 166.109 146.745 166.109 146.745C166.109 146.745 163.171 151.421 156.358 152.223C149.545 153.025 145.27 149.953 144.869 146.747" stroke="#2F2F6D" stroke-width="2" stroke-miterlimit="10"/>
<path d="M185.925 149.547C185.925 149.547 190.825 145.525 188.283 144.473C186.347 143.671 187.427 148.348 185.925 149.547Z" fill="#2F2F6D"/>
<path d="M166.109 137.527L166.109 146.745" stroke="#2F2F6D" stroke-width="2" stroke-miterlimit="10"/>
<path d="M174.525 153.958C173.879 152.322 168.914 151.153 166.109 151.153C163.304 151.154 158.339 152.324 157.693 153.959C157.047 155.595 158.228 166.917 166.11 166.916C173.992 166.916 175.171 155.594 174.525 153.958Z" fill="#F76CA4"/>
<path d="M166.11 151.153L166.11 159.104" stroke="white" stroke-miterlimit="10"/>
<path d="M98.075 228.504C97.0067 237.41 97.3645 248.809 100.927 257.002" stroke="white" stroke-miterlimit="10"/>
<path d="M102.707 236.697C102.707 245.246 104.133 252.371 107.695 260.208" stroke="white" stroke-miterlimit="10"/>
<path d="M140.819 180.767C147.587 181.479 153.999 188.603 157.563 194.303" stroke="white" stroke-miterlimit="10"/>
<path d="M157.206 184.328C159.7 187.534 162.549 191.096 163.619 195.371" stroke="white" stroke-miterlimit="10"/>
<path d="M173.593 195.726C175.017 190.739 177.867 186.464 181.785 182.545" stroke="white" stroke-miterlimit="10"/>
<path d="M179.293 194.658C181.429 187.176 189.266 180.052 195.321 175.42" stroke="white" stroke-miterlimit="10"/>
<path d="M229.879 228.139C232.729 233.482 232.374 240.251 232.374 246.306" stroke="white" stroke-miterlimit="10"/>
<path d="M225.605 235.263C228.1 241.675 228.1 248.087 226.676 254.499" stroke="white" stroke-miterlimit="10"/>
</g>
<mask id="mask1_1_6" style="mask-type:luminance" maskUnits="userSpaceOnUse" x="55" y="18" width="224" height="258">
<path d="M167.004 18.4754C105.579 18.4797 55.7879 68.2781 55.7922 129.703L55.8023 275.684L278.242 275.669L278.232 129.688C278.228 68.2627 228.429 18.4711 167.004 18.4754Z" fill="white"/>
</mask>
<g mask="url(#mask1_1_6)">
<path d="M138.813 221.723C138.813 221.723 140.385 207.011 154.882 205.65C166.57 204.553 169.006 209.18 174.485 210.519C179.84 211.827 182.034 210.153 182.643 210.64C183.252 211.127 184.226 217.945 177.164 219.651C177.164 219.651 179.803 225.332 176.962 231.502C174.122 237.671 170.226 238.807 170.794 243.109C171.362 247.411 180.616 248.222 186.703 246.842C192.791 245.462 199.852 239.049 202.044 236.046C204.235 233.043 206.246 237.599 206.752 244.244C207.321 251.712 208.783 274.681 185.57 283.531C162.356 292.381 139.06 284.102 134.757 267.95C130.454 251.797 139.625 245.628 141.33 242.381C143.035 239.134 142.384 234.021 140.68 233.128C140.68 233.128 134.511 233.454 130.371 229.72C126.191 225.95 126.881 223.308 127.53 222.577C128.179 221.847 129.554 223.206 133.455 223.064C137.92 222.9 138.813 221.723 138.813 221.723Z" fill="#E9F0FF"/>
<path d="M133.456 223.063C129.555 223.205 128.18 221.846 127.531 222.576C126.882 223.307 126.192 225.948 130.372 229.719C134.512 233.453 140.681 233.127 140.681 233.127C141.168 229.556 144.496 226.634 144.496 226.634C140.194 226.066 138.814 221.723 138.814 221.723C138.814 221.723 137.92 222.9 133.456 223.063Z" fill="#F76CA4"/>
<path d="M150.582 225.417C151.694 225.416 152.595 224.515 152.595 223.403C152.595 222.292 151.693 221.39 150.582 221.391C149.47 221.391 148.569 222.292 148.569 223.404C148.569 224.515 149.47 225.417 150.582 225.417Z" fill="#2F2F6D"/>
<path d="M159.349 208.596C161.491 208.797 162.919 209.262 162.919 209.262" stroke="white" stroke-width="1.5" stroke-miterlimit="10" stroke-linecap="round" stroke-linejoin="round"/>
<path d="M142.87 218.598C142.87 218.598 144.392 213.15 149.7 210.319C151.408 209.407 153.172 208.915 154.833 208.682" stroke="white" stroke-width="1.5" stroke-miterlimit="10" stroke-linecap="round" stroke-linejoin="round"/>
<path d="M151.558 255.285C146.937 261.862 151.153 272.412 161.949 274.928C172.745 277.443 180.537 273.465 182.241 271.111C182.241 271.111 184.838 271.03 186.949 268.757C189.059 266.484 189.059 264.78 189.059 264.78C189.059 264.78 191.168 263.076 191.98 260.559C192.792 258.043 192.223 255.283 191.087 254.471C189.951 253.659 186.553 257.565 176.72 256.095C166.412 254.554 157.888 246.276 151.558 255.285Z" fill="white" stroke="white" stroke-miterlimit="10"/>
<path d="M141.307 274.235C143.007 276.36 144.497 277.283 144.497 277.283" stroke="white" stroke-width="1.5" stroke-miterlimit="10" stroke-linecap="round" stroke-linejoin="round"/>
<path d="M140.518 247.9C140.518 247.9 135.162 255.206 136.949 264.459C137.388 266.733 138.067 268.663 138.841 270.282" stroke="white" stroke-width="1.5" stroke-miterlimit="10" stroke-linecap="round" stroke-linejoin="round"/>
</g>
</g>
<defs>
<clipPath id="clip0_1_6">
<rect width="500" height="500" fill="white" transform="translate(-83 -44.9652)"/>
</clipPath>
</defs>
</svg>
