<?xml version="1.0" encoding="utf-8"?>
<!-- Generator: Adobe Illustrator 27.5.0, SVG Export Plug-In . SVG Version: 6.00 Build 0)  -->
<svg version="1.1" xmlns="http://www.w3.org/2000/svg" xmlns:xlink="http://www.w3.org/1999/xlink" x="0px" y="0px"
	 viewBox="0 0 500 500" style="enable-background:new 0 0 500 500;" xml:space="preserve">
<g id="BACKGROUND">
	<g>
		<g>
			<path style="fill:#FFE6DE;" d="M26.014,249.072c0,0-3.332,15.636,2.307,28.965c5.639,13.329,17.174,24.095,17.174,24.095
				S51.39,280.344,26.014,249.072z"/>
			<path style="fill:#FFE6DE;" d="M26.014,297.774c0,0,11.791,0.256,17.943,6.664c6.152,6.408,9.228,10.766,9.228,10.766
				S39.343,321.869,26.014,297.774z"/>
			<path style="fill:#FFE6DE;" d="M18.324,320.331c0,0,12.816,0.256,27.171,5.126c14.354,4.87,24.607,12.304,24.607,12.304
				S42.931,346.989,18.324,320.331z"/>
			<path style="fill:#FFE6DE;" d="M43.444,353.653c0,0,9.74-4.101,25.12-4.101c15.379,0,22.557,5.383,22.557,5.383
				S67.795,367.495,43.444,353.653z"/>
			<path style="fill:#FFE6DE;" d="M63.181,382.362c0,0,14.098-8.715,32.297-9.228c18.199-0.513,26.658-0.769,26.658-0.769
				S99.067,395.434,63.181,382.362z"/>
			<path style="fill:#FFE6DE;" d="M119.829,397.997c0,0,5.896-7.69,15.636-12.047c9.74-4.357,16.661-4.87,16.661-4.87
				S143.924,399.792,119.829,397.997z"/>
			<path style="fill:#FFE6DE;" d="M54.466,284.702c0,0-4.87,7.434-3.589,16.405c1.282,8.971,2.307,14.098,2.307,14.098
				S65.488,304.182,54.466,284.702z"/>
			<path style="fill:#FFE6DE;" d="M70.102,337.761c0,0-6.664-13.329-6.664-32.553c0-19.225,4.87-27.94,4.87-27.94
				S79.33,316.742,70.102,337.761z"/>
			<path style="fill:#FFE6DE;" d="M91.121,354.935c0,0-8.459-13.073-8.715-27.683c-0.256-14.611,3.076-23.582,3.076-23.582
				S98.81,328.277,91.121,354.935z"/>
			<path style="fill:#FFE6DE;" d="M122.136,372.365c0,0-10.766-9.997-14.611-31.015c-3.845-21.019,1.538-28.196,1.538-28.196
				S125.725,342.375,122.136,372.365z"/>
			<path style="fill:#FFE6DE;" d="M152.126,381.08c0,0-12.304-4.101-16.405-18.199s-4.87-20.762-4.87-20.762
				S151.87,352.372,152.126,381.08z"/>
			<path style="opacity:0.6;fill:#FFE6DE;" d="M30.303,282.192c5.984,11.34,15.192,19.939,15.192,19.939s1.038-3.841,0.366-10.61
				C40.124,289.017,34.964,285.971,30.303,282.192z"/>
			<path style="opacity:0.6;fill:#FFE6DE;" d="M28.18,301.416c12.62,19.746,25.004,13.788,25.004,13.788s-0.779-1.103-2.334-3.012
				C42.613,310.183,35.005,306.81,28.18,301.416z"/>
			<path style="opacity:0.6;fill:#FFE6DE;" d="M27.544,328.68c21.711,16.16,42.558,9.081,42.558,9.081s-1.746-1.265-4.801-3.092
				C52.632,335.31,39.218,333.768,27.544,328.68z"/>
			<path style="opacity:0.6;fill:#FFE6DE;" d="M45.008,353.08c-1.021,0.346-1.564,0.573-1.564,0.573
				c24.351,13.841,47.677,1.282,47.677,1.282s-1.124-0.84-3.425-1.856C73.556,356.471,58.45,358.724,45.008,353.08z"/>
			<path style="opacity:0.6;fill:#FFE6DE;" d="M111.248,378.738c-5.093,2.087-10.653,2.964-16.068,3.805
				c-10.394,1.616-20.814,1.871-31.165,0.111c27.594,9.676,47.48-1.977,54.911-7.593
				C116.386,376.327,113.875,377.661,111.248,378.738z"/>
			<path style="opacity:0.6;fill:#FFE6DE;" d="M121.298,396.293c-0.96,1.042-1.469,1.705-1.469,1.705
				c20.461,1.524,29.458-11.735,31.707-15.77C142.551,389.2,132.555,395.031,121.298,396.293z"/>
			<path style="opacity:0.6;fill:#FFE6DE;" d="M52.705,312.621c0.3,1.684,0.479,2.584,0.479,2.584s0.805-0.724,1.817-2.12
				C54.23,312.94,53.465,312.786,52.705,312.621z"/>
			<path style="opacity:0.6;fill:#FFE6DE;" d="M71.255,334.209c-0.848,0.089-1.703,0.166-2.561,0.236
				c0.822,2.141,1.407,3.316,1.407,3.316c0.502-1.144,0.941-2.344,1.328-3.588C71.372,334.186,71.317,334.203,71.255,334.209z"/>
			<path style="opacity:0.6;fill:#FFE6DE;" d="M89.749,352.579c0.822,1.505,1.372,2.356,1.372,2.356
				c0.279-0.966,0.522-1.929,0.747-2.889C91.165,352.225,90.458,352.403,89.749,352.579z"/>
			<path style="fill:#3C3C3B;" d="M178.296,386.332c-9.677-1.395-19.242-3.234-28.615-5.664c0.084-0.141,0.132-0.31,0.097-0.51
				c-2.321-13.208-8.143-25.592-16.8-35.824c-0.157-0.186-0.486,0.063-0.34,0.262c7.874,10.697,13.137,22.697,15.698,35.719
				c-9.365-2.491-18.532-5.58-27.414-9.434c-1.916-17.651-5.391-35.384-10.619-52.336c-0.039-0.125-0.221-0.073-0.195,0.054
				c3.417,17.12,6.496,34.206,8.988,51.479c-7.094-3.176-14.002-6.845-20.678-11.094c-2.655-1.69-5.262-3.457-7.821-5.293
				c0-0.016,0.008-0.027,0.007-0.044c-0.569-14.681-1.685-29.993-4.922-44.354c-0.05-0.22-0.416-0.176-0.398,0.054
				c1.134,14.472,2.985,28.842,3.941,43.34c-6.482-4.752-12.62-9.973-18.25-15.71c0.103-0.106,0.177-0.247,0.18-0.437
				c0.14-9.069-1.091-18.191-1.891-27.213c-0.789-8.889-1.377-17.852-2.836-26.663c-0.017-0.099-0.173-0.074-0.173,0.023
				c0.127,17.724,3.779,35.375,3.565,53.089c-0.572-0.593-1.151-1.181-1.71-1.787c-5.233-5.674-9.774-11.796-13.84-18.237
				c0.039-0.178-0.027-0.385-0.248-0.458c-0.018-0.006-0.036-0.014-0.055-0.02c-0.02-0.031-0.038-0.064-0.057-0.095
				c0.201-0.034,0.39-0.15,0.481-0.388c3.411-8.939,1.089-19.111-0.109-28.292c-0.022-0.167-0.279-0.178-0.27,0
				c0.458,8.996,2.47,19.033-0.691,27.707c-2.91-4.732-5.586-9.621-8.089-14.636c-7.779-15.588-14.245-31.546-18.545-48.445
				c-0.045-0.179-0.306-0.102-0.274,0.076c2.785,15.191,9.345,29.465,15.414,43.57c2.944,6.843,6.257,13.432,10.054,19.728
				c-8.676-3.461-16.455-9.862-23.632-15.624c-0.093-0.074-0.222,0.046-0.134,0.134c3.684,3.71,8.266,6.311,12.458,9.388
				c3.785,2.778,7.573,5.405,11.928,7.126c3.267,5.315,6.889,10.418,10.948,15.279c1.355,1.623,2.753,3.199,4.17,4.754
				c-14.785-2.593-29.19-6.852-43.11-12.491c-0.028-0.012-0.049,0.036-0.021,0.049c14.105,6.706,29.03,11.251,44.421,13.829
				c5.896,6.3,12.307,12.015,19.133,17.169c-13.393,1.603-26.492,1.802-39.927-0.173c-0.209-0.031-0.307,0.28-0.09,0.326
				c13.508,2.851,27.862,3.44,41.497,0.971c9.046,6.662,18.817,12.327,29.116,17.009c-16.089,5.502-33.056,9.172-50.069,9.857
				c-0.164,0.007-0.166,0.261,0,0.257c17.845-0.396,35.143-3.129,51.949-9.283c3.069,1.352,6.176,2.633,9.331,3.81
				c5.934,2.215,11.999,4.152,18.148,5.797c-3.707,2.889-7.585,5.514-11.674,7.84c-3.578,2.036-10.168,6.586-14.369,6.011
				c-0.292-0.04-0.431,0.386-0.126,0.456c4.156,0.957,9.727-2.662,13.325-4.516c5.123-2.639,9.912-5.833,14.454-9.37
				c9.346,2.415,18.876,4.149,28.436,5.109C179.105,388.324,179.367,386.487,178.296,386.332z"/>
		</g>
		<g>
			<path style="fill:#FFE6DE;" d="M183.361,375.761c0,0-3.14-5.995-15.07-4.646c-11.93,1.349-23.173,10.875-29.882,1.412
				s0.587-11.081-5.548-16.285c-6.134-5.205-15.833-3.216-19.811-10.394c-3.978-7.178,2.909-12.505-0.182-20.312
				c-3.091-7.807-20.936-2.265-23.462-14.916c-2.526-12.651,6.791-13.924,4.093-25.565c-2.698-11.64-15.661-4.227-19.575-17.894
				c-3.913-13.667,8.361-14.988,2.701-25.022c-5.193-9.205,5.913-20.248-6.964-27.156c-7.992-4.288-25.141-7.16-34.823,7.749
				c-9.682,14.909-0.37,14.624-6.622,22.189c-6.252,7.565-8.737-3.973-18.677,9.42c-9.94,13.393,6.136,19.236,0.568,30.258
				c6.704,11.022,9.403-1.779,19.553,11.91c10.15,13.689-3.603,18.107,2.095,27.398c5.699,9.291,10.033-0.892,17.957,10.598
				C191.809,345.998,171.222,352.373,183.361,375.761z"/>
			<path style="opacity:0.6;fill:#FFE6DE;" d="M162.139,369.21c-9.053,0.439-17.837,0.707-21.489-9.182
				c-1.261-3.415-1.69-6.708-5.147-8.584c-3.355-1.82-7.167-2.58-10.413-4.663c-6.333-4.064-5.177-10.243-5.243-16.826
				c-0.079-7.879-4.949-10.113-11.786-11.512c-5-1.023-10.416-2.17-13.479-6.679c-7.785-11.46,11.315-29.65-5.114-36.717
				c-4.336-1.865-10.536-3.463-14.948-6.159c4.484,11.291,16.403,5.058,18.979,16.167c2.698,11.64-6.619,12.914-4.093,25.564
				c2.526,12.651,20.371,7.109,23.462,14.916c3.091,7.807-3.797,13.134,0.182,20.312c3.978,7.178,13.677,5.189,19.811,10.394
				c6.134,5.205-1.162,6.823,5.547,16.285c6.709,9.463,17.952-0.064,29.882-1.412c11.93-1.349,15.07,4.646,15.07,4.646
				c-1.052-2.026-1.853-3.922-2.453-5.707C174.776,368.971,168.376,368.907,162.139,369.21z"/>
			<path style="fill:#3C3C3B;" d="M189.709,379.135c-12.277-7.565-22.221-17.456-31.032-28.422
				c-0.141-5.964,0.249-11.759,2.361-17.41c0.079-0.211-0.239-0.361-0.318-0.149c-2.002,5.337-3.292,10.831-2.888,16.515
				c-5.45-6.881-10.472-14.167-15.351-21.561c-0.614-0.93-1.217-1.869-1.825-2.804c1.831-9.546,3.779-18.855,9.856-26.771
				c0.201-0.262-0.174-0.579-0.394-0.33c-6.319,7.148-8.695,16.779-10.149,26.046c-3.656-5.655-7.202-11.385-10.61-17.197
				c0.442-9.741,2.816-18.612,5.937-27.845c0.066-0.194-0.222-0.335-0.294-0.138c-3.126,8.541-6.701,17.711-6.237,26.964
				c-5.477-9.402-10.595-19.011-15.195-28.868c0.109-0.146,0.111-0.37-0.104-0.455c-0.042-0.017-0.085-0.032-0.127-0.049
				c-0.027-0.058-0.053-0.117-0.08-0.176c0.002-0.007,0.006-0.011,0.007-0.018c0.824-4.568,4.098-8.023,6.685-11.708
				c2.113-3.01,4.08-6.121,5.994-9.26c0.118-0.195-0.213-0.408-0.339-0.216c-2.638,3.997-5.413,7.898-8.286,11.73
				c-1.971,2.628-3.884,5.12-4.592,8.302c-1.529-3.33-3.013-6.682-4.419-10.068c-2.086-5.023-4.043-10.088-5.856-15.2
				c0.68-5.694,5.078-9.692,7.644-14.671c0.052-0.102-0.104-0.172-0.159-0.075c-2.523,4.487-6.829,8.281-7.979,13.329
				c-2.478-7.112-4.668-14.318-6.468-21.659c-0.018-0.074-0.147-0.044-0.131,0.031c1.716,7.945,3.881,15.747,6.409,23.422
				c-0.069,0.051-0.011,0.008-0.079,0.059c-1.989-1.38-3.978-2.759-5.967-4.139c-0.1-0.069-0.222,0.077-0.122,0.145l6.083,4.173
				c-0.011,0.252-0.029,0.501-0.023,0.759c0.007,0.31,0.319,0.367,0.524,0.236c2.776,8.28,5.994,16.405,9.555,24.389
				c-7.358-2.819-14.884-5.062-22.578-6.795c-0.153-0.034-0.192,0.204-0.041,0.24c7.845,1.867,15.49,4.345,22.97,7.341
				c2.778,6.181,5.757,12.281,8.927,18.292c1.599,3.031,3.225,6.067,4.877,9.1c-8.091-3.26-16.51-5.483-25.121-6.92
				c-0.197-0.033-0.249,0.271-0.052,0.306c8.793,1.601,17.286,4.177,25.604,7.403c3.766,6.891,7.688,13.758,11.828,20.486
				c-6.572-1.37-13.235-1.603-19.957-1.132c-0.269,0.019-0.227,0.434,0.042,0.417c6.928-0.427,13.707,0.268,20.465,1.603
				c5.569,8.991,11.535,17.723,18.062,25.918c-5.701-1.582-11.537-2.237-17.452-2.093c-0.209,0.005-0.175,0.325,0.032,0.323
				c6.174-0.065,12.068,0.822,17.991,2.523c0.015,0.004,0.026,0.001,0.04,0.003c0.781,0.972,1.565,1.941,2.363,2.896
				c8.244,9.879,17.69,18.981,28.948,25.359C190.054,382.089,190.999,379.93,189.709,379.135z"/>
		</g>
		<g>
			<path style="fill:#FFEBB7;" d="M47.916,430.594c0,0,14.361-34.28,52.53-44.191c38.168-9.911,57.96,2.549,59.697,18.173
				c1.736,15.623-26.639,31.082-48.418,28.406C89.946,430.305,59.946,423.239,47.916,430.594z"/>
			<path style="opacity:0.6;fill:#FFEBB7;" d="M142.241,419.996c-8.71,5.041-18.298,8.769-28.169,10.76
				c-3.406,0.687-6.816,1.024-10.228,1.143c2.71,0.4,5.352,0.771,7.881,1.082c21.779,2.677,50.154-12.782,48.418-28.406
				c-0.001-0.009-0.003-0.017-0.004-0.026C154.678,410.28,149.365,415.874,142.241,419.996z"/>
			<path style="fill:#3C3C3B;" d="M166.84,402.321c-5.571-0.645-11.256-0.92-16.978-0.923c-0.004-0.208-0.113-0.417-0.366-0.507
				c-6.281-2.233-10.695-9.134-14.398-14.312c-0.224-0.314-0.718-0.04-0.525,0.308c2.901,5.234,7.27,12.111,13.165,14.513
				c-6.169,0.072-12.374,0.462-18.526,1.096c-6.56-4.157-11.696-9.408-16.104-15.794c-0.162-0.235-0.52-0.031-0.385,0.226
				c3.47,6.608,8.757,11.899,15.111,15.714c-6.483,0.707-12.9,1.669-19.143,2.802c-1.1,0.2-2.206,0.409-3.315,0.626
				c-0.045-0.046-0.089-0.093-0.157-0.128c-6.557-3.445-12.075-8.009-16.798-13.685c-0.044-0.053-0.132,0.018-0.095,0.074
				c3.835,5.947,9.032,10.707,15.183,14.118c-6.971,1.424-14.073,3.204-21.034,5.453c-0.001-0.001-0.002-0.002-0.003-0.003
				c-4.165-2.318-7.945-4.921-11.783-7.739c-0.057-0.042-0.118,0.049-0.072,0.096c3.079,3.192,6.939,5.903,10.88,7.968
				c-4.642,1.532-9.215,3.269-13.635,5.253c-2.717-0.518-5.287-1.449-7.802-2.612c-0.15-0.069-0.264,0.133-0.126,0.224
				c2.117,1.397,4.479,2.293,6.937,2.836c-4.87,2.238-9.55,4.766-13.915,7.648c-0.066,0.044-0.009,0.139,0.062,0.105
				c4.858-2.356,9.675-4.719,14.577-6.891c-2.27,1.79-4.306,3.839-6.134,6.097c-0.054,0.066,0.039,0.161,0.097,0.094
				c2.275-2.634,4.833-4.883,7.657-6.902c3.692-1.594,7.438-3.07,11.301-4.326c0.16-0.052,0.322-0.099,0.483-0.15
				c-2.878,3.089-5.131,7.456-5.865,11.418c-0.012,0.065,0.077,0.109,0.112,0.045c2.271-4.184,3.641-8.578,7.171-11.905
				c6.406-1.99,12.94-3.553,19.534-4.784c-2.467,1.676-4.537,3.75-6.201,6.29c-1.017,1.552-1.859,3.212-2.53,4.942
				c-0.836,2.156-1.029,5.129-2.559,6.9c-0.084,0.098,0.054,0.236,0.145,0.141c2.115-2.179,2.363-5.821,3.667-8.483
				c2.069-4.225,5.162-7.632,9.245-9.971c0.076-0.043,0.119-0.101,0.149-0.163c1.757-0.31,3.517-0.604,5.28-0.869
				c5.603-0.843,11.231-1.427,16.876-1.801c-2.856,2.259-5.455,4.805-7.724,7.695c-3.318,4.227-5.269,9.317-8.613,13.507
				c-0.149,0.187,0.111,0.451,0.271,0.264c2.927-3.415,4.827-7.46,7.429-11.103c2.917-4.083,6.471-7.56,10.512-10.481
				c3.41-0.197,6.826-0.322,10.246-0.372c2.897-0.043,5.791-0.005,8.683,0.062c-6.003,4.945-9.974,11.509-15.574,16.899
				c-0.232,0.224,0.123,0.567,0.359,0.349c5.97-5.543,10.4-12.198,16.887-17.208c6.116,0.167,12.225,0.447,18.343,0.446
				C168.892,405.417,168.765,402.544,166.84,402.321z"/>
		</g>
	</g>
	<g>
		<g>
			<path style="fill:#FFE6DE;" d="M470.78,253.046c0,0,3.332,15.636-2.307,28.965c-5.639,13.329-17.174,24.095-17.174,24.095
				S445.403,284.318,470.78,253.046z"/>
			<path style="fill:#FFE6DE;" d="M470.78,301.748c0,0-11.791,0.256-17.943,6.665c-6.152,6.408-9.228,10.766-9.228,10.766
				S457.451,325.843,470.78,301.748z"/>
			<path style="fill:#FFE6DE;" d="M478.469,324.305c0,0-12.816,0.256-27.171,5.127c-14.354,4.87-24.607,12.304-24.607,12.304
				S453.862,350.963,478.469,324.305z"/>
			<path style="fill:#FFE6DE;" d="M453.349,357.627c0,0-9.74-4.101-25.12-4.101c-15.379,0-22.557,5.383-22.557,5.383
				S428.999,371.469,453.349,357.627z"/>
			<path style="fill:#FFE6DE;" d="M433.612,386.336c0,0-14.098-8.715-32.297-9.228c-18.199-0.513-26.658-0.769-26.658-0.769
				S397.727,399.408,433.612,386.336z"/>
			<path style="fill:#FFE6DE;" d="M376.964,401.971c0,0-5.895-7.69-15.636-12.047c-9.74-4.358-16.661-4.87-16.661-4.87
				S352.87,403.766,376.964,401.971z"/>
			<path style="fill:#FFE6DE;" d="M442.327,288.675c0,0,4.87,7.433,3.589,16.405c-1.282,8.971-2.307,14.098-2.307,14.098
				S431.305,308.156,442.327,288.675z"/>
			<path style="fill:#FFE6DE;" d="M426.692,341.735c0,0,6.664-13.329,6.664-32.553c0-19.224-4.87-27.939-4.87-27.939
				S417.464,320.716,426.692,341.735z"/>
			<path style="fill:#FFE6DE;" d="M405.673,358.909c0,0,8.459-13.073,8.715-27.683c0.256-14.611-3.076-23.582-3.076-23.582
				S397.983,332.251,405.673,358.909z"/>
			<path style="fill:#FFE6DE;" d="M374.658,376.339c0,0,10.766-9.997,14.611-31.015s-1.538-28.196-1.538-28.196
				S371.069,346.349,374.658,376.339z"/>
			<path style="fill:#FFE6DE;" d="M344.667,385.054c0,0,12.304-4.101,16.405-18.199s4.87-20.762,4.87-20.762
				S344.924,356.345,344.667,385.054z"/>
			<path style="opacity:0.6;fill:#FFE6DE;" d="M466.491,286.166c-5.984,11.34-15.192,19.939-15.192,19.939s-1.038-3.841-0.367-10.61
				C456.669,292.991,461.829,289.945,466.491,286.166z"/>
			<path style="opacity:0.6;fill:#FFE6DE;" d="M468.614,305.39c-12.62,19.746-25.004,13.788-25.004,13.788s0.779-1.103,2.334-3.012
				C454.181,314.156,461.789,310.784,468.614,305.39z"/>
			<path style="opacity:0.6;fill:#FFE6DE;" d="M469.25,332.654c-21.711,16.16-42.558,9.081-42.558,9.081s1.747-1.265,4.801-3.092
				C444.161,339.284,457.575,337.742,469.25,332.654z"/>
			<path style="opacity:0.6;fill:#FFE6DE;" d="M451.786,357.053c1.021,0.346,1.564,0.573,1.564,0.573
				c-24.351,13.842-47.677,1.282-47.677,1.282s1.124-0.84,3.424-1.856C423.238,360.445,438.344,362.698,451.786,357.053z"/>
			<path style="opacity:0.6;fill:#FFE6DE;" d="M385.546,382.711c5.093,2.087,10.653,2.964,16.068,3.805
				c10.394,1.616,20.814,1.871,31.165,0.111c-27.594,9.676-47.48-1.977-54.911-7.593C380.408,380.3,382.918,381.635,385.546,382.711
				z"/>
			<path style="opacity:0.6;fill:#FFE6DE;" d="M375.495,400.266c0.96,1.042,1.469,1.705,1.469,1.705
				c-20.461,1.524-29.458-11.735-31.707-15.77C354.243,393.174,364.239,399.005,375.495,400.266z"/>
			<path style="opacity:0.6;fill:#FFE6DE;" d="M444.088,316.594c-0.3,1.684-0.479,2.584-0.479,2.584s-0.804-0.724-1.816-2.12
				C442.563,316.914,443.328,316.76,444.088,316.594z"/>
			<path style="opacity:0.6;fill:#FFE6DE;" d="M425.538,338.183c0.848,0.089,1.703,0.166,2.561,0.236
				c-0.822,2.141-1.407,3.316-1.407,3.316c-0.502-1.144-0.941-2.344-1.328-3.588C425.421,338.159,425.476,338.176,425.538,338.183z"
				/>
			<path style="opacity:0.6;fill:#FFE6DE;" d="M407.045,356.553c-0.822,1.504-1.372,2.356-1.372,2.356
				c-0.279-0.967-0.522-1.929-0.747-2.889C405.629,356.199,406.336,356.377,407.045,356.553z"/>
			<path style="fill:#3C3C3B;" d="M318.498,390.306c9.677-1.395,19.242-3.234,28.615-5.664c-0.084-0.141-0.132-0.31-0.097-0.509
				c2.321-13.209,8.143-25.592,16.8-35.824c0.156-0.185,0.486,0.064,0.34,0.262c-7.874,10.697-13.138,22.697-15.698,35.719
				c9.365-2.49,18.532-5.58,27.414-9.434c1.916-17.651,5.391-35.384,10.619-52.336c0.039-0.126,0.221-0.073,0.195,0.054
				c-3.417,17.12-6.496,34.206-8.988,51.479c7.094-3.176,14.002-6.845,20.679-11.094c2.655-1.69,5.262-3.457,7.821-5.293
				c0-0.016-0.008-0.027-0.007-0.044c0.569-14.682,1.685-29.993,4.922-44.354c0.05-0.22,0.416-0.177,0.398,0.054
				c-1.134,14.472-2.985,28.842-3.941,43.34c6.482-4.752,12.62-9.973,18.25-15.71c-0.103-0.106-0.177-0.247-0.18-0.437
				c-0.14-9.069,1.091-18.191,1.891-27.213c0.789-8.889,1.377-17.853,2.836-26.663c0.017-0.099,0.173-0.074,0.173,0.023
				c-0.128,17.724-3.779,35.375-3.565,53.089c0.572-0.593,1.151-1.18,1.71-1.786c5.233-5.675,9.774-11.796,13.84-18.237
				c-0.039-0.178,0.027-0.385,0.248-0.459c0.018-0.006,0.036-0.014,0.055-0.02c0.02-0.031,0.038-0.063,0.057-0.095
				c-0.201-0.034-0.391-0.15-0.481-0.387c-3.411-8.939-1.089-19.111,0.109-28.292c0.022-0.167,0.28-0.178,0.27,0
				c-0.458,8.996-2.47,19.033,0.691,27.708c2.91-4.732,5.587-9.621,8.09-14.637c7.779-15.588,14.245-31.546,18.545-48.445
				c0.045-0.179,0.306-0.102,0.274,0.076c-2.785,15.191-9.345,29.465-15.414,43.57c-2.944,6.843-6.257,13.432-10.054,19.728
				c8.676-3.461,16.455-9.862,23.633-15.624c0.093-0.074,0.222,0.045,0.134,0.134c-3.684,3.71-8.266,6.311-12.458,9.388
				c-3.785,2.778-7.573,5.405-11.928,7.126c-3.267,5.315-6.889,10.418-10.948,15.279c-1.355,1.623-2.753,3.2-4.17,4.754
				c14.785-2.593,29.19-6.852,43.11-12.491c0.028-0.012,0.048,0.036,0.021,0.049c-14.105,6.706-29.03,11.251-44.421,13.83
				c-5.896,6.3-12.307,12.015-19.133,17.169c13.393,1.603,26.492,1.801,39.927-0.173c0.21-0.031,0.307,0.28,0.09,0.326
				c-13.508,2.851-27.862,3.44-41.497,0.971c-9.046,6.662-18.817,12.327-29.116,17.009c16.089,5.502,33.056,9.172,50.07,9.857
				c0.164,0.007,0.166,0.261,0,0.257c-17.845-0.396-35.143-3.129-51.949-9.283c-3.069,1.352-6.176,2.632-9.331,3.81
				c-5.934,2.215-11.998,4.152-18.147,5.797c3.707,2.889,7.585,5.513,11.674,7.84c3.578,2.036,10.168,6.586,14.369,6.011
				c0.292-0.04,0.431,0.386,0.126,0.456c-4.156,0.957-9.727-2.663-13.325-4.516c-5.123-2.639-9.912-5.833-14.454-9.37
				c-9.346,2.415-18.876,4.149-28.436,5.109C179.105,388.324,179.367,386.487,178.296,386.332z"/>
		</g>
		<g>
			<path style="fill:#FFE6DE;" d="M313.433,379.735c0,0,3.14-5.995,15.07-4.646c11.93,1.349,23.173,10.875,29.882,1.412
				c6.709-9.463-0.587-11.081,5.547-16.285c6.134-5.205,15.833-3.216,19.811-10.394c3.978-7.178-2.909-12.505,0.182-20.312
				c3.091-7.807,20.936-2.265,23.462-14.915c2.526-12.651-6.791-13.924-4.093-25.565c2.698-11.64,15.661-4.227,19.574-17.894
				c3.913-13.667-8.361-14.988-2.7-25.022c5.193-9.205,5.913-20.248-6.964-27.156c-7.992-4.288-25.141-7.16-34.823,7.749
				c-9.682,14.909-0.37,14.624-6.622,22.189c-6.252,7.565-8.737-3.973-18.677,9.42c-9.94,13.393,6.136,19.237-0.568,30.259
				s-9.404-1.779-19.553,11.91c-10.15,13.689,3.603,18.108-2.095,27.398c-5.698,9.291-10.032-0.892-17.957,10.598
				C304.985,349.972,325.571,356.347,313.433,379.735z"/>
			<path style="opacity:0.6;fill:#FFE6DE;" d="M334.654,373.184c9.053,0.44,17.837,0.707,21.489-9.182
				c1.261-3.415,1.69-6.708,5.147-8.584c3.354-1.82,7.166-2.58,10.413-4.663c6.333-4.064,5.177-10.244,5.243-16.826
				c0.079-7.879,4.948-10.113,11.786-11.512c5-1.023,10.416-2.17,13.479-6.679c7.785-11.461-11.315-29.65,5.114-36.717
				c4.336-1.865,10.536-3.463,14.948-6.159c-4.484,11.291-16.404,5.058-18.979,16.168c-2.698,11.64,6.619,12.914,4.093,25.564
				c-2.526,12.651-20.371,7.109-23.462,14.915c-3.091,7.807,3.797,13.134-0.182,20.312c-3.978,7.178-13.677,5.189-19.811,10.394
				c-6.134,5.205,1.162,6.823-5.547,16.285c-6.709,9.463-17.952-0.064-29.882-1.412c-11.93-1.349-15.07,4.646-15.07,4.646
				c1.052-2.026,1.853-3.922,2.453-5.707C322.017,372.945,328.417,372.881,334.654,373.184z"/>
			<path style="fill:#3C3C3B;" d="M307.085,383.109c12.277-7.565,22.221-17.456,31.032-28.422c0.141-5.964-0.249-11.759-2.361-17.41
				c-0.079-0.211,0.239-0.361,0.318-0.149c2.002,5.337,3.292,10.831,2.888,16.515c5.45-6.881,10.472-14.167,15.351-21.561
				c0.614-0.93,1.217-1.869,1.825-2.803c-1.831-9.546-3.779-18.855-9.856-26.771c-0.201-0.262,0.174-0.579,0.394-0.33
				c6.319,7.148,8.695,16.779,10.149,26.046c3.656-5.655,7.202-11.385,10.61-17.197c-0.442-9.741-2.815-18.612-5.937-27.845
				c-0.066-0.195,0.222-0.335,0.294-0.138c3.126,8.541,6.701,17.711,6.237,26.964c5.477-9.402,10.595-19.011,15.195-28.868
				c-0.109-0.146-0.111-0.37,0.104-0.455c0.042-0.017,0.085-0.032,0.127-0.049c0.027-0.058,0.053-0.117,0.08-0.176
				c-0.001-0.007-0.006-0.011-0.007-0.018c-0.824-4.568-4.098-8.023-6.685-11.708c-2.113-3.01-4.08-6.121-5.994-9.26
				c-0.118-0.195,0.213-0.408,0.339-0.216c2.638,3.997,5.413,7.898,8.286,11.729c1.97,2.628,3.884,5.12,4.592,8.302
				c1.529-3.33,3.012-6.682,4.419-10.068c2.086-5.023,4.043-10.088,5.856-15.2c-0.68-5.694-5.078-9.692-7.644-14.671
				c-0.052-0.102,0.104-0.172,0.159-0.075c2.523,4.487,6.829,8.281,7.979,13.329c2.478-7.112,4.668-14.318,6.468-21.659
				c0.018-0.074,0.147-0.044,0.131,0.031c-1.716,7.945-3.881,15.747-6.409,23.422c0.069,0.051,0.01,0.008,0.079,0.059
				c1.989-1.38,3.978-2.759,5.967-4.139c0.1-0.069,0.222,0.077,0.122,0.145l-6.083,4.173c0.011,0.252,0.029,0.501,0.023,0.759
				c-0.007,0.31-0.319,0.367-0.525,0.236c-2.776,8.28-5.994,16.405-9.555,24.389c7.358-2.819,14.884-5.062,22.578-6.795
				c0.153-0.035,0.192,0.204,0.041,0.24c-7.845,1.867-15.49,4.345-22.97,7.341c-2.778,6.181-5.757,12.281-8.927,18.292
				c-1.599,3.031-3.225,6.067-4.877,9.1c8.092-3.26,16.51-5.483,25.121-6.92c0.197-0.033,0.249,0.271,0.052,0.306
				c-8.794,1.601-17.286,4.177-25.604,7.403c-3.766,6.891-7.688,13.757-11.828,20.485c6.572-1.37,13.235-1.603,19.957-1.132
				c0.269,0.019,0.227,0.434-0.042,0.417c-6.928-0.427-13.707,0.268-20.465,1.603c-5.569,8.991-11.535,17.724-18.062,25.918
				c5.701-1.582,11.537-2.237,17.452-2.093c0.209,0.005,0.175,0.325-0.032,0.323c-6.174-0.065-12.069,0.822-17.991,2.523
				c-0.015,0.004-0.026,0.001-0.04,0.003c-0.781,0.972-1.565,1.941-2.363,2.896c-8.244,9.879-17.69,18.981-28.948,25.359
				C306.739,386.062,305.794,383.904,307.085,383.109z"/>
		</g>
		<g>
			<path style="fill:#FFEBB7;" d="M448.878,434.568c0,0-14.361-34.28-52.53-44.191s-57.96,2.549-59.697,18.173
				c-1.737,15.624,26.639,31.082,48.418,28.406S436.847,427.213,448.878,434.568z"/>
			<path style="opacity:0.6;fill:#FFEBB7;" d="M354.553,423.97c8.711,5.041,18.298,8.769,28.169,10.76
				c3.406,0.687,6.816,1.024,10.228,1.143c-2.71,0.4-5.352,0.771-7.881,1.082c-21.779,2.676-50.154-12.782-48.418-28.406
				c0.001-0.009,0.003-0.017,0.004-0.026C342.116,414.254,347.429,419.848,354.553,423.97z"/>
			<path style="fill:#3C3C3B;" d="M329.954,406.295c5.571-0.645,11.256-0.92,16.978-0.923c0.004-0.208,0.113-0.417,0.366-0.507
				c6.281-2.233,10.695-9.134,14.398-14.312c0.224-0.314,0.718-0.04,0.525,0.308c-2.902,5.234-7.27,12.111-13.165,14.512
				c6.169,0.072,12.374,0.462,18.526,1.096c6.56-4.157,11.696-9.409,16.105-15.794c0.162-0.235,0.52-0.031,0.385,0.226
				c-3.47,6.608-8.757,11.899-15.111,15.714c6.483,0.707,12.9,1.669,19.143,2.802c1.1,0.2,2.206,0.409,3.315,0.626
				c0.045-0.046,0.089-0.092,0.157-0.128c6.557-3.445,12.075-8.009,16.798-13.685c0.044-0.052,0.132,0.018,0.095,0.074
				c-3.835,5.947-9.032,10.707-15.183,14.118c6.971,1.424,14.073,3.204,21.034,5.453c0.001-0.001,0.002-0.002,0.003-0.003
				c4.165-2.318,7.945-4.921,11.783-7.739c0.057-0.042,0.118,0.049,0.072,0.096c-3.078,3.192-6.939,5.903-10.88,7.968
				c4.642,1.532,9.215,3.269,13.635,5.253c2.717-0.518,5.287-1.448,7.802-2.612c0.15-0.07,0.264,0.132,0.126,0.224
				c-2.117,1.397-4.479,2.293-6.937,2.836c4.87,2.238,9.55,4.766,13.915,7.648c0.066,0.044,0.009,0.139-0.061,0.105
				c-4.858-2.356-9.675-4.719-14.577-6.891c2.27,1.79,4.306,3.839,6.134,6.098c0.054,0.066-0.039,0.161-0.097,0.094
				c-2.275-2.634-4.833-4.884-7.657-6.902c-3.692-1.594-7.438-3.07-11.301-4.327c-0.16-0.052-0.322-0.099-0.483-0.15
				c2.878,3.089,5.131,7.456,5.865,11.418c0.012,0.065-0.077,0.109-0.112,0.045c-2.271-4.184-3.641-8.578-7.171-11.905
				c-6.406-1.99-12.94-3.553-19.534-4.783c2.467,1.676,4.537,3.75,6.201,6.29c1.017,1.552,1.859,3.212,2.53,4.942
				c0.836,2.156,1.03,5.129,2.559,6.9c0.085,0.098-0.053,0.236-0.145,0.141c-2.115-2.179-2.363-5.821-3.667-8.483
				c-2.069-4.225-5.162-7.632-9.245-9.971c-0.076-0.043-0.119-0.101-0.15-0.163c-1.757-0.31-3.517-0.604-5.28-0.87
				c-5.603-0.843-11.231-1.427-16.876-1.801c2.856,2.258,5.456,4.805,7.724,7.695c3.318,4.228,5.269,9.317,8.613,13.507
				c0.149,0.187-0.111,0.451-0.271,0.264c-2.927-3.415-4.827-7.461-7.429-11.103c-2.918-4.083-6.471-7.559-10.512-10.481
				c-3.41-0.197-6.826-0.322-10.246-0.372c-2.897-0.043-5.791-0.005-8.683,0.062c6.003,4.945,9.973,11.509,15.574,16.899
				c0.232,0.224-0.123,0.567-0.359,0.349c-5.97-5.543-10.4-12.198-16.887-17.208c-6.116,0.167-12.225,0.447-18.343,0.447
				C327.902,409.391,328.029,406.518,329.954,406.295z"/>
		</g>
	</g>
</g>
<g id="OBJECTS">
	<g>
		<g>
			<path style="fill:#D7242E;" d="M338.26,106.853c0,0-24.324-4.21-16.84-13.565c7.484-9.355,14.501,3.274,14.501,3.274
				s-3.742-17.775,5.146-15.904C349.954,82.528,343.405,101.707,338.26,106.853z"/>
			<path style="opacity:0.6;fill:#D7242E;" d="M341.066,80.657c-0.595-0.125-1.13-0.156-1.616-0.117
				c0.643,8.862,0.005,17.854-4.485,25.603c1.95,0.474,3.294,0.709,3.294,0.709C343.405,101.707,349.954,82.528,341.066,80.657z"/>
		</g>
		<g>
			<path style="fill:#D7242E;" d="M90.775,135.149c0,0-24.462,3.32-20.146-7.857c4.315-11.177,14.813-1.25,14.813-1.25
				s-8.927-15.82,0.111-16.716C94.591,108.43,94.13,128.691,90.775,135.149z"/>
			<path style="opacity:0.6;fill:#D7242E;" d="M85.553,109.326c-0.605,0.06-1.124,0.192-1.576,0.376
				c3.285,8.256,5.388,17.022,3.443,25.764c2.002-0.136,3.355-0.317,3.355-0.317C94.13,128.691,94.591,108.43,85.553,109.326z"/>
		</g>
		<g>
			<path style="fill:#D7242E;" d="M369.601,91.884c0,0-15.904-29.47-3.274-35.551c12.63-6.081,14.033,13.098,14.033,13.098
				s11.694-13.098,19.179-3.274C407.023,75.979,381.295,88.142,369.601,91.884z"/>
			<path style="opacity:0.6;fill:#D7242E;" d="M367.535,87.666c1.182,2.574,2.066,4.217,2.066,4.217
				c11.233-3.594,35.396-14.956,30.654-24.553C391.746,77.515,380.869,85.767,367.535,87.666z"/>
		</g>
		<g>
			<path style="fill:#D7242E;" d="M134.806,115.992c0,0-12.511-8.256-8.818-13.328c3.694-5.072,8.307,2.195,8.307,2.195
				s1.839-7.641,6.871-5.352C146.198,101.797,138.626,112.04,134.806,115.992z"/>
			<path style="opacity:0.6;fill:#D7242E;" d="M133.099,114.766c1.011,0.765,1.708,1.226,1.708,1.226
				c3.669-3.795,10.793-13.392,6.892-16.173C140.498,105.637,137.956,111.194,133.099,114.766z"/>
		</g>
		<g>
			<path style="fill:#D7242E;" d="M356.035,149.888c0,0-28.534-13.098-19.646-26.663c8.888-13.565,20.114,4.678,20.114,4.678
				s4.678-23.389,16.84-15.904C385.505,119.482,356.035,149.888,356.035,149.888z"/>
			<path style="opacity:0.6;fill:#D7242E;" d="M373.507,112.122c-4.215,13.63-10.257,26.919-22.003,35.385
				c2.645,1.512,4.531,2.38,4.531,2.38S385.193,119.797,373.507,112.122z"/>
		</g>
		<g>
			<path style="fill:#D7242E;" d="M142.297,178.147c0,0-22.298,2.134-21.671-9.419c0.627-11.553,14.087-4.315,14.087-4.315
				s-5.488-16.108,4.697-15.844C149.595,148.832,142.297,178.147,142.297,178.147z"/>
			<path style="opacity:0.6;fill:#D7242E;" d="M139.556,148.586c2.279,9.92,3.309,20.284-0.908,29.714
				c2.174-0.014,3.648-0.153,3.648-0.153S149.515,149.139,139.556,148.586z"/>
		</g>
	</g>
	<g>
		<g>
			<path style="fill:#FECC4C;" d="M212.95,276.941c0,0,8.647,8.769,18.328,9.706c9.681,0.937,14.053-0.937,19.674-3.435
				c5.621-2.498,11.963-8.635,11.963-8.635l-0.461-2.042c0,0,7.235-0.878,16.604,1.308c9.368,2.186,17.488,5.933,17.488,5.933
				s6.87,16.551,9.681,20.61c2.81,4.06,7.182,9.993,10.305,9.368c3.123-0.625,5.933-3.747,5.933-3.747s5.933,14.365,11.867,52.775
				c5.933,38.41,13.74,51.214-6.246,60.27c-19.986,9.056-35.288,15.926-52.463,17.8c-17.175,1.874-22.898,0.079-22.898,0.079
				s2.912-7.261,1.975-12.882c-0.937-5.621-2.933-8.68-2.933-8.68s2.35-1.034,5.821-2.558c4.669-2.051,11.366-4.991,17.098-7.498
				c9.993-4.372,21.859-8.119,24.045-12.491c2.186-4.372,5.309-16.238,3.435-28.105c-1.874-11.867-3.024-14.532-3.024-14.532
				s-5.095-1.082-11.34-1.082c-6.246,0-11.242,3.123-17.175,2.498c-5.933-0.624-13.428-1.874-17.488-7.182
				c-4.06-5.309-10.617-15.302-13.428-21.86c-2.811-6.558-4.665-9.969-4.665-9.969l-5.016,11.218c0,0-4.372-4.06-8.432-2.186
				c-4.06,1.874-10.305,9.993-10.305,9.993l-1.816,3.886l-6.204-6.728c0,0-2.285,15.957,1.463,28.136
				c3.747,12.179,8.432,26.856,8.432,26.856s-6.568,0.756-7.343,6.311c-0.776,5.555,3.105,8.624,3.105,8.624l47.646,1.928
				c0,0-1.249,5.309-0.625,8.119c0.625,2.81,3.123,6.558,3.123,6.558l-11.554,0.937l-6.558-0.625c0,0-2.186-8.119-5.933-10.305
				c-3.747-2.186-5.309-2.498-6.558-0.937c-1.249,1.561,2.811,7.182,2.811,7.182l3.435,4.684l-22.796,0.625l-3.185,3.57
				l-0.562,4.549l-0.624,6.87l2.594,2.451l2.715,5.043c0,0-10.305,4.996-29.042,3.747c-18.737-1.249-32.165,1.561-32.789-24.358
				c-0.625-25.919,0.625-82.442,21.235-114.919S212.95,276.941,212.95,276.941z"/>
			<path style="opacity:0.6;fill:#FECC4C;" d="M298.216,340.518c-1.297-9.618-2.483-19.639-6.668-28.425
				c1.243,12.649,4.836,25.011,5.541,37.734c1.288,0.198,2.051,0.359,2.051,0.359s0.174,0.406,0.496,1.592
				C299.203,348.038,298.725,344.29,298.216,340.518z"/>
			<path style="opacity:0.6;fill:#FECC4C;" d="M151.775,426.782c3.131,17.258,15.517,15.216,32.036,16.317
				c18.737,1.249,29.042-3.747,29.042-3.747l-2.337-4.341C190.529,434.886,170.568,433.782,151.775,426.782z"/>
			<path style="opacity:0.6;fill:#FECC4C;" d="M192.493,374.23c0.665-8.905,1.37-17.813,2.471-26.677
				c1.029-8.291,2.757-16.123,5.434-24.044c1.02-3.019,2.066-6.023,3.039-9.044c-1.602,3.082-3.166,6.183-4.585,9.354
				c-3.458,7.729-5.704,15.981-7.465,24.245c-3.396,15.935-4.601,32.247-4.71,48.515c1.302,0.158,2.605,0.299,3.91,0.43
				C190.475,389.441,191.932,381.751,192.493,374.23z"/>
			<path style="opacity:0.6;fill:#FECC4C;" d="M301.397,384.541c-0.367,1.676-0.78,3.207-1.205,4.533
				c2.67-1.029,5.383-1.903,8.098-2.654C305.945,385.976,303.646,385.366,301.397,384.541z"/>
			<path style="opacity:0.6;fill:#FECC4C;" d="M334.329,358.784c-5.933-38.41-11.867-52.775-11.867-52.775s-0.876,0.972-2.192,1.94
				c3.496,16.669,7.878,33.153,10.824,49.936c2.014,11.474,4.847,24.365,3.174,36.03c-1.582,11.032-9.332,17.922-19.112,22.312
				c-10.765,4.831-22.854,7.794-34.378,10.125c-7.069,1.43-14.078,2.399-21.243,3.17c-1.657,0.178-3.31,0.386-4.968,0.553
				c-0.598,3.734-1.846,6.859-1.846,6.859s5.723,1.795,22.898-0.079c17.176-1.874,32.477-8.744,52.463-17.8
				C348.07,409.997,340.263,397.194,334.329,358.784z"/>
		</g>
		<path style="fill:#3C3C3B;" d="M296.325,191.471c-0.071-0.513-0.289-1.048-0.42-1.554c-0.137-0.526-0.317-1.023-0.527-1.525
			c-0.163-0.39-0.705-0.345-0.744,0.101c-0.095,1.092-0.118,2.35,0.071,3.425c0.08,0.45,0.624,0.694,1.033,0.586
			C296.224,192.376,296.386,191.918,296.325,191.471z"/>
		<path style="fill:#3C3C3B;" d="M335.715,193.481c-0.103-0.494-0.119-1.007-0.101-1.51c0.012-0.356,0.099-0.754-0.069-1.066
			c0.001-0.018,0.001-0.035,0.002-0.053c0.011-0.332-0.447-0.536-0.675-0.279c-0.016,0.018-0.031,0.035-0.047,0.053
			c-0.46,0.176-0.657,0.768-0.764,1.232c-0.162,0.705-0.133,1.372,0.003,2.079C334.27,195.013,335.94,194.562,335.715,193.481z"/>
		<g>
			<path style="fill:#3C3C3B;" d="M242.505,386.91c-6.615-3.038-14.634-2.839-21.609-1.445c-0.612,0.123-0.483,1.153,0.149,1.1
				c7.803-0.655,21.514-0.366,25.855,7.247c-1.345-0.383-2.653-0.886-4.061-1.088c-1.544-0.222-3.071-0.22-4.611,0.027
				c-0.512,0.082-0.379,0.892,0.12,0.889c2.827-0.016,6.794,0.104,8.93,2.254c0.201,0.202,0.402,0.297,0.594,0.329
				c0.109,0.412,0.203,0.834,0.266,1.28c-2.94-1.402-6.197-1.693-9.438-1.255c-0.238,0.032-0.183,0.437,0.057,0.421
				c3.439-0.234,6.526,0.725,9.496,2.36c0.003,0.174,0.016,0.341,0.013,0.52c-0.016,0.841,1.174,0.952,1.423,0.193
				C251.544,394.077,247.478,389.195,242.505,386.91z"/>
			<path style="fill:#3C3C3B;" d="M227.024,332.614c2.339-1.961,4.404-4.458,3.881-7.704c-0.483-3.003-2.848-4.488-5.767-4.264
				c-7.286,0.558-13.997,7.093-16.646,13.79c-1.734-1.892-3.479-3.776-5.221-5.662c-0.549-0.594-1.597-0.13-1.587,0.657
				c0.158,12.014-0.055,25.358,3.279,37.357c-2.501,0.865-4.962,1.82-7.341,2.917c-0.818,0.377-0.239,1.751,0.615,1.46
				c2.431-0.827,4.836-1.727,7.236-2.642c0.468,1.504,1.004,2.982,1.6,4.434c-1.939,1.099-3.733,2.376-5.231,3.811
				c-0.745,0.714,0.229,2.027,1.118,1.448c1.681-1.095,3.252-2.311,4.918-3.411c1.289,2.804,2.846,5.489,4.751,8.006
				c-4.172,0.483-8.261,3.542-9.219,7.699c-0.895,3.883,1.172,8.124,5.072,9.244c0.621,0.178,1.025-0.739,0.444-1.054
				c-3.07-1.661-4.432-5.363-3.105-8.624c1.444-3.546,4.958-4.632,8.356-5.383c1.048-0.231,0.857-1.719-0.08-1.918
				c-1.62-3.046-2.996-6.115-4.17-9.209c2.591-1.418,5.321-2.457,8.076-3.508c0.641-0.244,0.399-1.163-0.285-1.032
				c-2.747,0.525-5.679,1.476-8.435,2.779c-0.495-1.4-0.953-2.806-1.37-4.217c3.212-1.229,6.429-2.45,9.701-3.526
				c0.64-0.21,0.378-1.202-0.28-1.016c-3.271,0.921-6.594,1.854-9.873,2.908c-2.995-10.923-3.84-22.197-3.91-33.974
				c1.445,1.723,2.887,3.45,4.347,5.16c0.945,1.106,2.596-0.521,1.607-1.607c-0.01-0.011-0.021-0.022-0.031-0.033
				c2.173-3.859,4.873-7.242,8.641-9.727c1.936-1.277,4.188-2.535,6.517-2.83c5.03-0.637,4.788,4.003,2.8,6.853
				c-0.738,1.058-2.051,1.887-3.019,2.7c-0.521,0.437-0.174,1.207,0.349,1.422c0.043,0.202,0.214,0.365,0.475,0.287
				c2.42-0.721,5.489,0.224,5.486,3.194c-0.001,1.079-0.485,2.074-1.464,2.582c-1.051,0.545-1.887,0.209-2.936-0.05
				c-0.996-0.246-1.858,1.039-1.042,1.789c2.977,2.735,7.718-0.576,7.627-4.128C232.828,334.437,229.89,332.182,227.024,332.614z"/>
			<path style="fill:#3C3C3B;" d="M207.253,338.121c-0.245-0.403-0.673-0.591-0.939-0.973c-0.243-0.35-0.37-0.787-0.435-1.205
				c-0.079-0.516-0.84-0.439-0.969,0c-0.324,1.109,0.12,3.07,1.413,3.388C207.004,339.499,207.635,338.752,207.253,338.121z"/>
			<path style="fill:#3C3C3B;" d="M299.14,350.185c-11.716-5.187-23.711,2.07-35.629-0.711c-2.302-0.537-4.274-1.542-6.029-2.836
				c2.234-0.928,4.484-1.825,6.762-2.722c0.808-0.318,0.504-1.596-0.368-1.333c-2.6,0.783-5.172,1.826-7.67,3.033
				c-0.912-0.794-1.77-1.658-2.573-2.585c2.217-1.507,4.443-3.003,6.679-4.509c0.698-0.469,0.083-1.556-0.665-1.137
				c-2.369,1.328-4.702,2.856-6.964,4.502c-1.914-2.406-3.582-5.076-5.24-7.614c-4.382-6.709-8.447-13.565-10.828-21.267
				c-0.19-0.615-1.104-0.996-1.573-0.415c-2.448,3.035-4.194,6.204-4.746,10.099c-0.082,0.58,0.647,0.782,0.873,0.241
				c1.182-2.827,2.407-5.331,4.176-7.708c2.182,6.71,5.615,12.788,9.444,18.727c1.938,3.007,3.889,6.282,6.197,9.204
				c-2.356,1.809-4.617,3.733-6.719,5.702c-0.253,0.237,0.089,0.705,0.379,0.491c2.386-1.757,4.798-3.447,7.225-5.113
				c0.725,0.851,1.497,1.651,2.305,2.406c-2.012,1.061-3.965,2.216-5.826,3.427c-0.356,0.231-0.046,0.761,0.332,0.569
				c2.174-1.103,4.366-2.097,6.574-3.05c0.803,0.665,1.639,1.289,2.542,1.824c12.518,7.423,27.371-3.145,40.227,2.681
				C299.314,352.673,300.434,350.757,299.14,350.185z"/>
			<path style="fill:#3C3C3B;" d="M237.81,323.737c-0.28-0.703-0.743-1.294-1.046-1.983c-0.285-0.649-0.429-1.382-0.567-2.073
				c-0.115-0.572-1.036-0.711-1.289-0.168c-0.835,1.79-0.499,4.352,1.208,5.526C236.904,325.579,238.181,324.666,237.81,323.737z"/>
			<path style="fill:#3C3C3B;" d="M241.101,357.281c-0.904-0.812-2.073,0.401-1.316,1.316c0.434,0.525,0.427,1.296-0.012,1.825
				c-0.627,0.758-1.731,0.775-2.611,0.516c-1.449-0.428-2.689-1.649-3.731-2.683c-0.087-0.086-0.196-0.101-0.295-0.076
				c-0.014-0.163-0.056-0.327-0.164-0.473c0.053-0.091,0.101-0.187,0.135-0.295c0.536-1.719,0.922-3.46,1.162-5.245
				c0.118-0.876-0.579-2.089-1.654-1.655c-2.369,0.957-4.647,2.074-6.832,3.4c-0.683,0.415-0.929,1.506-0.268,2.078
				c1.689,1.461,4.111,3.129,6.47,3.126c0.206,0.624,0.406,1.251,0.566,1.889c0.224,0.889,0.478,2.009-0.067,2.855
				c-0.74,1.147-1.589,0.833-2.298-0.004c-0.656-0.774-1.708,0.082-1.555,0.905c0.483,2.611,4.042,2.302,5.285,0.492
				c1.046-1.523,0.837-3.289,0.163-4.985c1.37,1.701,3.157,3.03,5.545,2.291C241.773,361.894,242.923,358.917,241.101,357.281z"/>
			<path style="fill:#3C3C3B;" d="M243.596,338.093c-0.482-0.75-1.736-0.286-1.475,0.622c0.436,1.519,1.605,3.968-0.774,4.484
				c-1.691,0.367-3.406-1.003-4.681-1.926c-0.513-0.372-1.037,0.411-0.649,0.84c1.698,1.875,4.066,3.793,6.723,2.514
				C245.312,343.391,244.911,340.142,243.596,338.093z"/>
			<path style="fill:#3C3C3B;" d="M215.882,351.567c-0.593-0.131-1.139,0.372-0.982,0.983c0.224,0.87,0.892,1.387,0.89,2.365
				c-0.002,0.85-0.351,1.74-1.041,2.261c-1.956,1.478-4.266-0.787-4.647-2.667c-0.055-0.272-0.431-0.228-0.508,0
				c-1.074,3.187,3.122,5.812,5.822,4.353c1.295-0.7,2.064-2.118,2.212-3.551C217.757,354.044,217.364,351.893,215.882,351.567z"/>
		</g>
		<g>
			<path style="fill:#3C3C3B;" d="M254.713,216.894c-2.817-0.604-5.507-0.826-8.342-0.699c-0.217-4.793-0.894-9.303-2.81-13.793
				c-0.09-0.212-0.378-0.048-0.346,0.145c0.825,4.955,1.347,9.931,0.738,14.935c-0.077,0.632,0.629,1.28,1.236,1.236
				c2.453-0.179,4.821-0.093,7.217,0.258c-1.131,1.654-2.475,2.981-4.027,4.373c-0.835,0.748,0.229,1.989,1.157,1.5
				c2.667-1.404,4.463-3.553,5.907-6.161C255.804,218.034,255.505,217.064,254.713,216.894z"/>
			<path style="fill:#3C3C3B;" d="M260.601,226.37c-1.181,6.462-3.299,16.171-11.722,16.108c-7.013-0.052-11.245-6.74-15.274-11.474
				c-0.188-0.221-0.482,0.06-0.375,0.289c3.132,6.713,8.891,14.248,17.254,13.398c8.676-0.882,11.494-10.432,12.626-17.629
				C263.366,225.435,260.905,224.709,260.601,226.37z"/>
			<g>
				<g>
					<path style="fill:#3C3C3B;" d="M270.4,198.923c-0.437-1.126-1.774-1.2-2.482-0.641c-0.179,0.009-0.358,0.099-0.488,0.298
						c-2.106,3.213-0.81,7.914,1.245,10.796c0.638,0.895,2.369,0.981,2.611-0.341C271.914,205.59,271.668,202.199,270.4,198.923z"/>
					<path style="fill:#3C3C3B;" d="M275.759,196.11c-0.457-0.581-0.94-1.166-1.495-1.658c-0.575-0.509-1.146-1.098-1.855-1.391
						c-1.22-0.504-1.905,1.409-0.869,2.062c0.316,0.199,0.638,0.237,0.983,0.357c0.313,0.109,0.602,0.277,0.898,0.425
						c0.6,0.299,1.178,0.61,1.738,0.981C275.667,197.221,276.078,196.516,275.759,196.11z"/>
				</g>
				<g>
					<path style="fill:#3C3C3B;" d="M225.159,202.184c-0.818-1.376-2.847-1.039-3.315,0.433c-0.181,0.57-0.341,1.265-0.458,2.018
						c-1.558,3.172-0.676,6.917,1.66,9.798c0.659,0.812,2.327,0.624,2.75-0.354C227.493,210.153,227.366,205.895,225.159,202.184z"
						/>
					<path style="fill:#3C3C3B;" d="M217.155,196.716c-1.905,0.628-3.289,3.191-2.904,5.158c0.087,0.443,0.701,0.37,0.826,0
						c0.255-0.758,0.486-1.437,1.054-2.028c0.542-0.564,1.195-0.787,1.849-1.173C218.999,198.071,218.335,196.327,217.155,196.716z"
						/>
				</g>
			</g>
			<g>
				
					<ellipse transform="matrix(0.968 -0.2511 0.2511 0.968 -50.8421 61.8514)" style="fill:#EFA7AB;" cx="216.913" cy="230.125" rx="8.432" ry="8.432"/>
				<path style="fill:#EFA7AB;" d="M284.052,222.63c0-3.449-2.796-6.246-6.246-6.246c-3.449,0-6.245,2.796-6.245,6.246
					c0,3.449,2.796,6.245,6.245,6.245C281.256,228.876,284.052,226.079,284.052,222.63z"/>
			</g>
		</g>
		<g>
			<path style="fill:#3FCFBA;" d="M186.934,147.371c0,0-20.61-0.937-16.863-31.852c3.747-30.916,45.593-35.287,56.21-25.919
				c10.617,9.368,14.053,22.484,8.119,32.165C228.467,131.445,186.934,147.371,186.934,147.371z"/>
			<path style="opacity:0.6;fill:#3FCFBA;" d="M226.281,89.599c-1.374-1.212-3.273-2.191-5.541-2.916
				c7.355,6.303,12.285,14.844,12.767,25.712c0.033,0.746-0.572,1.53-1.293,1.699c-11.833,2.777-24.476,3.817-34.903,10.626
				c-4.738,3.094-9.448,6.474-13.75,10.147c-2.542,2.17-5.272,4.602-7.227,7.457c4.869,4.781,10.6,5.046,10.6,5.046
				s41.533-15.926,47.466-25.607C240.334,112.083,236.898,98.968,226.281,89.599z"/>
			<path style="fill:#3FCFBA;" d="M178.835,191.986c0,0,1.853,15.343,1.541,15.967c-0.312,0.625-1.249,0.937-4.06,1.561
				c-2.811,0.625-5.309,0.625-5.309,0.625s0.312,4.684,4.996,13.116c4.684,8.432,16.551,18.112,16.551,18.112
				s4.06,4.996,8.744,11.554c4.684,6.558,12.491,12.803,12.491,12.803s-8.744-19.986-12.491-41.533
				c-3.747-21.547-6.246-44.031-6.246-53.712c0-9.681,1.249-17.8,1.249-17.8s0.625,13.428,2.186,19.986
				c1.561,6.558,4.372,14.989,4.372,14.989s21.547,5.309,48.091,2.186c26.544-3.123,41.533-10.305,41.533-10.305
				s5.933-25.919-16.551-48.715c-22.484-22.796-64.329-10.618-75.884-4.06c-11.554,6.558-26.231,19.986-29.979,40.284
				c-3.747,20.298-4.372,22.484-4.372,22.484s4.372-0.312,6.87,0C175.067,189.841,178.835,191.986,178.835,191.986z"/>
			<path style="opacity:0.6;fill:#3FCFBA;" d="M195.053,170.48c0-2.98,0.119-5.801,0.283-8.29c-0.087-1.077-0.165-2.144-0.244-3.186
				c-1.476,6.61-0.787,14.062-0.64,20.491c0.214,9.369,0.968,18.724,2.24,28.009c2.539,18.531,7.151,36.687,12.833,54.487
				c2.425,2.26,4.265,3.735,4.265,3.735s-8.744-19.986-12.491-41.533C197.551,202.645,195.053,180.16,195.053,170.48z"/>
			<path style="opacity:0.6;fill:#3FCFBA;" d="M181.502,173.799c-2.318,5.495-3.649,11.394-4.236,17.372
				c0.926,0.45,1.569,0.815,1.569,0.815s0.101,0.838,0.251,2.123c0.091-0.198,0.219-0.362,0.369-0.5
				c-0.06-1.018-0.085-2.038-0.057-3.057C179.554,184.894,180.935,179.397,181.502,173.799z"/>
			<path style="opacity:0.6;fill:#3FCFBA;" d="M275.933,130.82c-1.009-1.023-2.069-1.951-3.151-2.837
				c4.346,6.054,8.057,12.511,10.443,19.829c2.609,8,10.072,26.053,0.067,31.937c-4.879,2.869-12.317,2.882-17.752,3.858
				c-8.323,1.495-16.717,2.696-25.174,3.044c-10.75,0.441-24.14,2.369-34.339-1.798c-2.176-0.889-3.888-2.201-5.245-3.812
				c1.113,3.714,2.078,6.613,2.078,6.613s21.547,5.309,48.091,2.186c26.544-3.122,41.533-10.305,41.533-10.305
				S298.417,153.617,275.933,130.82z"/>
			<path style="opacity:0.6;fill:#3FCFBA;" d="M177.489,209.244c1.048,9.03,3.571,18.177,8.275,25.958
				c1.324,1.304,2.579,2.474,3.639,3.43c-4.516-9.471-7.957-19.729-9.534-30.179C179.432,208.719,178.704,208.951,177.489,209.244z"
				/>
			<path style="opacity:0.6;fill:#3FCFBA;" d="M173.632,209.96c-1.54,0.178-2.624,0.179-2.624,0.179s0.312,4.684,4.996,13.116
				c0.374,0.672,0.796,1.353,1.251,2.036C175.526,220.401,174.316,215.229,173.632,209.96z"/>
		</g>
		<g>
			<path style="fill:#3C3C3B;" d="M179.757,206.344c-6.098,5.249-14.493,2.302-16.255-5.547c-0.807-3.596-0.097-8.474,3.525-10.322
				c3.892-1.985,8.145,0.084,11.808,1.511c0.505,0.197,0.745-0.555,0.349-0.828c-4.089-2.814-9.954-4.982-14.45-1.726
				c-3.668,2.656-4.5,7.833-3.553,12.005c0.978,4.309,3.995,8.393,8.426,9.548c4.01,1.044,8.824-0.367,10.745-4.181
				C180.548,206.413,180.085,206.061,179.757,206.344z"/>
			<path style="fill:#3C3C3B;" d="M179.092,195.975c-2.687-2.251-9.658-4.364-12.546-1.394c-3.131,3.219,0.713,7.46,3.268,9.395
				c0.19,0.144,0.374-0.151,0.24-0.31c-0.966-1.14-2.225-2.491-2.646-3.967c-0.536-1.877,0.533-3.889,2.564-3.987
				c2.872-0.141,5.356,1.559,8.064,2.08C178.996,197.977,180,196.736,179.092,195.975z"/>
		</g>
		<g>
			<path style="fill:#3C3C3B;" d="M252.136,434.805c-6.824,1.729-13.73,3.009-20.739,3.713c-2.955,0.296-5.922,0.498-8.89,0.596
				c-1.532,0.051-3.131,0.14-4.664,0.022c-2.114-0.162-6.91-2.029-6.241-4.298c6.545,1.989,15.619,0.172,21.344-1.07
				c0.736-0.16,0.585-1.378-0.18-1.327c-3.783,0.256-7.529,0.829-11.328,0.9c-1.996,0.038-3.951-0.054-5.931-0.301
				c-1.109-0.101-2.207-0.278-3.292-0.531c-2.482-0.271-3.45-2.04-2.944-5.268c2.38,0.929,5.46,1.068,7.484,1.366
				c5.154,0.76,10.351,1.036,15.556,0.774c1.189-0.06,1.204-1.889,0-1.861c-4.223,0.097-8.418,0.049-12.618-0.426
				c-1.899-0.215-4.943-0.439-6.878-1.099c-2.305-0.018-3.51-1.428-3.616-4.231c0.163-0.03,0.319-0.08,0.479-0.12
				c1.454,1.03,3.989,1.148,5.376,1.362c5.926,0.916,12.09,1.346,18.058,0.65c1.024-0.12,1.088-1.647,0-1.647
				c-3.576,0-7.129,0.134-10.704-0.107c-2.287-0.155-4.574-0.408-6.838-0.766c-1.176-0.186-2.346-0.399-3.512-0.638
				c-0.246-2.201,0.468-3.157,2.142-2.867c2.143-0.852,7.96,0.785,10.363,0.796c3.128,0.015,6.156-0.214,9.08-1.326
				c0.049,0.107,0.099,0.212,0.147,0.32c0.481,1.085,2.322,0.312,1.926-0.812c-0.645-1.833-1.545-3.51-2.732-5.053
				c-0.712-0.925-1.508-1.727-2.328-2.552c-0.418-0.385-0.817-0.789-1.197-1.212c-1.553-1.545-1.023-2.616,1.589-3.214
				c2,0.323,4.492,3.598,5.581,5.152c1.124,1.604,1.973,3.351,2.652,5.175c-0.669,0.594-0.458,1.97,0.675,1.93
				c3.838-0.135,8.046,0.289,11.809-0.498c0.514-0.107,0.44-0.823,0-0.968c-3.457-1.139-7.612-0.902-11.254-0.762
				c-0.612-2.946-1.952-5.613-3.966-7.924c-1.656-1.9-4.565-4.896-7.382-4.415c-2.39,0.409-3.108,3.097-2.342,5.127
				c0.575,1.522,1.878,2.546,2.955,3.694c1.388,1.481,2.421,3.082,3.305,4.836c-2.84-0.05-5.671,0.261-8.517,0.207
				c-3.066-0.058-6.078-0.761-9.13-0.823c-2.417-0.049-6.867,1.047-6.859,4.262c0.001,0.323,0.062,0.606,0.156,0.866
				c-2.189,0.359-3.869,2.357-2.213,4.808c0.164,0.243,0.361,0.459,0.572,0.663c-2.169,1.227-1.803,5.144,0.517,6.94
				c0.763,0.591,1.615,1.07,2.531,1.459c-0.483,0.708-0.63,1.612-0.319,2.741c0.893,3.243,5.249,4.035,8.025,4.245
				c11.453,0.87,23.834-1.563,34.879-4.362C254.099,436.584,253.516,434.455,252.136,434.805z"/>
			<path style="fill:#3C3C3B;" d="M289.547,389.642c-2.621,0.483-4.749,2.297-6.876,3.765c-3.301,2.277-6.845,3.816-10.65,4.972
				c0.086-1.854,0.356-3.607,1.237-5.29c0.671-1.281,1.698-2.399,2.055-3.831c0.325-1.304,0.045-2.615-0.909-3.361
				c-0.046-0.098-0.115-0.193-0.219-0.282c-2.788-2.367-6.047,0.725-7.774,2.958c-2.531,3.272-3.902,7.409-3.605,11.542
				c-0.042,0.003-0.079-0.007-0.124,0.002c-0.93,0.19-1.829,0.455-2.774,0.574c-0.794,0.1-1.63,0.062-2.394,0.3
				c-0.466,0.145-0.423,0.744,0,0.905c1.561,0.595,4.016,0.187,5.571-0.318c0.301-0.098,0.453-0.308,0.505-0.539
				c0.292-0.034,0.564-0.242,0.594-0.645c0.204-2.724,0.719-5.399,1.964-7.853c1.045-2.062,3.967-7.039,7.01-5.594
				c0.193,0.091,0.397,0.097,0.585,0.05c0.068,0.664-0.06,1.381-0.317,1.853c-0.306,0.562-0.742,1.044-1.12,1.556
				c-0.563,0.763-1.071,1.519-1.474,2.384c-0.876,1.882-1.278,3.964-1.054,6.029c0.093,0.857,0.893,1.208,1.507,1.015
				c0.012-0.001,0.021,0.005,0.033,0.003c3.216-0.373,6.288-1.227,9.173-2.723c1.742-0.903,3.269-2.078,4.897-3.157
				c0.748-0.533,1.526-1.019,2.332-1.458c2.453-1.738,4.417-1.291,5.893,1.331c-6.17,1.993-11.029,6.457-17.126,8.453
				c-0.244,0.08-0.205,0.447,0.061,0.453c2.734,0.057,4.985-0.972,7.317-2.325c3.362-1.95,6.597-3.682,10.282-4.992
				c0.342-0.122,0.51-0.389,0.555-0.672c0.168-0.079,0.315-0.23,0.401-0.471C296.407,390.638,292.572,389.085,289.547,389.642z"/>
			<g>
				<path style="fill:#3C3C3B;" d="M216.202,251.673c-0.101-0.089-0.303-0.005-0.248,0.144c2.117,5.71,7.59,14.521,1.69,19.775
					c-0.77,0.686,0.261,2.066,1.118,1.448C225.449,268.217,221.295,256.163,216.202,251.673z"/>
				<path style="fill:#3C3C3B;" d="M321.353,228.096c-0.141-0.836-1.538-0.83-1.683,0c-0.302,1.722-2.06,1.981-3.041,0.547
					c-0.921-1.347-0.556-3.21-0.199-4.684c0.056-0.233-0.09-0.398-0.27-0.442c1.161-0.954,2.272-1.971,3.425-2.935
					c0.763-0.638,0.229-1.717-0.531-2.01c-1.274-0.493-2.551-0.975-3.84-1.429c-1.041-0.367-2.237-0.708-2.991,0.362
					c-0.593,0.841-0.308,1.882,0.034,2.754c0.479,1.222,0.908,2.474,1.719,3.52c-0.543,2.295-1.634,5.006-3.644,3.806
					c-0.338-0.202-0.659-0.141-0.89,0.044c-0.43-0.339-0.664-0.772-1.028-1.275c-0.416-0.574-1.446-0.435-1.427,0.386
					c0.028,1.201,1.208,2.277,2.285,2.645c0.324,0.111,0.678,0.183,1.032,0.205c1.302,0.47,2.882-0.322,3.706-1.463
					c0.207-0.287,0.386-0.591,0.547-0.902c-0.046,1.48,0.51,2.9,2.002,3.768C318.648,232.21,321.789,230.694,321.353,228.096z"/>
				<path style="fill:#3C3C3B;" d="M307.549,208.191c-0.556,1.23-1.685,2.257-3.144,1.937c-1.412-0.31-2.138-1.786-2.24-3.103
					c-0.041-0.523-0.751-0.643-0.922-0.125c-0.663,2.009,0.765,4.175,2.764,4.671c2.021,0.502,4.302-0.829,4.836-2.834
					C309.043,207.989,307.89,207.438,307.549,208.191z"/>
				<path style="fill:#3C3C3B;" d="M330.97,213.171c-0.217,1.105-1.169,2.191-2.422,1.816c-1.084-0.325-1.643-1.683-1.435-2.724
					c0.111-0.559-0.663-0.959-0.963-0.406c-0.975,1.793-0.017,4.125,1.958,4.724c2.125,0.644,4.382-1.02,4.56-3.18
					C332.748,212.436,331.158,212.215,330.97,213.171z"/>
				<path style="fill:#3C3C3B;" d="M187.72,238.753c-7.759-0.404-14.992,3.799-19.721,9.913c-0.083-0.091-0.183-0.171-0.312-0.232
					c-4.332-2.027-0.986-11.258-0.527-14.715c0.503-3.79,0.612-7.728-1.035-11.277c-3.058-6.589-10.348-9.254-16.765-11.38
					c-4.957-1.642-9.718-3.329-13.596-6.958c-2.725-2.549-4.967-5.851-8.399-7.534c-3.434-1.683-8.005-1.38-10.057,1.762
					c-0.16-0.08-0.354-0.076-0.503,0.095c-3.993,4.602-2.285,11.39,1.873,15.329c6.311,5.979,15.673,5.66,23.583,7.68
					c5.051,1.29,10.362,3.965,12.25,9.182c1.754,4.846-1.514,9.336-0.854,14.235c0.721,5.349,5.079,10.037,10.38,10.802
					c-0.719,1.883-1.219,3.832-1.453,5.804c-1.43,12.06,6.931,25.611,19.123,28.288c1.346,0.295,1.779-1.517,0.556-2.017
					c-10.776-4.404-19.058-14.834-16.962-27.051c1.967-11.463,11.852-18.465,22.571-20.794
					C188.534,239.742,188.345,238.786,187.72,238.753z M164.516,254.492c-4.077-1.424-7.495-4.227-8.622-8.66
					c-0.943-3.709,0.827-6.916,1.207-10.531c0.535-5.094-2.134-9.466-6.206-12.385c-5.628-4.034-12.74-4.274-19.294-5.565
					c-8.045-1.585-18.853-7.488-14.738-16.977c0.019-0.017,0.042-0.021,0.056-0.047c2.91-5.472,9.741-2.509,13.045,0.582
					c2.133,1.995,3.858,4.359,6.147,6.197c5.907,4.743,13.661,5.504,20.208,8.979c3.649,1.937,6.927,4.658,8.202,8.719
					c1.53,4.867-0.077,10.101-0.876,14.944c-0.648,3.927-1.277,8.915,3.046,10.758C165.86,251.781,165.121,253.111,164.516,254.492z
					"/>
				<path style="fill:#3C3C3B;" d="M204.31,266.61c0.165-6.513-1.716-14.028-8.685-16.17c-6.81-2.093-13.713,3.321-16.722,9.029
					c-0.146,0.276,0.235,0.488,0.412,0.241c3.62-5.042,10.438-10.441,16.761-6.942c5.526,3.058,6.015,9.658,5.546,15.323
					c-0.068,0.824,0.895,1.52,1.657,1.263c1.397-0.472,2.741-0.949,4.218-1.116c2.808-0.317,7.716-0.059,7.769,4.349
					c-2.171-1.134-4.856-1.449-7.208-0.898c-0.545,0.128-0.437,1.019,0.133,0.987c2.539-0.145,4.524,0.588,6.379,2.317
					c0.469,0.437,0.99,0.431,1.395,0.203c0.488,0.131,1.029-0.054,1.126-0.685C218.293,266.671,210.174,266.009,204.31,266.61z"/>
				<path style="fill:#3C3C3B;" d="M343.563,227.769c-2.749-0.8-5.527-1.556-8.315-2.282c3.689-13.251,4.434-27.379,2.115-40.882
					c-0.144-0.836-1.201-0.733-1.602-0.209c-1.87,2.439-2.85,4.648-3.796,7.4c-0.955-1.391-2.681-2.447-4.2-3.268
					c0.284-2.041-0.416-4.304-2.554-6c-7.664-6.079-19.213,1.128-25.933,6.654c-0.645-3.529-2.719-6.385-6.078-8.178
					c-0.679-0.362-1.62,0.081-1.59,0.913c0.371,10.474-1.341,20.08-3.215,30.227c-0.234-0.073-0.467-0.144-0.701-0.215
					c-1.964-9.553-6.22-19.104-1.733-28.192c0.504-1.023-1.026-1.925-1.536-0.898c-4.722,9.507-0.681,18.896,1.373,28.519
					c0.056,0.264,0.091,0.527,0.141,0.79c-0.096,0.277-0.055,0.602,0.15,0.845c1.802,11.212-2.51,21.909-11.061,29.492
					c-17.372,15.408-47.259,14.215-66.673,3.687c-0.338-0.183-0.616,0.302-0.299,0.512c13.637,9.026,32.775,11.693,49.195,7.207
					c-1.883,5.75-3.705,18.277,3.292,20.444c-12.683,15.217-32.715,15.108-47.141,2.255c-0.229-0.204-0.659,0.072-0.453,0.35
					c12.274,16.542,38.018,14.475,49.838-1.338c0.251-0.336,0.258-0.702,0.126-1.026c0.88-0.382,0.725-1.992-0.461-2.042
					c-6.957-0.29-4.575-14.065-4.309-18.896c5.316-1.546,10.331-3.847,14.754-6.943c7.879-5.516,13.962-14.144,15.42-23.759
					c0.119-0.785,0.189-1.57,0.225-2.357c4.481,0.862,9.194,1.411,13.745,1.267c0.489-0.016,0.462-0.684,0-0.741
					c-4.594-0.567-9.154-1.069-13.722-1.847c-0.012-1.622-0.167-3.247-0.42-4.873c0.076,0.035,0.165,0.024,0.207-0.076
					c0.039-0.093,0.074-0.188,0.113-0.282c4.918,1.896,9.944,3.859,14.959,5.33c0.459,0.135,0.734-0.528,0.324-0.768
					c-4.44-2.599-9.628-4.632-14.624-6.221c3.325-8.836,4.439-19.038,4.583-28.451c2.318,1.886,3.484,4.487,3.44,7.622
					c-0.015,1.056,1.289,1.521,2.021,0.837c3.872-3.624,8.263-6.781,13.237-8.706c2.366-0.916,4.981-1.669,7.549-1.427
					c1.722,0.162,4.053,0.847,5.2,2.267c1.072,1.328,1.49,2.571,1.459,3.652c-0.149,0.123-0.196,0.361-0.054,0.538
					c-0.481,2.739-3.972,4.196-6.687,2.79c-0.825-0.427-1.55,0.794-0.732,1.251c0.012,0.007,0.024,0.011,0.036,0.018
					c0.001,0.143,0.079,0.288,0.261,0.359c4.762,1.861,4.611,8.773-0.478,10.037c-4.888,1.214-7.957-3.623-7.245-7.99
					c0.18-1.104-1.335-1.564-1.699-0.468c-2.131,6.416,4.094,13.058,10.591,10.242c4.694-2.034,5.433-8.491,1.854-11.317
					c2.477-0.072,4.407-1.86,5.097-4.122c0.568,0.459,1.117,0.941,1.622,1.479c0.681,0.726,1.29,1.55,2.079,2.158
					c0.152,0.117,0.31,0.145,0.456,0.115c0.231,0.252,0.749,0.248,0.913-0.179c0.82-2.139,2.028-4.145,3.357-6.034
					c1.957,12.911,0.831,25.773-2.773,37.922c-2.879-0.728-5.766-1.422-8.646-2.068c-0.591-0.133-0.823,0.715-0.25,0.905
					c2.785,0.926,5.601,1.816,8.427,2.671c-0.301,0.956-0.618,1.907-0.949,2.853c-2.405-1.011-4.869-1.864-7.301-2.538
					c-0.324-0.09-0.434,0.375-0.136,0.492c2.449,0.966,4.759,2.035,7.017,3.184c-4.998,13.701-13.141,26.329-23.558,36.861
					c-4.633-4.374-10.004-7.912-15.711-10.253c-1.042-0.427-1.77,1.317-0.768,1.821c13.831,6.949,25.211,18.743,28.708,34.199
					c0.403,1.782,1.216,5.58,1.062,8.904c-1.181-2.047-2.883-3.847-4.897-4.97c-0.571-0.318-1.194,0.445-0.709,0.918
					c2.253,2.19,3.694,4.442,4.573,7.473c0.043,0.147,0.108,0.267,0.184,0.373c-0.491,0.974-1.213,1.72-2.281,2.054
					c0.005-0.011,0.012-0.019,0.016-0.03c0.586-1.572-0.584-3.52-1.383-4.847c-0.854-1.418-2.003-2.774-3.424-3.642
					c-0.299-0.182-0.735,0.2-0.507,0.507c0.96,1.293,1.859,2.51,2.361,4.064c0.438,1.355,0.159,2.949,0.883,4.171
					c-4.552-0.464-7.447-7.286-9.258-10.619c-4.406-8.112-8.413-16.487-12.448-24.79c-0.126-0.259-0.556-0.078-0.467,0.197
					c2.001,6.154,4.228,12.156,6.938,18.034c2.293,4.974,4.422,10.617,7.693,15.039c5.186,7.008,14.731,5.777,15.036-3.71
					c0.416-12.958-5.807-25.447-15.173-34.483c11.73-9.501,20.127-22.222,25.096-36.239c2.262,1.216,4.491,2.512,6.764,3.887
					c0.755,0.456,1.381-0.673,0.682-1.166c-2.156-1.521-4.528-2.847-6.993-4c0.35-1.037,0.685-2.079,0.997-3.129
					c2.767,0.817,5.542,1.602,8.314,2.336C344.175,229.702,344.622,228.077,343.563,227.769z"/>
			</g>
		</g>
	</g>
</g>
</svg>
